<?xml version="1.0" encoding="UTF-8"?>
<svg width="681px" height="778px" viewBox="0 0 681 778" version="1.1" xmlns="http://www.w3.org/2000/svg" xmlns:xlink="http://www.w3.org/1999/xlink">
    <!-- Generator: Sketch 62 (91390) - https://sketch.com -->
    <title>nantes_p2p_small</title>
    <desc>Created with Sketch.</desc>
    <g id="Page-1" stroke="none" stroke-width="1" fill="none" fill-rule="evenodd">
        <g id="nantes_p2p_small" transform="translate(-4.000000, -639.000000)">
            <path d="M334.534514,650.778715 L22.9966373,830.725851 C16.8105108,834.299014 13,840.900492 13,848.044417 L13,1207.95626 C13,1215.09982 16.8101252,1221.70102 22.9957536,1225.27432 L334.495754,1405.22077 C340.685933,1408.7967 348.314067,1408.7967 354.504246,1405.22077 L666.004246,1225.27432 C672.189875,1221.70102 676,1215.09982 676,1207.95626 L676,848.043056 C676,840.899861 672.190261,834.298941 666.00513,830.725511 L354.543007,650.779736 C348.35301,647.203494 340.724876,647.203105 334.534514,650.778715 Z" id="hexagon" stroke="#383B62" stroke-width="18" fill="#383B62" stroke-linejoin="round"></path>
            <path d="M345.823363,681 C345.24805,708.613788 343.306929,726.780455 340,735.5 C336.693071,744.219545 329.026404,751.386212 317,757 L316.231458,803 C324.800765,809.380216 330.056946,814.046883 332,817 C333.943054,819.953117 334.169932,823.619784 332.680635,828 C317.883273,835.526008 308.172371,842.859342 303.547929,850 C298.923487,857.140658 295.681965,869.807325 293.823363,888 C288.695178,893.76442 284.754057,896.26442 282,895.5 C279.245943,894.73558 275.080751,889.98558 269.504422,881.25 C270.657853,891.511795 271.86187,898.428461 273.116472,902 C275.665066,909.25521 283.992958,910.097276 285.374744,914.556471 C287.776851,922.308372 289.151937,932.715627 289.5,945.778235 C289.716788,965.101027 289.216788,977.174949 288,982 C286.339829,988.583241 278.524303,983.842661 278.524303,988 C278.524303,996.727894 282.182869,1002.06123 289.5,1004 C282.260838,1011.3837 277.528183,1016.3837 275.302035,1019 C273.075887,1021.6163 271.14335,1024.44964 269.504422,1027.5 C276.963953,1038.62161 282.25406,1045.76705 285.374744,1048.93633 C295.435697,1059.15395 302.150733,1062.57176 303.547929,1074.92734 C304.643971,1084.61978 303.593465,1109.68939 299.398556,1121.05569 C296.971464,1127.63201 291.171945,1133.28011 282,1138 C268.074881,1157.34147 257.741547,1171.00814 251,1179 C229.983016,1203.91488 211.744391,1221.97677 204.576383,1235 C193.959488,1254.28935 188.66921,1278.45602 188.705549,1307.5 L345.823363,1405.11976 L345.823363,681 Z" id="bg-left" fill="#43466F"></path>
            <path d="M502.823363,681 C502.24805,708.613788 500.306929,726.780455 497,735.5 C493.693071,744.219545 486.026404,751.386212 474,757 L473.231458,803 C481.800765,809.380216 487.056946,814.046883 489,817 C490.943054,819.953117 491.169932,823.619784 489.680635,828 C474.883273,835.526008 465.172371,842.859342 460.547929,850 C455.923487,857.140658 452.681965,869.807325 450.823363,888 C445.695178,893.76442 441.754057,896.26442 439,895.5 C436.245943,894.73558 432.080751,889.98558 426.504422,881.25 C427.657853,891.511795 428.86187,898.428461 430.116472,902 C432.665066,909.25521 440.992958,910.097276 442.374744,914.556471 C444.776851,922.308372 446.151937,932.715627 446.5,945.778235 C446.716788,965.101027 446.216788,977.174949 445,982 C443.339829,988.583241 435.524303,983.842661 435.524303,988 C435.524303,996.727894 439.182869,1002.06123 446.5,1004 C439.260838,1011.3837 434.528183,1016.3837 432.302035,1019 C430.075887,1021.6163 428.14335,1024.44964 426.504422,1027.5 C433.963953,1038.62161 439.25406,1045.76705 442.374744,1048.93633 C452.435697,1059.15395 459.150733,1062.57176 460.547929,1074.92734 C461.643971,1084.61978 460.593465,1109.68939 456.398556,1121.05569 C453.971464,1127.63201 448.171945,1133.28011 439,1138 C425.074881,1157.34147 414.741547,1171.00814 408,1179 C386.983016,1203.91488 368.744391,1221.97677 361.576383,1235 C350.959488,1254.28935 345.66921,1278.45602 345.705549,1307.5 L502.823363,1405.11976 L502.823363,681 Z" id="bg-left-copy" fill="#43466F" transform="translate(424.264456, 1043.059882) scale(-1, 1) translate(-424.264456, -1043.059882) "></path>
            <g id="lines-tower" transform="translate(187.706887, 685.000000)" stroke="#6568A8" stroke-linecap="round" stroke-linejoin="round" stroke-width="8">
                <path d="M105.675177,201.189785 C103.539108,210.063323 99.9441092,214.500093 94.8901802,214.500093 C89.8362512,214.500093 85.1387031,209.871042 80.7975359,200.612941 C80.7975359,212.640458 83.8149527,220.393334 89.8497862,223.871571 C95.8846198,227.349807 99.1800685,238.892617 99.7361324,258.5 C102.768763,240.676843 109.121827,227.464045 118.795325,218.861608 C133.305572,205.957953 153.551576,207.230576 157.293113,207.230576" id="Path-63"></path>
                <path d="M177.332544,201.189785 C176.75823,210.063323 173.944109,214.500093 168.89018,214.500093 C163.836251,214.500093 159.138703,209.871042 154.797536,200.612941 C154.797536,212.640458 157.814953,220.393334 163.849786,223.871571 C169.88462,227.349807 173.180068,238.892617 173.736132,258.5 C176.768763,240.676843 183.121827,227.464045 192.795325,218.861608 C207.305572,205.957953 227.551576,207.230576 231.293113,207.230576" id="Path-63-Copy-2" transform="translate(193.045325, 229.556471) scale(-1, 1) translate(-193.045325, -229.556471) "></path>
                <path d="M209.116476,0.189784724 C209.921335,21.084489 208.300955,36.780394 204.255336,47.2774997 C200.209718,57.7746054 191.985235,65.4096754 179.581887,70.1827096 C178.930636,69.7459667 178.605011,73.8052299 178.605011,82.3604991 C178.605011,90.9157684 178.605011,103.983196 178.605011,121.562781 C186.834153,124.498509 191.801786,126.927623 193.50791,128.850122 C195.214033,130.772621 196.00731,134.771223 195.887742,140.845928 C181.500067,146.773314 171.098586,155.316738 164.683298,166.4762 C158.26801,177.635662 155.931969,189.206857 157.675177,201.189785" id="Path-62-Copy" transform="translate(183.216641, 100.689785) scale(-1, 1) translate(-183.216641, -100.689785) "></path>
                <path d="M157.116476,0.189784724 C157.921335,21.084489 156.300955,36.780394 152.255336,47.2774997 C148.209718,57.7746054 139.985235,65.4096754 127.581887,70.1827096 C126.930636,69.7459667 126.605011,73.8052299 126.605011,82.3604991 C126.605011,90.9157684 126.605011,103.983196 126.605011,121.562781 C134.834153,124.498509 139.801786,126.927623 141.50791,128.850122 C143.214033,130.772621 144.00731,134.771223 143.887742,140.845928 C129.500067,146.773314 119.098586,155.316738 112.683298,166.4762 C106.26801,177.635662 103.931969,189.206857 105.675177,201.189785" id="Path-62-Copy-2"></path>
                <path d="M0.754300987,626.831612 C0.839287129,613.674886 1.45894428,603.548368 2.61327244,596.45206 C4.81106889,582.940961 7.82385047,570.003835 15.8694962,551.556016 C28.7015747,522.133411 52.0678921,506.483591 87.2204404,466.468056 C90.6269625,462.590277 84.6861362,458.993726 90.4345347,452.111997 C92.4386959,449.712704 96.0347938,448.187646 100.204705,444.541439 C102.430776,442.594943 106.294556,439.426944 111.796046,435.037443 C115.856041,411.280917 115.856041,393.954855 111.796046,383.059259 C109.045062,375.676587 100.941396,371.721529 91.7907759,362.476388 C88.8879928,359.543621 84.5269432,353.480673 78.7076271,344.287543 L100.204705,317.660609 C96.851378,314.572259 94.5475142,312.185389 93.2931135,310.5 C92.0387127,308.814611 90.7053794,306.314611 89.2931135,303" id="Path-64"></path>
                <path d="M199.456518,621.645478 C200.252033,613.50824 201.099093,607.297152 201.997698,603.012213 C204.633123,590.445365 209.511656,573.377062 219.028468,551.556016 C231.860546,522.133411 255.226864,506.483591 290.379412,466.468056 C293.785934,462.590277 287.845108,458.993726 293.593506,452.111997 C295.597667,449.712704 299.193765,448.187646 303.363676,444.541439 C305.589747,442.594943 309.453528,439.426944 314.955017,435.037443 C319.015013,411.280917 319.015013,393.954855 314.955017,383.059259 C312.204033,375.676587 304.100368,371.721529 294.949747,362.476388 C292.046964,359.543621 287.685915,353.480673 281.866599,344.287543 L303.363676,317.660609 C301.170203,316.428238 299.436783,314.896963 298.163418,313.066782 C296.890053,311.236602 295.223386,307.881008 293.163418,303" id="Path-64-Copy" transform="translate(258.728266, 462.322739) scale(-1, 1) translate(-258.728266, -462.322739) "></path>
                <path d="M127.524571,357.077274 L135.882613,366.28033 C139.22523,369.960892 141.07711,374.754527 141.07711,379.72641 L141.07711,422.777407 L141.07711,422.777407" id="Path-61"></path>
                <path d="M173.524571,358.077274 L181.882613,367.28033 C185.22523,370.960892 187.07711,375.754527 187.07711,380.72641 L187.07711,423.777407 L187.07711,423.777407" id="Path-61-Copy" transform="translate(180.300840, 390.927341) scale(-1, 1) translate(-180.300840, -390.927341) "></path>
                <path d="M78.7931135,345.5 C100.793113,338.42108 126.95978,334.881621 157.293113,334.881621 C187.626447,334.881621 213.418422,337.563687 234.669038,342.927819" id="Path-62"></path>
                <path d="M89.8174168,453 C104.467881,447.587747 126.95978,444.881621 157.293113,444.881621 C187.626447,444.881621 209.95978,447.587747 224.293113,453" id="Path-62"></path>
                <path d="M89.2931135,463 C104.067082,458.199892 126.567082,455.799838 156.793113,455.799838 C187.019145,455.799838 209.185812,458.199892 223.293113,463" id="Path-62"></path>
                <path d="M89.8174168,303 C104.09319,298 126.397743,295.5 156.731076,295.5 C187.064409,295.5 209.585088,298 224.293113,303" id="Path-62"></path>
                <path d="M89.9318395,677.48909 C95.0745844,573.939673 116.695009,522.164964 154.793113,522.164964 C192.891218,522.164964 214.990697,573.939673 221.09155,677.48909" id="Path-65"></path>
                <path d="M131.216421,292 C131.21805,285.431919 131.21805,279.431919 131.216421,274 C131.209151,246.554835 138.06356,231.898747 156.731076,229.556471" id="Path-66"></path>
                <path d="M159.216421,292 C159.21805,285.431919 159.21805,279.431919 159.216421,274 C159.209151,246.554835 166.06356,231.898747 184.731076,229.556471" id="Path-66-Copy" transform="translate(171.973748, 260.778235) scale(-1, 1) translate(-171.973748, -260.778235) "></path>
                <line x1="99.7361324" y1="258.5" x2="100.793113" y2="299.25" id="Path-67"></line>
                <line x1="212.736132" y1="258.5" x2="213.793113" y2="299.25" id="Path-67-Copy"></line>
                <path d="M64.4418745,551.556016 C60.5565813,543.0582 54.629453,534.929949 52.1633761,532.143927 C39.0810051,517.364272 19.9758032,522.054898 18.1436443,537.941499 C15.1114469,564.233601 15.1114469,605.584154 18.1436443,661.993159" id="Path-68-Copy" transform="translate(40.155685, 592.602369) scale(-1, 1) translate(-40.155685, -592.602369) "></path>
                <path d="M298.441875,551.556016 C294.556581,543.0582 288.629453,534.929949 286.163376,532.143927 C273.081005,517.364272 253.975803,522.054898 252.143644,537.941499 C249.111447,564.233601 249.111447,605.584154 252.143644,661.993159" id="Path-68-Copy-2"></path>
                <line x1="157.293113" y1="207" x2="157.293113" y2="185.5" id="Path-70"></line>
                <path d="M167.090226,500 C184.103054,503.26431 196.391925,508.597644 203.95684,516 C211.521756,523.402356 218.233326,539.041275 224.09155,562.916757 C225.488942,542.956482 227.722797,528.420681 230.793113,519.309354 C233.86343,510.198027 237.696763,503.761576 242.293113,500 C234.699483,499.294476 228.632296,497.627809 224.09155,495 C219.550805,492.372191 215.395006,487.543918 211.624153,480.515182 C207.849974,488.221162 202.925217,493.216102 196.849882,495.5 C190.774546,497.783898 180.854661,499.283898 167.090226,500 Z" id="Path-71"></path>
                <path d="M73.0902259,500 C90.1030536,503.26431 102.391925,508.597644 109.95684,516 C117.521756,523.402356 124.233326,539.041275 130.09155,562.916757 C131.488942,542.956482 133.722797,528.420681 136.793113,519.309354 C139.86343,510.198027 143.696763,503.761576 148.293113,500 C140.699483,499.294476 134.632296,497.627809 130.09155,495 C125.550805,492.372191 121.395006,487.543918 117.624153,480.515182 C113.849974,488.221162 108.925217,493.216102 102.849882,495.5 C96.7745461,497.783898 86.8546609,499.283898 73.0902259,500 Z" id="Path-71-Copy" transform="translate(110.691670, 521.715969) scale(-1, 1) translate(-110.691670, -521.715969) "></path>
            </g>
            <text id="Nantes-P2P-Copy" stroke="#383B62" stroke-width="5" font-family="CourierNewPS-BoldMT, Courier New" font-size="110" font-weight="bold" letter-spacing="-0.5" fill="#383B62">
                <tspan x="28.0480957" y="1052">Nantes</tspan>
                <tspan x="421.112549" y="1052" font-size="67"> </tspan>
                <tspan x="461.319092" y="1052" font-size="115">P</tspan>
                <tspan x="530.330322" y="1052" font-size="106">2</tspan>
                <tspan x="593.940674" y="1052" font-size="115">P</tspan>
            </text>
            <text id="Nantes-P2P" font-family="CourierNewPS-BoldMT, Courier New" font-size="110" font-weight="bold" letter-spacing="-0.5" fill="#FFFFFF">
                <tspan x="28.0480957" y="1052">Nantes</tspan>
                <tspan x="421.112549" y="1052" font-size="67"> </tspan>
                <tspan x="461.319092" y="1052" font-size="115">P</tspan>
                <tspan x="530.330322" y="1052" font-size="106">2</tspan>
                <tspan x="593.940674" y="1052" font-size="115">P</tspan>
            </text>
            <g id="circles-tower" transform="translate(178.000000, 671.000000)" fill="#6ED3F0" fill-rule="nonzero">
                <circle id="Oval" cx="182.5" cy="154.5" r="7.5"></circle>
                <circle id="Oval" cx="198.5" cy="136.5" r="6.5"></circle>
                <circle id="Oval" cx="242" cy="207" r="10"></circle>
                <circle id="Oval" cx="89" cy="209" r="12"></circle>
                <circle id="Oval" cx="167.5" cy="243.5" r="7.5"></circle>
                <circle id="Oval" cx="222.5" cy="269.5" r="6.5"></circle>
                <circle id="Oval" cx="199" cy="88" r="9"></circle>
                <circle id="Oval" cx="233" cy="468" r="14"></circle>
                <circle id="Oval" cx="223.5" cy="313.5" r="6.5"></circle>
                <circle id="Oval" cx="153" cy="154" r="8"></circle>
                <circle id="Oval" cx="137.5" cy="135.5" r="7.5"></circle>
                <ellipse id="Oval" cx="167.5" cy="191" rx="12.5" ry="12"></ellipse>
                <circle id="Oval" cx="138" cy="86" r="11"></circle>
                <circle id="Oval" cx="99.5" cy="469.5" r="11.5"></circle>
                <circle id="Oval" cx="113.5" cy="496.5" r="6.5"></circle>
                <circle id="Oval" cx="153.5" cy="513.5" r="8.5"></circle>
                <circle id="Oval" cx="179" cy="515" r="7"></circle>
                <circle id="Oval" cx="222.5" cy="496.5" r="8.5"></circle>
                <circle id="Oval" cx="250" cy="515" r="6"></circle>
                <circle id="Oval" cx="233.5" cy="576.5" r="5.5"></circle>
                <circle id="Oval" cx="101.5" cy="574.5" r="7.5"></circle>
                <circle id="Oval" cx="84.5" cy="515.5" r="7.5"></circle>
                <circle id="Oval" cx="10.5" cy="636.5" r="10.5"></circle>
                <circle id="Oval" cx="72" cy="675" r="7"></circle>
                <circle id="Oval" cx="99.5" cy="686.5" r="10.5"></circle>
                <circle id="Oval" cx="231" cy="691" r="9"></circle>
                <circle id="Oval" cx="262" cy="674" r="7"></circle>
                <circle id="Oval" cx="328.5" cy="631.5" r="10.5"></circle>
                <circle id="Oval" cx="110.5" cy="314.5" r="6.5"></circle>
                <circle id="Oval" cx="109.5" cy="271.5" r="8.5"></circle>
                <circle id="Oval" cx="141.5" cy="309.5" r="6.5"></circle>
                <circle id="Oval" cx="194.5" cy="309.5" r="8.5"></circle>
                <circle id="Oval" cx="167" cy="10" r="10"></circle>
            </g>
            <g id="circles-bg" opacity="0.846679688" transform="translate(52.000000, 729.000000)" fill="#6ED3F0" fill-rule="nonzero">
                <circle id="Oval" cx="139.5" cy="166.5" r="6.5"></circle>
                <circle id="Oval" cx="96" cy="204" r="14"></circle>
                <circle id="Oval" cx="39.5" cy="166.5" r="6.5"></circle>
                <circle id="Oval" cx="153.5" cy="378.5" r="7.5"></circle>
                <circle id="Oval" cx="70.5" cy="95.5" r="10.5"></circle>
                <circle id="Oval" cx="477.5" cy="434.5" r="7.5"></circle>
                <circle id="Oval" cx="8" cy="427" r="8"></circle>
                <circle id="Oval" cx="140" cy="437" r="10"></circle>
                <circle id="Oval" cx="82" cy="407" r="12"></circle>
                <circle id="Oval" cx="56" cy="493" r="12"></circle>
                <circle id="Oval" cx="41" cy="371" r="6"></circle>
                <circle id="Oval" cx="10.5" cy="214.5" r="10.5"></circle>
                <circle id="Oval" cx="107" cy="466" r="5"></circle>
                <circle id="Oval" cx="161.5" cy="231.5" r="6.5"></circle>
                <circle id="Oval" cx="143" cy="99" r="7"></circle>
                <circle id="Oval" cx="186" cy="50" r="8"></circle>
                <circle id="Oval" cx="376.5" cy="6.5" r="6.5"></circle>
                <circle id="Oval" cx="421" cy="199" r="12"></circle>
                <circle id="Oval" cx="541.5" cy="460.5" r="9.5"></circle>
                <circle id="Oval" cx="556.5" cy="143.5" r="5.5"></circle>
                <circle id="Oval" cx="440" cy="136" r="8"></circle>
                <circle id="Oval" cx="392" cy="74" r="9"></circle>
                <circle id="Oval" cx="423" cy="396" r="9"></circle>
                <circle id="Oval" cx="476.5" cy="358.5" r="6.5"></circle>
                <circle id="Oval" cx="562" cy="214" r="10"></circle>
                <circle id="Oval" cx="514" cy="128" r="7"></circle>
                <circle id="Oval" cx="485.5" cy="495.5" r="5.5"></circle>
                <circle id="Oval" cx="488.5" cy="201.5" r="6.5"></circle>
                <circle id="Oval" cx="560.5" cy="385.5" r="14.5"></circle>
                <circle id="Oval" cx="479" cy="75" r="10"></circle>
            </g>
            <circle id="Oval" stroke="#6568A8" stroke-width="6" cx="345.5" cy="780.5" r="18.5"></circle>
        </g>
    </g>
</svg>