<?xml version="1.0" encoding="UTF-8"?>
<svg width="703px" height="800px" viewBox="0 0 703 800" version="1.1" xmlns="http://www.w3.org/2000/svg" xmlns:xlink="http://www.w3.org/1999/xlink">
    <!-- Generator: Sketch 62 (91390) - https://sketch.com -->
    <title>nantes_p2p_large</title>
    <desc>Created with Sketch.</desc>
    <defs>
        <path d="M321.534514,5.77871487 L9.99663729,185.725851 C3.81051082,189.299014 -2.57438742e-14,195.900492 0,203.044417 L0,562.956263 C8.7483378e-16,570.099823 3.81012518,576.701023 9.99575362,580.274319 L321.495754,760.220775 C327.685933,763.7967 335.314067,763.7967 341.504246,760.220775 L653.004246,580.274319 C659.189875,576.701023 663,570.099823 663,562.956263 L663,203.043056 C663,195.899861 659.190261,189.298941 653.00513,185.725511 L341.543007,5.77973589 C335.35301,2.20349427 327.724876,2.20310501 321.534514,5.77871487 Z" id="path-1"></path>
    </defs>
    <g id="Page-1" stroke="none" stroke-width="1" fill="none" fill-rule="evenodd">
        <g id="nantes_p2p_large" transform="translate(20.000000, 17.000000)">
            <g id="hexagon" stroke-linejoin="round">
                <use stroke="#383B62" stroke-width="18" fill="#383B62" fill-rule="evenodd" xlink:href="#path-1"></use>
                <path stroke="#6ED3F0" stroke-width="20" d="M658.00637,588.933347 L346.50637,768.879803 C341.863735,771.561747 336.681867,772.902719 331.5,772.902719 C326.318133,772.902719 321.136265,771.561747 316.49363,768.879803 L4.99363044,588.933347 C-4.28481223,583.573402 -10,573.671603 -10,562.956263 L-10,203.044417 C-10,192.32853 -4.28423377,182.426313 4.99495593,177.066568 L316.532832,-2.88056822 C321.175604,-5.56227561 326.35754,-6.90298334 331.539407,-6.90271891 C336.721275,-6.90245449 341.903074,-5.56121791 346.545572,-2.87903669 L658.007695,177.066738 C667.285391,182.426883 673,192.328263 673,203.043056 L673,562.956263 C673,573.671603 667.284812,583.573402 658.00637,588.933347 Z"></path>
            </g>
            <text id="Nantes-P2P" font-family="CourierNewPS-BoldMT, Courier New" font-size="104" font-weight="bold" letter-spacing="-0.472727273" fill="#FFFFFF">
                <tspan x="35.6696467" y="561">Nantes</tspan>
                <tspan x="407.294221" y="561" font-size="67"> </tspan>
                <tspan x="447.500763" y="561">P</tspan>
                <tspan x="509.91092" y="561" font-size="95">2</tspan>
                <tspan x="566.920197" y="561">P</tspan>
            </text>
            <g id="circles-bg" opacity="0.846679688" transform="translate(19.000000, 78.000000)" fill="#6ED3F0" fill-rule="nonzero">
                <circle id="Oval" cx="121" cy="128" r="6"></circle>
                <circle id="Oval" cx="212.5" cy="116.5" r="5.5"></circle>
                <circle id="Oval" cx="47.5" cy="224.5" r="5.5"></circle>
                <circle id="Oval" cx="218.5" cy="53.5" r="4.5"></circle>
                <circle id="Oval" cx="161.5" cy="73.5" r="4.5"></circle>
                <circle id="Oval" cx="170.5" cy="342.5" r="4.5"></circle>
                <circle id="Oval" cx="84" cy="108" r="5"></circle>
                <circle id="Oval" cx="38.5" cy="143.5" r="9.5"></circle>
                <circle id="Oval" cx="353.5" cy="538.5" r="9.5"></circle>
                <circle id="Oval" cx="225.5" cy="519.5" r="7.5"></circle>
                <circle id="Oval" cx="81.5" cy="356.5" r="7.5"></circle>
                <circle id="Oval" cx="139.5" cy="395.5" r="5.5"></circle>
                <circle id="Oval" cx="95" cy="263" r="11"></circle>
                <circle id="Oval" cx="212.5" cy="580.5" r="6.5"></circle>
                <circle id="Oval" cx="272.5" cy="548.5" r="4.5"></circle>
                <circle id="Oval" cx="304.5" cy="518.5" r="5.5"></circle>
                <circle id="Oval" cx="89.5" cy="512.5" r="5.5"></circle>
                <circle id="Oval" cx="4.5" cy="453.5" r="4.5"></circle>
                <circle id="Oval" cx="139.5" cy="534.5" r="9.5"></circle>
                <circle id="Oval" cx="218" cy="236" r="6"></circle>
                <circle id="Oval" cx="24" cy="202" r="5"></circle>
                <circle id="Oval" cx="26.5" cy="306.5" r="5.5"></circle>
                <circle id="Oval" cx="114" cy="323" r="8"></circle>
                <circle id="Oval" cx="26.5" cy="382.5" r="9.5"></circle>
                <circle id="Oval" cx="170.5" cy="278.5" r="4.5"></circle>
                <circle id="Oval" cx="155" cy="218" r="6"></circle>
                <circle id="Oval" cx="112.5" cy="204.5" r="7.5"></circle>
                <circle id="Oval" cx="194.5" cy="168.5" r="8.5"></circle>
                <circle id="Oval" cx="249.5" cy="5.5" r="5.5"></circle>
                <circle id="Oval" cx="417" cy="29" r="6"></circle>
                <circle id="Oval" cx="381" cy="23" r="4"></circle>
                <circle id="Oval" cx="396.5" cy="170.5" r="6.5"></circle>
                <circle id="Oval" cx="445" cy="167" r="11"></circle>
                <circle id="Oval" cx="475.5" cy="73.5" r="4.5"></circle>
                <circle id="Oval" cx="471.5" cy="551.5" r="8.5"></circle>
                <circle id="Oval" cx="541.5" cy="512.5" r="4.5"></circle>
                <circle id="Oval" cx="555" cy="105" r="5"></circle>
                <circle id="Oval" cx="424.5" cy="100.5" r="7.5"></circle>
                <circle id="Oval" cx="492.5" cy="227.5" r="5.5"></circle>
                <circle id="Oval" cx="576.5" cy="308.5" r="6.5"></circle>
                <circle id="Oval" cx="487.5" cy="382.5" r="5.5"></circle>
                <circle id="Oval" cx="449" cy="343" r="6"></circle>
                <circle id="Oval" cx="574" cy="231" r="9"></circle>
                <circle id="Oval" cx="541" cy="178" r="5"></circle>
                <circle id="Oval" cx="547.5" cy="358.5" r="7.5"></circle>
                <circle id="Oval" cx="601" cy="157" r="6"></circle>
                <circle id="Oval" cx="424" cy="530" r="5"></circle>
                <circle id="Oval" cx="426" cy="240" r="6"></circle>
                <circle id="Oval" cx="517" cy="254" r="4"></circle>
                <circle id="Oval" cx="446.5" cy="273.5" r="7.5"></circle>
                <circle id="Oval" cx="500" cy="317" r="13"></circle>
                <circle id="Oval" cx="389.5" cy="593.5" r="6.5"></circle>
                <circle id="Oval" cx="485" cy="133" r="9"></circle>
                <circle id="Oval" cx="605.5" cy="273.5" r="5.5"></circle>
                <circle id="Oval" cx="601" cy="391" r="10"></circle>
                <circle id="Oval" cx="300" cy="610" r="15"></circle>
            </g>
            <path d="M434.005431,64.4554064 C431.961613,59.8277258 429.85576,60.4098852 427.687873,66.2018844 C425.519986,71.9938836 420.480145,77.2633133 412.568351,82.0101734 L412.106191,111.039081 C417.723878,115.27717 421.169614,118.377025 422.443401,120.338647 C423.717188,122.30027 423.86592,124.73587 422.889597,127.64545 C412.998414,133.674194 406.537026,139.060175 403.505431,143.803391 C400.473836,148.546608 398.444147,156.445722 397.416362,167.500735 C394.054534,177.647834 391.470897,182.467499 389.66545,181.95973 C387.860003,181.45196 385.067068,179.13205 381.286645,175 C381.258534,177.267408 381.655711,179.587318 382.478177,181.95973 C384.14893,186.779037 388.759608,187.037959 389.66545,190 C391.240173,195.149237 392.879071,200.442638 394.582143,205.880203 C395.328678,224.088338 395.303108,234.794937 394.505431,238 C393.417091,242.372949 387.386926,238.238468 387.386926,241 C387.386926,246.797545 389.759761,250.296144 394.505431,251.495798 C391.219132,255.094042 388.846297,257.762109 387.386926,259.5 C385.927554,261.237891 383.30039,264.737891 379.505431,270 C382.713968,274.847257 385.341133,278.32349 387.386926,280.428698 C393.982474,287.215802 402.589487,290.108082 403.505431,298.315336 C404.223951,304.753584 406.255441,317.449883 403.505431,325 C401.914329,329.368351 398.247662,334.035017 392.505431,339 C382.924913,351.691368 375.924913,360.691368 371.505431,366 C357.727558,382.549825 347.204483,388.84926 342.505431,397.5 C335.54543,410.313044 329.210286,428.47971 323.5,452 C334.067786,459.892159 347.234453,466.225493 363,471 C378.765547,475.774507 404.932214,479.107841 441.5,481 L434.005431,64.4554064 Z" id="bg-left-copy-2" fill="#43466F" transform="translate(382.500000, 271.186238) scale(-1, 1) translate(-382.500000, -271.186238) "></path>
            <path d="M334.5,63.4554064 C332.456182,58.8277258 330.350329,59.4098852 328.182442,65.2018844 C326.014555,70.9938836 320.974714,76.2633133 313.06292,81.0101734 L312.60076,110.039081 C318.218447,114.27717 321.664183,117.377025 322.93797,119.338647 C324.211757,121.30027 324.360489,123.73587 323.384166,126.64545 C313.492983,132.674194 307.031595,138.060175 304,142.803391 C300.968405,147.546608 298.938716,155.445722 297.910931,166.500735 C294.549103,176.647834 291.965466,181.467499 290.160019,180.95973 C288.354572,180.45196 285.561637,178.13205 281.781214,174 C281.753103,176.267408 282.15028,178.587318 282.972746,180.95973 C284.643499,185.779037 289.254177,186.037959 290.160019,189 C291.734742,194.149237 293.37364,199.442638 295.076712,204.880203 C295.823247,223.088338 295.797677,233.794937 295,237 C293.91166,241.372949 287.881495,237.238468 287.881495,240 C287.881495,245.797545 290.25433,249.296144 295,250.495798 C291.713701,254.094042 289.340866,256.762109 287.881495,258.5 C286.422123,260.237891 283.794959,263.737891 280,269 C283.208537,273.847257 285.835702,277.32349 287.881495,279.428698 C294.477043,286.215802 303.084056,289.108082 304,297.315336 C304.71852,303.753584 306.75001,316.449883 304,324 C302.408898,328.368351 298.742231,333.035017 293,338 C283.419482,350.691368 276.419482,359.691368 272,365 C258.222127,381.549825 247.699052,387.84926 243,396.5 C236.039999,409.313044 229.704855,428.313044 223.994569,453.5 C234.899309,461.725493 248.234453,468.225493 264,473 C279.765547,477.774507 302.598881,480.441174 332.5,481 L334.5,63.4554064 Z" id="bg-left" fill="#43466F"></path>
            <g id="lines-tower" transform="translate(225.000000, 34.000000)" stroke="#6568A8" stroke-width="5">
                <path d="M71.9112697,136.388634 C70.4592173,142.366965 68.0154166,145.356131 64.5798676,145.356131 C61.1443185,145.356131 57.9510294,142.237421 55,136 C55,144.103247 57.0511731,149.326559 61.1535193,151.669937 C65.2558656,154.013314 67.4960386,161.790002 67.8740386,175 C69.9355534,162.992081 74.2542258,154.090279 80.8300555,148.294596 C90.6938002,139.601072 104.456586,140.45847 107,140.45847" id="Path-63" stroke-linecap="round" stroke-linejoin="round"></path>
                <path d="M122.3188,136.388634 C121.928394,142.366965 120.015417,145.356131 116.579868,145.356131 C113.144319,145.356131 109.951029,142.237421 107,136 C107,144.103247 109.051173,149.326559 113.153519,151.669937 C117.255866,154.013314 119.496039,161.790002 119.874039,175 C121.935553,162.992081 126.254226,154.090279 132.830056,148.294596 C142.6938,139.601072 156.456586,140.45847 159,140.45847" id="Path-63-Copy-2" stroke-linecap="round" stroke-linejoin="round" transform="translate(133.000000, 155.500000) scale(-1, 1) translate(-133.000000, -155.500000) "></path>
                <path d="M142.86568,0 C143.405333,14.0337566 142.318878,24.5757823 139.606316,31.6260772 C136.893753,38.6763721 131.379288,43.8044042 123.06292,47.0101734 C122.62626,46.7168386 122.40793,49.4432094 122.40793,55.1892858 C122.40793,60.9353621 122.40793,69.7119924 122.40793,81.5191766 C127.92552,83.4909345 131.256287,85.1224288 132.400232,86.4136594 C133.544177,87.7048901 134.076065,90.3905182 133.995895,94.4705438 C124.349047,98.4516244 117.374918,104.189745 113.073507,111.684906 C108.772096,119.180067 107.205796,126.951765 108.374606,135" id="Path-62-Copy" stroke-linecap="round" stroke-linejoin="round" transform="translate(125.500000, 67.500000) scale(-1, 1) translate(-125.500000, -67.500000) "></path>
                <path d="M107.86568,0 C108.405333,14.0337566 107.318878,24.5757823 104.606316,31.6260772 C101.893753,38.6763721 96.3792878,43.8044042 88.0629198,47.0101734 C87.62626,46.7168386 87.4079302,49.4432094 87.4079302,55.1892858 C87.4079302,60.9353621 87.4079302,69.7119924 87.4079302,81.5191766 C92.9255197,83.4909345 96.256287,85.1224288 97.4002321,86.4136594 C98.5441772,87.7048901 99.0760648,90.3905182 98.9958949,94.4705438 C89.3490475,98.4516244 82.3749182,104.189745 78.0735071,111.684906 C73.7720961,119.180067 72.2057955,126.951765 73.3746056,135" id="Path-62-Copy-2" stroke-linecap="round" stroke-linejoin="round"></path>
                <path d="M2,425 C2.05735928,416.102404 2.47558141,409.254069 3.25466641,404.454996 C4.73801429,395.317745 6.77141606,386.568659 12.201624,374.092816 C20.8623152,354.194973 36.6328282,343.611353 60.3581637,316.549751 C62.6573108,313.927297 58.6476984,311.495031 62.5274365,306.841073 C63.8800951,305.218486 66.3071917,304.187124 69.121569,301.721276 C70.6240002,300.404905 73.2317624,298.262459 76.9448556,295.293939 C79.6850481,279.227937 79.6850481,267.510713 76.9448556,260.142267 C75.0881475,255.149533 69.6187807,252.474817 63.4427977,246.222537 C61.4836366,244.239173 58.540255,240.138938 54.6126528,233.921832 L69.121569,215.914638 C66.8583248,213.826057 65.3033894,212.211871 64.4567629,211.07208 C63.6101364,209.93229 62.7102364,208.241596 61.7570627,206" id="Path-64" stroke-linecap="round" stroke-linejoin="round"></path>
                <path d="M137,422 C137.53686,416.484016 138.108505,412.273709 138.714936,409.369081 C140.493472,400.8504 143.785788,389.280321 150.208283,374.488502 C158.868111,354.543821 174.637051,343.935287 198.360022,316.809983 C200.65894,314.181356 196.649727,311.743364 200.529079,307.078451 C201.881602,305.452044 204.308457,304.418254 207.122554,301.946602 C208.624835,300.627132 211.232337,298.479643 214.94506,295.504135 C217.68498,279.400313 217.68498,267.655507 214.94506,260.269717 C213.088537,255.26523 207.619716,252.584218 201.444348,246.31722 C199.485383,244.329187 196.542294,240.2193 192.615084,233.98756 L207.122554,215.937977 C205.642271,215.102591 204.47246,214.064586 203.613119,212.823963 C202.753779,211.58334 201.629016,209.308686 200.23883,206" id="Path-64-Copy" stroke-linecap="round" stroke-linejoin="round" transform="translate(177.000000, 314.000000) scale(-1, 1) translate(-177.000000, -314.000000) "></path>
                <path d="M87,242 L91.2958612,246.39081 C94.9524243,250.128192 97,255.14891 97,260.377531 L97,287 L97,287" id="Path-61" stroke-linecap="round" stroke-linejoin="round"></path>
                <path d="M119,243 L123.295861,247.39081 C126.952424,251.128192 129,256.14891 129,261.377531 L129,288 L129,288" id="Path-61-Copy" stroke-linecap="round" stroke-linejoin="round" transform="translate(124.000000, 265.500000) scale(-1, 1) translate(-124.000000, -265.500000) "></path>
                <path d="M54,235 C68.9606169,229.666667 86.754684,227 107.382201,227 C128.009719,227 145.548985,229.020697 160,233.062091" id="Path-62" stroke-linecap="round" stroke-linejoin="round"></path>
                <path d="M62,307 C71.9140015,303 87.134319,301 107.660952,301 C128.187586,301 143.300602,303 153,307" id="Path-62" stroke-linecap="round" stroke-linejoin="round"></path>
                <path d="M61,313 C71.033068,309.666667 86.3129188,308 106.839552,308 C127.366186,308 142.419668,309.666667 152,313" id="Path-62" stroke-linecap="round" stroke-linejoin="round"></path>
                <path d="M62,206 C71.6604468,202.666667 86.7539869,201 107.28062,201 C127.807254,201 143.047047,202.666667 153,206" id="Path-62" stroke-linecap="round" stroke-linejoin="round"></path>
                <path d="M72.4205407,443 C69.5721899,383 81.1928947,353 107.282655,353 C133.372416,353 146.276698,383 145.995502,443" id="Path-65" stroke-linecap="round" stroke-linejoin="round"></path>
                <path d="M91,199 C91.0010856,194.582258 91.0010856,190.546612 91,186.893061 C90.9951565,168.433231 95.5621376,158.575433 108,157" id="Path-66" stroke-linecap="round" stroke-linejoin="round"></path>
                <path d="M110,199 C110.001086,194.582258 110.001086,190.546612 110,186.893061 C109.995156,168.433231 114.562138,158.575433 127,157" id="Path-66-Copy" stroke-linecap="round" stroke-linejoin="round" transform="translate(118.500000, 178.000000) scale(-1, 1) translate(-118.500000, -178.000000) "></path>
                <line x1="70" y1="174" x2="71" y2="203" id="Path-67" stroke-linecap="round" stroke-linejoin="round"></line>
                <line x1="145" y1="174" x2="146" y2="203" id="Path-67-Copy" stroke-linecap="round" stroke-linejoin="round"></line>
                <path d="M45,374.217801 C42.3729423,368.4562 38.365289,362.945167 36.6978405,361.056218 C27.8521391,351.035469 14.9340747,354.215759 13.6952525,364.987027 C11.6450192,382.813326 11.4544454,407.484317 13.1235311,439" id="Path-68-Copy" stroke-linecap="round" stroke-linejoin="round" transform="translate(28.500000, 397.000000) scale(-1, 1) translate(-28.500000, -397.000000) "></path>
                <path d="M204,374.217801 C201.372942,368.4562 197.365289,362.945167 195.69784,361.056218 C186.852139,351.035469 173.934075,354.215759 172.695252,364.987027 C170.645019,382.813326 170.454445,407.484317 172.123531,439" id="Path-68-Copy-2" stroke-linecap="round" stroke-linejoin="round"></path>
                <line x1="107.5" y1="140" x2="107.5" y2="126" id="Path-70" stroke-linecap="round" stroke-linejoin="round"></line>
                <path d="M115,340.005395 C126.537512,342.184201 134.8714,345.744003 140.001664,350.684802 C145.131928,355.625601 149.683483,366.064 153.656329,382 C154.603992,368.677255 156.118915,358.975146 158.201097,352.893673 C160.28328,346.8122 162.882914,342.516107 166,340.005395 C160.850262,339.534483 156.735705,338.422045 153.656329,336.66808 C150.576952,334.914115 147.758633,331.691421 145.201371,327 C142.641853,332.143457 139.302053,335.477394 135.18197,337.001811 C131.061888,338.526229 124.334564,339.527423 115,340.005395 Z" id="Path-71" stroke-linecap="round" stroke-linejoin="round"></path>
                <path d="M51,340.005395 C62.5375119,342.184201 70.8714,345.744003 76.0016642,350.684802 C81.1319283,355.625601 85.6834832,366.064 89.6563287,382 C90.6039918,368.677255 92.1189147,358.975146 94.2010973,352.893673 C96.28328,346.8122 98.8829142,342.516107 102,340.005395 C96.8502624,339.534483 92.7357053,338.422045 89.6563287,336.66808 C86.5769522,334.914115 83.7586329,331.691421 81.2013709,327 C78.6418531,332.143457 75.3020529,335.477394 71.1819703,337.001811 C67.0618877,338.526229 60.3345642,339.527423 51,340.005395 Z" id="Path-71-Copy" stroke-linecap="round" stroke-linejoin="round" transform="translate(76.500000, 354.500000) scale(-1, 1) translate(-76.500000, -354.500000) "></path>
                <path d="M0,420.5 C30.6666667,438.166667 66.5,447 107.5,447 C148.5,447 185,437.333333 217,418" id="Path-68" stroke-linecap="round" stroke-linejoin="round"></path>
                <circle id="Oval" cx="108.5" cy="64.5" r="10.5"></circle>
            </g>
            <g id="circles-tower" transform="translate(222.000000, 24.000000)" fill="#6ED3F0" fill-rule="nonzero">
                <circle id="Oval" cx="122" cy="104" r="5"></circle>
                <circle id="Oval" cx="131.5" cy="91.5" r="4.5"></circle>
                <circle id="Oval" cx="163.5" cy="139.5" r="6.5"></circle>
                <circle id="Oval" cx="58.5" cy="141.5" r="7.5"></circle>
                <circle id="Oval" cx="112" cy="165" r="5"></circle>
                <circle id="Oval" cx="148.5" cy="183.5" r="4.5"></circle>
                <circle id="Oval" cx="131.5" cy="57.5" r="5.5"></circle>
                <circle id="Oval" cx="156" cy="318" r="9"></circle>
                <circle id="Oval" cx="149.5" cy="212.5" r="4.5"></circle>
                <circle id="Oval" cx="102" cy="104" r="5"></circle>
                <circle id="Oval" cx="92" cy="92" r="5"></circle>
                <ellipse id="Oval" cx="111" cy="129.5" rx="8" ry="7.5"></ellipse>
                <circle id="Oval" cx="92" cy="58" r="7"></circle>
                <circle id="Oval" cx="64.5" cy="319.5" r="7.5"></circle>
                <circle id="Oval" cx="74.5" cy="336.5" r="4.5"></circle>
                <circle id="Oval" cx="103" cy="348" r="5"></circle>
                <circle id="Oval" cx="119" cy="349" r="5"></circle>
                <circle id="Oval" cx="148" cy="338" r="5"></circle>
                <circle id="Oval" cx="168.5" cy="349.5" r="4.5"></circle>
                <circle id="Oval" cx="157" cy="391" r="4"></circle>
                <circle id="Oval" cx="66" cy="390" r="5"></circle>
                <circle id="Oval" cx="55" cy="350" r="5"></circle>
                <circle id="Oval" cx="6.5" cy="430.5" r="6.5"></circle>
                <circle id="Oval" cx="47" cy="448" r="5"></circle>
                <circle id="Oval" cx="75.5" cy="452.5" r="6.5"></circle>
                <circle id="Oval" cx="151.5" cy="453.5" r="5.5"></circle>
                <circle id="Oval" cx="176" cy="447" r="5"></circle>
                <circle id="Oval" cx="219.5" cy="428.5" r="6.5"></circle>
                <circle id="Oval" cx="72.5" cy="213.5" r="4.5"></circle>
                <circle id="Oval" cx="73" cy="184" r="5"></circle>
                <circle id="Oval" cx="93.5" cy="209.5" r="4.5"></circle>
                <circle id="Oval" cx="130" cy="210" r="5"></circle>
                <circle id="Oval" cx="111.5" cy="6.5" r="6.5"></circle>
            </g>
        </g>
    </g>
</svg>