<svg xmlns="http://www.w3.org/2000/svg" xmlns:xlink="http://www.w3.org/1999/xlink" width="790" height="790" version="1.1" viewBox="0 0 790 790"><title>lyon_p2p_no_border_regular_NEW</title><desc>Created with Sketch.</desc><g id="Page-1" fill="none" fill-rule="evenodd" stroke="none" stroke-width="1"><g id="lyon_p2p-new-good-googd-good" transform="translate(64.000000, 12.000000)"><path id="hexagon" fill="#383B62" stroke="#383B62" stroke-linejoin="round" stroke-width="18" d="M321.534514,5.77871487 L9.99663729,185.725851 C3.81051082,189.299014 -2.57438742e-14,195.900492 0,203.044417 L0,562.956263 C8.7483378e-16,570.099823 3.81012518,576.701023 9.99575362,580.274319 L321.495754,760.220775 C327.685933,763.7967 335.314067,763.7967 341.504246,760.220775 L653.004246,580.274319 C659.189875,576.701023 663,570.099823 663,562.956263 L663,203.043056 C663,195.899861 659.190261,189.298941 653.00513,185.725511 L341.543007,5.77973589 C335.35301,2.20349427 327.724876,2.20310501 321.534514,5.77871487 Z"/><text id="Lyon-P2P" fill="#FFF" font-family="CourierNewPS-BoldMT, Courier New" font-size="104" font-weight="bold"><tspan x="97.262" y="561">Lyon</tspan> <tspan x="346.902" y="561" font-size="65"> </tspan> <tspan x="385.909" y="561">P</tspan> <tspan x="448.319" y="561" font-size="95">2</tspan> <tspan x="505.328" y="561">P</tspan></text><g id="circles-bg" fill="#6ED3F0" fill-rule="nonzero" opacity=".85" transform="translate(28.000000, 13.000000)"><circle id="Oval" cx="42.5" cy="297.5" r="5.5"/><circle id="Oval" cx="84" cy="184" r="5"/><circle id="Oval" cx="118.5" cy="129.5" r="6.5"/><circle id="Oval" cx="18.5" cy="212.5" r="9.5"/><circle id="Oval" cx="343.5" cy="608.5" r="9.5"/><circle id="Oval" cx="218.5" cy="592.5" r="7.5"/><circle id="Oval" cx="74.5" cy="409.5" r="7.5"/><circle id="Oval" cx="106.5" cy="452.5" r="5.5"/><circle id="Oval" cx="95" cy="327" r="11"/><circle id="Oval" cx="190" cy="450" r="11"/><circle id="Oval" cx="202.5" cy="646.5" r="6.5"/><circle id="Oval" cx="262.5" cy="614.5" r="4.5"/><circle id="Oval" cx="294.5" cy="584.5" r="5.5"/><circle id="Oval" cx="42.5" cy="568.5" r="5.5"/><circle id="Oval" cx="4.5" cy="500.5" r="4.5"/><circle id="Oval" cx="129.5" cy="600.5" r="9.5"/><circle id="Oval" cx="9" cy="271" r="5"/><circle id="Oval" cx="16.5" cy="372.5" r="5.5"/><circle id="Oval" cx="133" cy="378" r="8"/><circle id="Oval" cx="25.5" cy="447.5" r="9.5"/><circle id="Oval" cx="88.5" cy="246.5" r="4.5"/><circle id="Oval" cx="464.5" cy="609.5" r="8.5"/><circle id="Oval" cx="526.5" cy="568.5" r="4.5"/><circle id="Oval" cx="603" cy="539" r="6"/><circle id="Oval" cx="545" cy="171" r="5"/><circle id="Oval" cx="501" cy="216" r="7"/><circle id="Oval" cx="557.5" cy="361.5" r="6.5"/><circle id="Oval" cx="591.5" cy="421.5" r="5.5"/><circle id="Oval" cx="573" cy="294" r="9"/><circle id="Oval" cx="527" cy="258" r="5"/><circle id="Oval" cx="503.5" cy="136.5" r="7.5"/><circle id="Oval" cx="314" cy="6" r="6"/><circle id="Oval" cx="495.5" cy="308.5" r="7.5"/><circle id="Oval" cx="495.5" cy="445.5" r="7.5"/><circle id="Oval" cx="420.5" cy="436.5" r="9.5"/><circle id="Oval" cx="591" cy="223" r="6"/><circle id="Oval" cx="414" cy="596" r="5"/><circle id="Oval" cx="488" cy="381" r="13"/><circle id="Oval" cx="384.5" cy="653.5" r="6.5"/><circle id="Oval" cx="591.5" cy="344.5" r="5.5"/><circle id="Oval" cx="576" cy="471" r="10"/><circle id="Oval" cx="290" cy="676" r="15"/></g><g id="LION" transform="translate(168.000000, 44.000000)"><polygon id="Path-59" fill="#43466F" points="163.467 14.955 177.018 29.079 203.185 17.406 203.185 33.801 241.484 29.079 235.893 43.246 271.405 43.246 265.798 55.996 291.964 68.745 284.488 84.801 316.201 117.856 293.366 117.856 320 169.327 302.244 169.327 313.265 256.498 296.17 232.604 284.488 318.008 265.798 284.076 253.182 357.881 235.893 336.492 213.464 395.545 205.054 357.881 162.533 438.955 120.713 357.881 111.601 391.176 90.574 335.547 72.818 357.881 61.137 284.076 41.512 318.008 30.765 233.549 12.735 256.498 23.756 169.327 6 169.327 33.568 118.8 9.799 117.856 41.512 84.801 34.97 68.745 60.202 55.996 52.726 43.246 90.574 43.246 84.967 29.079 122.815 35.69 121.881 17.053 149.917 29.079"/><g id="lion-lines-right" stroke="#6568A8" stroke-linecap="round" stroke-linejoin="round" stroke-width="5" transform="translate(161.000000, 14.955137)"><path id="Path-44" d="M2.4672619,65.1157644 L25.3630952,59.4498401 L57.6041667,74.0868112 L80.5,129.801733 L55.2678571,192.599061 L57.1369048,208.437811 L47.7916667,227.066767 C39.3908828,227.669312 32.6155852,227.669312 27.4657738,227.066767 C22.3159624,226.464222 13.1607045,224.651775 0,221.629428 L0.5,198.997653 L21.1577381,190.238259 L12.9774979,177.789175 L0.5,181.526043"/><polyline id="Path-47" points="2 0 14.453 14.122 43.119 2.097 43.119 18.844 80.967 14.122 71.622 28.264 112.274 28.264 104.798 39.619 130.964 53.784 123.488 68.33 155.201 102.889 130.964 102.889 158.968 154.354 141.244 155.771 152.265 241.515 135.17 217.624 123.488 305.738 104.798 269.089 91.711 344.534 74.426 320.555 52.464 380.545 47.324 341.362 1 415.045"/><path id="Path-48" d="M42.1845238,18.8440495 L25.3630952,59.4498401"/><path id="Path-49" d="M104.797619,39.6191052 L57.1369048,74.0868112"/><path id="Path-50" d="M57.6041667,74.0868112 L130.964286,102.888593"/><polyline id="Path-51" points="130.964 102.889 101.994 144.439 80.484 129.802"/><polyline id="Path-52" points="135.637 217.624 101.994 144.439 104.798 269.089 57.137 208.438 48.726 227.067 74.426 321.944"/><path id="Path-53" d="M2.4672619,265.827657 L37.2782738,256.205987"/><polyline id="Path-54" points="21.158 190.238 33.774 181.526 30.503 139.717"/><path id="Path-55" d="M33.7738095,181.526043 L54.8005952,192.599061"/><polyline id="Path-56" points="2.935 65.116 33.774 107.61 60.408 112.804 71.622 109.499"/><polyline id="Path-57" points="35.643 107.61 30.503 139.717 55.268 127.913 60.408 112.332"/><path id="Path-45" d="M103.197279,143.484258 L141.408163,155.444142"/><polyline id="Path-46" points="123.701 69.403 60.408 74.131 71.622 27.801"/><polyline id="Path-58" points="44.483 345.49 38.891 254.722 49.609 227.519"/><path id="Path-60-Copy" d="M3.9047619,256.205987 L36.0654762,348.044863 L3.9047619,256.205987 Z" transform="translate(19.985119, 302.125425) scale(1, -1) translate(-19.985119, -302.125425)"/></g><g id="lion-dots-right" fill="#6ED3F0" fill-rule="nonzero" transform="translate(171.000000, 10.955137)"><ellipse id="Oval" cx="50.327" cy="78.131" rx="7.456" ry="7.564"/><ellipse id="Oval" cx="71.296" cy="133.443" rx="6.058" ry="6.146"/><ellipse id="Oval" cx="93.197" cy="147.153" rx="7.456" ry="7.564"/><ellipse id="Oval" cx="15.844" cy="63.003" rx="5.592" ry="5.673"/><ellipse id="Oval" cx="6.524" cy="17.619" rx="6.524" ry="6.619"/><ellipse id="Oval" cx="29.357" cy="117.369" rx="9.786" ry="9.928"/><ellipse id="Oval" cx="20.969" cy="143.843" rx="5.126" ry="5.2"/><ellipse id="Oval" cx="45.201" cy="131.552" rx="4.194" ry="4.255"/><ellipse id="Oval" cx="50.793" cy="116.424" rx="3.262" ry="3.309"/><ellipse id="Oval" cx="33.551" cy="22.346" rx="4.66" ry="4.728"/><circle id="Oval" cx="33.5" cy="5.545" r="5.5"/><circle id="Oval" cx="71" cy="18.045" r="5"/><ellipse id="Oval" cx="62.524" cy="32.663" rx="6.524" ry="6.619"/><circle id="Oval" cx="95" cy="45.045" r="6"/><ellipse id="Oval" cx="114.633" cy="73.403" rx="6.524" ry="6.619"/><ellipse id="Oval" cx="122.554" cy="107.914" rx="8.854" ry="8.982"/><circle id="Oval" cx="127" cy="224.045" r="7"/><circle id="Oval" cx="149" cy="158.045" r="4"/><circle id="Oval" cx="144.5" cy="106.545" r="5.5"/><circle id="Oval" cx="121" cy="58.045" r="4"/><circle id="Oval" cx="102.5" cy="31.545" r="4.5"/><ellipse id="Oval" cx="131.408" cy="159.444" rx="5.592" ry="5.673"/><ellipse id="Oval" cx="95.061" cy="272.905" rx="8.388" ry="8.51"/><circle id="Oval" cx="64.782" cy="326.417" r="7"/><circle id="Oval" cx="82" cy="347.045" r="6"/><circle id="Oval" cx="44" cy="386.045" r="7"/><circle id="Oval" cx="114" cy="308.045" r="7"/><circle id="Oval" cx="142.5" cy="243.545" r="7.5"/><circle id="Oval" cx="35.5" cy="347.545" r="7.5"/><circle id="Oval" cx="39" cy="233.045" r="6"/><ellipse id="Oval" cx="23.592" cy="185.718" rx="5.592" ry="5.673"/><circle id="Oval" cx="10.5" cy="193.545" r="3.5"/><ellipse id="Oval" cx="27.027" cy="258.722" rx="6.524" ry="6.619"/><circle id="Oval" cx="45.711" cy="195.364" r="6.5"/><ellipse id="Oval" cx="47.592" cy="213.718" rx="5.592" ry="5.673"/></g><g id="lion-lines-right" stroke="#6568A8" stroke-linecap="round" stroke-linejoin="round" stroke-width="5" transform="translate(82.500000, 222.955137) scale(-1, 1) translate(-82.500000, -222.955137) translate(3.000000, 14.955137)"><path id="Path-44" d="M2.4672619,65.1157644 L25.3630952,59.4498401 L57.6041667,74.0868112 L80.5,129.801733 L55.2678571,192.599061 L57.1369048,208.437811 L47.7916667,227.066767 C39.3908828,227.669312 32.6155852,227.669312 27.4657738,227.066767 C22.3159624,226.464222 13.1607045,224.651775 0,221.629428 L0.5,198.997653 L21.1577381,190.238259 L12.9774979,177.789175 L0.5,181.526043"/><polyline id="Path-47" points="2 0 14.453 14.122 43.119 2.097 43.119 18.844 80.967 14.122 71.622 28.264 112.274 28.264 104.798 39.619 130.964 53.784 123.488 68.33 155.201 102.889 130.964 102.889 158.968 154.354 141.244 155.771 152.265 241.515 135.17 217.624 123.488 305.738 104.798 269.089 91.711 344.534 74.426 320.555 52.464 380.545 47.324 341.362 1 415.045"/><path id="Path-48" d="M42.1845238,18.8440495 L25.3630952,59.4498401"/><path id="Path-49" d="M104.797619,39.6191052 L57.1369048,74.0868112"/><path id="Path-50" d="M57.6041667,74.0868112 L130.964286,102.888593"/><polyline id="Path-51" points="130.964 102.889 101.994 144.439 80.484 129.802"/><polyline id="Path-52" points="135.637 217.624 101.994 144.439 104.798 269.089 57.137 208.438 48.726 227.067 74.426 321.944"/><path id="Path-53" d="M2.4672619,265.827657 L37.2782738,256.205987"/><polyline id="Path-54" points="21.158 190.238 33.774 181.526 30.503 139.717"/><path id="Path-55" d="M33.7738095,181.526043 L54.8005952,192.599061"/><polyline id="Path-56" points="2.935 65.116 33.774 107.61 60.408 112.804 71.622 109.499"/><polyline id="Path-57" points="35.643 107.61 30.503 139.717 55.268 127.913 60.408 112.332"/><path id="Path-45" d="M103.197279,143.484258 L141.408163,155.444142"/><polyline id="Path-46" points="123.701 69.403 60.408 74.131 71.622 27.801"/><polyline id="Path-58" points="44.483 345.49 38.891 254.722 49.609 227.519"/><path id="Path-60-Copy" d="M3.9047619,256.205987 L36.0654762,348.044863 L3.9047619,256.205987 Z" transform="translate(19.985119, 302.125425) scale(1, -1) translate(-19.985119, -302.125425)"/></g><g id="lion-dots-right" fill="#6ED3F0" fill-rule="nonzero" transform="translate(76.500000, 207.955137) scale(-1, 1) translate(-76.500000, -207.955137) translate(0.000000, 10.955137)"><ellipse id="Oval" cx="50.327" cy="78.131" rx="7.456" ry="7.564"/><ellipse id="Oval" cx="71.296" cy="133.443" rx="6.058" ry="6.146"/><ellipse id="Oval" cx="93.197" cy="147.153" rx="7.456" ry="7.564"/><ellipse id="Oval" cx="15.844" cy="63.003" rx="5.592" ry="5.673"/><ellipse id="Oval" cx="6.524" cy="17.619" rx="6.524" ry="6.619"/><ellipse id="Oval" cx="29.357" cy="117.369" rx="9.786" ry="9.928"/><ellipse id="Oval" cx="20.969" cy="143.843" rx="5.126" ry="5.2"/><ellipse id="Oval" cx="45.201" cy="131.552" rx="4.194" ry="4.255"/><ellipse id="Oval" cx="50.793" cy="116.424" rx="3.262" ry="3.309"/><ellipse id="Oval" cx="33.551" cy="22.346" rx="4.66" ry="4.728"/><circle id="Oval" cx="33.5" cy="5.545" r="5.5"/><circle id="Oval" cx="71" cy="18.045" r="5"/><ellipse id="Oval" cx="62.524" cy="32.663" rx="6.524" ry="6.619"/><circle id="Oval" cx="95" cy="45.045" r="6"/><ellipse id="Oval" cx="114.633" cy="73.403" rx="6.524" ry="6.619"/><ellipse id="Oval" cx="122.554" cy="107.914" rx="8.854" ry="8.982"/><circle id="Oval" cx="127" cy="224.045" r="7"/><circle id="Oval" cx="149" cy="158.045" r="4"/><circle id="Oval" cx="144.5" cy="106.545" r="5.5"/><circle id="Oval" cx="121" cy="58.045" r="4"/><circle id="Oval" cx="102.5" cy="31.545" r="4.5"/><ellipse id="Oval" cx="131.408" cy="159.444" rx="5.592" ry="5.673"/><ellipse id="Oval" cx="95.061" cy="272.905" rx="8.388" ry="8.51"/><circle id="Oval" cx="64.782" cy="326.417" r="7"/><circle id="Oval" cx="82" cy="347.045" r="6"/><circle id="Oval" cx="44" cy="386.045" r="7"/><circle id="Oval" cx="114" cy="308.045" r="7"/><circle id="Oval" cx="142.5" cy="243.545" r="7.5"/><circle id="Oval" cx="35.5" cy="347.545" r="7.5"/><circle id="Oval" cx="39" cy="233.045" r="6"/><ellipse id="Oval" cx="23.592" cy="185.718" rx="5.592" ry="5.673"/><circle id="Oval" cx="10.5" cy="193.545" r="3.5"/><ellipse id="Oval" cx="27.027" cy="258.722" rx="6.524" ry="6.619"/><circle id="Oval" cx="45.711" cy="195.364" r="6.5"/><ellipse id="Oval" cx="47.592" cy="213.718" rx="5.592" ry="5.673"/></g><circle id="Oval" cx="162" cy="281" r="5" fill="#6ED3F0" fill-rule="nonzero"/><circle id="Oval" cx="161.5" cy="8.5" r="8.5" fill="#6ED3F0" fill-rule="nonzero"/><circle id="Oval" cx="161.5" cy="237.5" r="5.5" fill="#6ED3F0" fill-rule="nonzero"/><circle id="Oval" cx="162" cy="369" r="9" fill="#6ED3F0" fill-rule="nonzero"/><circle id="Oval" cx="161.5" cy="79.5" r="6.5" fill="#6ED3F0" fill-rule="nonzero"/><circle id="Oval" cx="161.5" cy="430.5" r="10.5" fill="#6ED3F0" fill-rule="nonzero"/></g></g></g></svg>