<svg xmlns="http://www.w3.org/2000/svg" xmlns:xlink="http://www.w3.org/1999/xlink" width="790" height="790" version="1.1" viewBox="0 0 790 790"><title>lyon_p2p_no_border_regular</title><desc>Created with Sketch.</desc><g id="Page-1" fill="none" fill-rule="evenodd" stroke="none" stroke-width="1"><g id="lyon_p2p-new-good-googd-good" transform="translate(64.000000, 12.000000)"><path id="hexagon" fill="#383B62" stroke="#383B62" stroke-linejoin="round" stroke-width="18" d="M321.534514,5.77871487 L9.99663729,185.725851 C3.81051082,189.299014 -2.57438742e-14,195.900492 0,203.044417 L0,562.956263 C8.7483378e-16,570.099823 3.81012518,576.701023 9.99575362,580.274319 L321.495754,760.220775 C327.685933,763.7967 335.314067,763.7967 341.504246,760.220775 L653.004246,580.274319 C659.189875,576.701023 663,570.099823 663,562.956263 L663,203.043056 C663,195.899861 659.190261,189.298941 653.00513,185.725511 L341.543007,5.77973589 C335.35301,2.20349427 327.724876,2.20310501 321.534514,5.77871487 Z"/><text id="Lyon-P2P" fill="#FFF" font-family="CourierNewPS-BoldMT, Courier New" font-size="104" font-weight="bold"><tspan x="97.262" y="561">Lyon</tspan> <tspan x="346.902" y="561" font-size="65"> </tspan> <tspan x="385.909" y="561">P</tspan> <tspan x="448.319" y="561" font-size="95">2</tspan> <tspan x="505.328" y="561">P</tspan></text><g id="circles-bg" fill="#6ED3F0" fill-rule="nonzero" opacity=".85" transform="translate(28.000000, 40.000000)"><circle id="Oval" cx="115" cy="180" r="6"/><circle id="Oval" cx="42.5" cy="270.5" r="5.5"/><circle id="Oval" cx="74" cy="147" r="5"/><circle id="Oval" cx="118.5" cy="102.5" r="6.5"/><circle id="Oval" cx="18.5" cy="185.5" r="9.5"/><circle id="Oval" cx="343.5" cy="581.5" r="9.5"/><circle id="Oval" cx="218.5" cy="565.5" r="7.5"/><circle id="Oval" cx="74.5" cy="382.5" r="7.5"/><circle id="Oval" cx="106.5" cy="425.5" r="5.5"/><circle id="Oval" cx="85" cy="307" r="11"/><circle id="Oval" cx="202.5" cy="619.5" r="6.5"/><circle id="Oval" cx="262.5" cy="587.5" r="4.5"/><circle id="Oval" cx="294.5" cy="557.5" r="5.5"/><circle id="Oval" cx="42.5" cy="541.5" r="5.5"/><circle id="Oval" cx="4.5" cy="473.5" r="4.5"/><circle id="Oval" cx="129.5" cy="573.5" r="9.5"/><circle id="Oval" cx="9" cy="244" r="5"/><circle id="Oval" cx="16.5" cy="345.5" r="5.5"/><circle id="Oval" cx="133" cy="351" r="8"/><circle id="Oval" cx="25.5" cy="420.5" r="9.5"/><circle id="Oval" cx="78.5" cy="221.5" r="4.5"/><circle id="Oval" cx="213.5" cy="56.5" r="6.5"/><circle id="Oval" cx="257" cy="77" r="6"/><circle id="Oval" cx="280.5" cy="38.5" r="5.5"/><circle id="Oval" cx="369" cy="69" r="6"/><circle id="Oval" cx="414.5" cy="69.5" r="4.5"/><circle id="Oval" cx="296" cy="4" r="4"/><circle id="Oval" cx="464.5" cy="582.5" r="8.5"/><circle id="Oval" cx="526.5" cy="541.5" r="4.5"/><circle id="Oval" cx="603" cy="512" r="6"/><circle id="Oval" cx="545" cy="144" r="5"/><circle id="Oval" cx="482.5" cy="266.5" r="5.5"/><circle id="Oval" cx="557.5" cy="334.5" r="6.5"/><circle id="Oval" cx="591.5" cy="394.5" r="5.5"/><circle id="Oval" cx="564" cy="270" r="9"/><circle id="Oval" cx="531" cy="217" r="5"/><circle id="Oval" cx="495.5" cy="418.5" r="7.5"/><circle id="Oval" cx="591" cy="196" r="6"/><circle id="Oval" cx="414" cy="569" r="5"/><circle id="Oval" cx="462" cy="303" r="4"/><circle id="Oval" cx="315" cy="62" r="5"/><circle id="Oval" cx="509" cy="354" r="13"/><circle id="Oval" cx="384.5" cy="626.5" r="6.5"/><circle id="Oval" cx="338" cy="24" r="9"/><circle id="Oval" cx="591.5" cy="317.5" r="5.5"/><circle id="Oval" cx="576" cy="444" r="10"/><circle id="Oval" cx="290" cy="649" r="15"/></g><g id="lyon-lines" stroke-linejoin="round" transform="translate(154.000000, 140.000000)"><path id="Path-19-Copy" fill="#43466F" stroke="#6568A8" stroke-width="6" d="M25.5345017,51.4170902 C33.3910041,46.9327615 39.2751518,44.0919867 43.1869448,42.8947659 C47.0987377,41.6975451 52.6310759,41.0442559 59.7839591,40.9348984 L35.1183561,27.1653032 C42.6693994,24.5350333 48.3665742,23.3864444 52.2098805,23.7195363 C56.0531867,24.0526282 61.6865063,26.1832093 69.1098393,30.1112795 L51.4464043,13.7768246 C56.4201977,9.6783438 60.2665119,7.0983297 62.9853469,6.03678232 C65.704182,4.97523495 69.9758773,4.3856373 75.8004327,4.26798938 C94.3651985,17.1243662 105.651536,29.9999584 109.659446,42.8947659 C113.667356,55.7895734 113.667356,79.2259651 109.659446,113.203941 C113.04802,108.437575 119.312262,104.505925 128.452174,101.408992 C134.694466,99.2938769 151.261197,103.592538 162.686334,101.408992 C166.221969,100.733269 169.506132,97.562982 172.538825,91.8981304 C171.841623,89.4200831 170.573671,87.8926096 168.734969,87.3157099 C166.896267,86.7388102 163.295836,86.7388102 157.933676,87.3157099 L160.773336,83.0425326 L142.201711,89.9472111 C144.235551,81.2236955 146.40324,74.9279688 148.704779,71.060031 C151.006317,67.1920931 155.02917,63.9586834 160.773336,61.3598018 C165.800661,61.5165227 169.722491,61.9899852 172.538825,62.7801892 C175.355159,63.5703932 178.769119,64.2805869 182.780705,64.9107702 C187.440229,60.4382187 190.249206,57.1835259 191.207639,55.1466919 C193.210618,50.8900179 191.810331,46.3403992 191.207639,45.351331 C190.352341,43.9477149 186.523461,41.398941 184.910451,40.9348984 C180.36879,39.6283201 172.323085,39.6283201 160.773336,40.9348984 L152.254354,20.1685678 C168.719131,18.1746119 179.667095,17.637373 185.098245,18.5568513 C190.529394,19.4763296 194.962926,22.617612 198.398839,27.9806984 C199.887693,29.3320346 201.070885,29.5687658 201.948414,28.6908921 C202.825944,27.8130184 203.608713,25.7289518 204.296722,22.4386923 C201.262273,18.1362073 197.520334,14.8871256 193.070905,12.6914473 C188.621477,10.495769 183.534941,9.73808812 177.811299,10.4184048 L177.220657,2.91277925 C189.221656,-0.750294722 199.988171,-0.958392422 209.520202,2.28848615 C223.0217,6.88747739 218.817466,16.2980511 230.78015,20.9727097 C234.892058,22.5795198 241.13625,24.6437177 249.512729,27.1653032 L247.72098,34.7275385 L259.006464,34.7275385 L250.43877,45.7355406 C255.338801,62.9574146 256.213312,77.6946381 253.062304,89.9472111 C250.409616,100.262088 240.187968,114.376107 228.249419,135.089625 C226.75428,137.68371 225.323068,142.225043 223.955784,148.713626 L216.856632,133.325412 C214.257935,148.548358 215.517384,159.680838 220.634979,166.722851 C225.752574,173.764863 238.543069,181.965662 259.006464,191.325247 C272.320142,184.672959 279.686969,178.04627 281.106946,171.445181 C281.633133,168.999078 282.313946,161.531249 279.329545,151.773216 C277.481048,145.729225 270.930811,140.669737 272.006033,126.88758 C272.438103,121.349317 277.489887,106.693933 287.8265,91.1879367 C300.066514,72.826641 320.785394,57.5857007 322.627126,37.8960485 C323.355299,30.1112795 319.919146,18.9222812 309.56276,15.6902933 C307.296765,14.9831287 298.886092,14.9831287 293.916686,18.5568513 C288.94728,22.1305739 288.180409,27.7146472 287.8265,30.1112795 C287.300149,33.6756675 287.662322,39.5939482 288.913019,47.8661217 L277.683712,39.3437974 C281.883458,58.4358395 283.024536,71.321812 281.106946,78.0017151 C279.189355,84.6816182 272.91744,89.6688535 262.291201,92.963421 C267.153147,84.1091953 269.519531,77.3441048 269.390353,72.6681495 C269.195146,65.6021041 266.020233,60.5381891 264.70356,53.5476712 C263.496449,47.1388453 264.01528,38.7658007 266.344941,33.0586762 C272.024772,19.1444188 285.902369,6.47734229 298.496874,4.26798938 C310.49279,2.16364188 321.970752,7.74549916 327.527867,13.7768246 C329.293923,15.6935858 332.686587,20.5312954 333.390377,27.1653032 C333.701235,30.0954825 333.215131,35.3386367 331.932065,42.8947659 C334.197861,40.6211622 336.067908,37.7128864 337.542206,34.1699384 C339.016505,30.6269903 340.791292,24.7762107 342.86657,16.6175994 C345.282651,31.2913158 345.874247,41.2306395 344.641358,46.4355708 C343.408469,51.640502 339.172038,57.0887081 331.932065,62.7801892 C334.852162,63.3747397 337.949158,63.1528332 341.223052,62.1144699 C344.496946,61.0761065 349.422595,58.7535139 356,55.1466919 C351.151331,67.331584 346.773521,75.9016587 342.86657,80.8569158 C338.959619,85.8121728 333.398617,89.8476746 326.183564,92.963421 C330.543899,94.9462354 334.330113,95.9153276 337.542206,95.8706977 C340.754299,95.8260678 345.487067,94.7386099 351.740509,92.6083241 C346.774089,103.186842 342.041321,110.052048 337.542206,113.203941 C328.761116,119.35561 318.657096,120.755603 310.828988,124.159197 C304.301253,126.997401 299.456598,131.99944 297.339473,135.089625 C295.524181,137.739251 291.861226,142.854479 291.861226,148.713626 C291.861226,151.669068 293.869604,163.308388 291.861226,174.759426 C290.522307,182.393451 281.469752,191.08788 264.70356,200.842713 C266.690054,205.537789 267.875495,210.39676 268.25988,215.419626 C268.644266,220.442492 268.005953,228.010546 266.344941,238.123786 C272.094993,243.332977 276.423194,244.896478 279.329545,242.814289 C282.235896,240.7321 288.239205,235.380585 297.339473,226.759741 C297.824071,230.055542 299.629701,233.868305 302.756364,238.19803 C305.205176,241.589084 314.565427,252.194939 316.954667,261.772839 C319.141329,270.538651 314.469964,278.318073 314.469964,281.519845 C314.469964,285.986622 315.957918,290.645233 318.933824,295.495678 L298.496874,301.816476 C291.338898,310.420972 285.542255,316.420604 281.106946,319.815373 C276.671636,323.210141 269.304809,323.890828 259.006464,321.857432 L225.796226,319.815373 L240.006703,307.129335 C235.920252,306.421848 233.067545,306.421848 231.448582,307.129335 C226.080815,309.475051 219.904814,314.617928 216.856632,314.960721 C212.429416,315.458599 207.851425,314.135986 203.12266,310.992883 C215.02459,296.601359 223.971791,288.562121 229.964264,286.875169 C239.256593,284.259269 247.375464,291.274523 254.242241,293.029234 C262.614049,295.168536 268.915217,292.436847 270.580233,291.93952 C274.731169,290.699669 275.077625,279.535444 266.344941,275.043039 C253.928857,268.655759 226.383662,268.021403 223.0217,265.893376 C213.560399,259.90464 208.082812,252.211611 206.588939,242.814289 C194.363212,250.789979 185.608664,255.332261 180.325298,256.441135 C158.952637,260.926834 146.496592,256.441135 142.201711,261.772839 C137.90683,267.104543 135.593304,275.418472 143.735373,281.519845 C146.376872,283.49929 156.495162,279.957686 166.077134,281.519845 C170.563321,282.251233 174.045552,284.921833 176.523827,289.531645 L160.773336,299.274688 C167.184689,298.624233 171.915561,298.624233 174.965952,299.274688 C178.016343,299.925142 181.393774,301.654129 185.098245,304.461647 C177.792567,305.812952 171.955179,307.409299 167.586082,309.250687 C163.216984,311.092075 158.652189,313.879804 153.891697,317.613875 L59.7839591,319.815373 L77.7833742,301.816476 C70.3414187,305.931511 64.3416137,308.409581 59.7839591,309.250687 C56.5378006,309.849759 52.4909978,307.383633 46.3326623,307.129335 C44.6739567,307.060842 41.7297425,307.767959 37.5000198,309.250687 C45.1139875,295.818621 55.650594,288.360115 69.1098393,286.875169 C89.2987073,284.64775 108.694839,298.819272 113.315576,297.22467 C121.351258,294.45158 118.987996,285.791605 117.933934,284.64775 C111.778573,277.968029 104.864533,276.09511 93.0636868,269.58947 C81.2628403,263.08383 79.2734281,254.839475 77.7833742,250.686737 C73.7868152,239.548441 76.303402,228.188094 85.3331343,216.605697 C93.9953537,210.976179 104.862287,209.124146 117.933934,211.049599 C131.005581,212.975052 150.964703,219.36776 177.811299,230.227723 C182.157435,232.539711 186.266824,232.539711 190.139468,230.227723 C194.012112,227.915735 195.948433,225.218305 195.948433,222.135432 C195.948433,217.743013 193.376399,214.047735 188.232331,211.049599 C179.429154,205.918811 164.899925,203.25487 160.063421,199.067485 C154.56701,194.308761 148.562049,189.281522 144.803506,179.036958 C143.068976,174.309193 139.553182,170.871208 134.256125,168.723001 C130.386824,166.593889 125.91004,168.116304 120.825773,173.290245 C115.741506,178.464187 115.741506,186.577527 120.825773,197.630267 C113.381555,183.397078 104.127526,175.773464 93.0636868,174.759426 C84.8237667,174.00421 77.9306532,178.609533 69.1098393,182.84988 C67.0945069,183.818692 63.4916437,184.611025 58.3012497,185.226879 C59.79589,182.208795 60.2901265,179.768906 59.7839591,177.907213 C59.2777918,176.04552 57.4020586,173.404239 54.1567595,169.983369 C49.2141983,169.051469 45.8768923,169.051469 44.1448415,169.983369 C39.3691073,172.55287 36.9112292,179.22376 33.9219638,180.149585 C29.3064899,181.579072 23.2149737,182.165991 15.6474151,181.910341 C13.960623,177.747461 13.960623,173.771803 15.6474151,169.983369 C17.3342071,166.194934 21.6003211,160.589154 28.4457571,153.166029 C26.357991,155.879309 23.3761463,157.23595 19.500223,157.23595 C16.878119,157.23595 15.9389203,153.014995 10.9905648,151.773216 C9.413118,151.37736 5.7495964,151.37736 0,151.773216 C5.36628097,146.825416 9.74776708,143.43824 13.1444583,141.611689 C16.5411496,139.785138 22.2398296,138.260519 30.2404984,137.037832 C25.7232924,134.820262 21.7921873,133.582788 18.4471833,133.325412 C15.1021792,133.068036 10.5932945,133.656107 4.92052926,135.089625 C9.53432873,128.60944 14.0432134,124.486683 18.4471833,122.721352 C22.8511531,120.956022 30.8714648,120.501243 42.5081182,121.357015 C47.3342639,127.293761 51.2171443,131.283227 54.1567595,133.325412 C57.0963747,135.367598 60.7373896,136.605071 65.0798041,137.037832 C73.5488509,135.388918 78.56468,130.616758 80.1272915,122.721352 C81.6899029,114.825947 79.6690608,107.156203 74.0647649,99.7121189 L63.9330651,111.633166 C59.5329292,109.563717 57.6556574,104.309561 58.3012497,95.8706977 C58.7115718,90.50717 65.4846075,82.9818399 67.9798218,74.4356456 C68.9336245,71.1688386 68.9336245,66.3367616 67.9798218,59.9394144 C63.7785883,55.9099702 60.5523976,53.8556892 58.3012497,53.7765714 C54.2352864,53.633671 48.9357233,58.2576809 46.3326623,57.8088334 C41.567798,56.9872246 34.6350777,54.8566435 25.5345017,51.4170902 Z"/><polyline id="Path-21" stroke="#54568B" stroke-linecap="round" stroke-width="5" points="110 112.062 217.698 133 182 64.942 254 81 191.251 56.042 250.97 46.056 201.223 29.732 250.97 29"/><polyline id="Path-22" stroke="#54568B" stroke-linecap="round" stroke-width="5" points="69 29 111.289 59.295 73.17 99.389 108.843 111.476 129.645 168 216.634 132.45 204.183 243.01 265.876 237.959 267.717 276.39 317 294.672 236.911 307"/><polyline id="Path-23" stroke="#54568B" stroke-linecap="round" stroke-width="5" points="77 302.405 153.429 316 118.183 285.522 137.714 271.638 78.429 233 207 243.733"/><polyline id="Path-24" stroke="#54568B" stroke-linecap="round" stroke-width="5" points="205.171 243 258 191.053 159 198.811 215.826 132.938 171.483 91.429 253.175 82"/><polyline id="Path-25" stroke="#54568B" stroke-linecap="round" stroke-width="5" points="258 191 276.696 190.516 276.696 177.934 291.394 167.994 274.697 139.424 305.709 125.497 281.855 108.885 325.246 92.958 301.282 75.791 331 62.873 318.296 52.142 335.082 40.513 321.051 28.872 321.051 12.788 305.709 17.179 294.5 8 291.394 17.179 274.697 17.179 276.696 39.513 265.353 50.918 280.193 56.808 267.542 68.024 279.196 78.839"/><polyline id="Path-26" stroke="#54568B" stroke-linecap="round" stroke-width="5" points="60 41 113 59.538 62.779 86.697 77.444 99"/><polyline id="Path-27" stroke="#54568B" stroke-linecap="round" stroke-width="5" points="109 114 61.332 183 69.018 136.666 27 155.045 50.11 133.132 27 136.666"/><polyline id="Path-28" stroke="#54568B" stroke-linecap="round" stroke-width="5" points="136.75 270 109 211 183 253.268"/><path id="Path-29" stroke="#54568B" stroke-linecap="round" stroke-width="5" d="M62,183 L175,93"/><polyline id="Path-30" stroke="#54568B" stroke-linecap="round" stroke-width="5" points="209 243.682 269.067 276 302 238"/><path id="Path-19" stroke="#6568A8" stroke-width="6" d="M25.5345017,51.4170902 C33.3910041,46.9327615 39.2751518,44.0919867 43.1869448,42.8947659 C47.0987377,41.6975451 52.6310759,41.0442559 59.7839591,40.9348984 L35.1183561,27.1653032 C42.6693994,24.5350333 48.3665742,23.3864444 52.2098805,23.7195363 C56.0531867,24.0526282 61.6865063,26.1832093 69.1098393,30.1112795 L51.4464043,13.7768246 C56.4201977,9.6783438 60.2665119,7.0983297 62.9853469,6.03678232 C65.704182,4.97523495 69.9758773,4.3856373 75.8004327,4.26798938 C94.3651985,17.1243662 105.651536,29.9999584 109.659446,42.8947659 C113.667356,55.7895734 113.667356,79.2259651 109.659446,113.203941 C113.04802,108.437575 119.312262,104.505925 128.452174,101.408992 C134.694466,99.2938769 151.261197,103.592538 162.686334,101.408992 C166.221969,100.733269 169.506132,97.562982 172.538825,91.8981304 C171.841623,89.4200831 170.573671,87.8926096 168.734969,87.3157099 C166.896267,86.7388102 163.295836,86.7388102 157.933676,87.3157099 L160.773336,83.0425326 L142.201711,89.9472111 C144.235551,81.2236955 146.40324,74.9279688 148.704779,71.060031 C151.006317,67.1920931 155.02917,63.9586834 160.773336,61.3598018 C165.800661,61.5165227 169.722491,61.9899852 172.538825,62.7801892 C175.355159,63.5703932 178.769119,64.2805869 182.780705,64.9107702 C187.440229,60.4382187 190.249206,57.1835259 191.207639,55.1466919 C193.210618,50.8900179 191.810331,46.3403992 191.207639,45.351331 C190.352341,43.9477149 186.523461,41.398941 184.910451,40.9348984 C180.36879,39.6283201 172.323085,39.6283201 160.773336,40.9348984 L152.254354,20.1685678 C168.719131,18.1746119 179.667095,17.637373 185.098245,18.5568513 C190.529394,19.4763296 194.962926,22.617612 198.398839,27.9806984 C199.887693,29.3320346 201.070885,29.5687658 201.948414,28.6908921 C202.825944,27.8130184 203.608713,25.7289518 204.296722,22.4386923 C201.262273,18.1362073 197.520334,14.8871256 193.070905,12.6914473 C188.621477,10.495769 183.534941,9.73808812 177.811299,10.4184048 L177.220657,2.91277925 C189.221656,-0.750294722 199.988171,-0.958392422 209.520202,2.28848615 C223.0217,6.88747739 218.817466,16.2980511 230.78015,20.9727097 C234.892058,22.5795198 241.13625,24.6437177 249.512729,27.1653032 L247.72098,34.7275385 L259.006464,34.7275385 L250.43877,45.7355406 C255.338801,62.9574146 256.213312,77.6946381 253.062304,89.9472111 C250.409616,100.262088 240.187968,114.376107 228.249419,135.089625 C226.75428,137.68371 225.323068,142.225043 223.955784,148.713626 L216.856632,133.325412 C214.257935,148.548358 215.517384,159.680838 220.634979,166.722851 C225.752574,173.764863 238.543069,181.965662 259.006464,191.325247 C272.320142,184.672959 279.686969,178.04627 281.106946,171.445181 C281.633133,168.999078 282.313946,161.531249 279.329545,151.773216 C277.481048,145.729225 270.930811,140.669737 272.006033,126.88758 C272.438103,121.349317 277.489887,106.693933 287.8265,91.1879367 C300.066514,72.826641 320.785394,57.5857007 322.627126,37.8960485 C323.355299,30.1112795 319.919146,18.9222812 309.56276,15.6902933 C307.296765,14.9831287 298.886092,14.9831287 293.916686,18.5568513 C288.94728,22.1305739 288.180409,27.7146472 287.8265,30.1112795 C287.300149,33.6756675 287.662322,39.5939482 288.913019,47.8661217 L277.683712,39.3437974 C281.883458,58.4358395 283.024536,71.321812 281.106946,78.0017151 C279.189355,84.6816182 272.91744,89.6688535 262.291201,92.963421 C267.153147,84.1091953 269.519531,77.3441048 269.390353,72.6681495 C269.195146,65.6021041 266.020233,60.5381891 264.70356,53.5476712 C263.496449,47.1388453 264.01528,38.7658007 266.344941,33.0586762 C272.024772,19.1444188 285.902369,6.47734229 298.496874,4.26798938 C310.49279,2.16364188 321.970752,7.74549916 327.527867,13.7768246 C329.293923,15.6935858 332.686587,20.5312954 333.390377,27.1653032 C333.701235,30.0954825 333.215131,35.3386367 331.932065,42.8947659 C334.197861,40.6211622 336.067908,37.7128864 337.542206,34.1699384 C339.016505,30.6269903 340.791292,24.7762107 342.86657,16.6175994 C345.282651,31.2913158 345.874247,41.2306395 344.641358,46.4355708 C343.408469,51.640502 339.172038,57.0887081 331.932065,62.7801892 C334.852162,63.3747397 337.949158,63.1528332 341.223052,62.1144699 C344.496946,61.0761065 349.422595,58.7535139 356,55.1466919 C351.151331,67.331584 346.773521,75.9016587 342.86657,80.8569158 C338.959619,85.8121728 333.398617,89.8476746 326.183564,92.963421 C330.543899,94.9462354 334.330113,95.9153276 337.542206,95.8706977 C340.754299,95.8260678 345.487067,94.7386099 351.740509,92.6083241 C346.774089,103.186842 342.041321,110.052048 337.542206,113.203941 C328.761116,119.35561 318.657096,120.755603 310.828988,124.159197 C304.301253,126.997401 299.456598,131.99944 297.339473,135.089625 C295.524181,137.739251 291.861226,142.854479 291.861226,148.713626 C291.861226,151.669068 293.869604,163.308388 291.861226,174.759426 C290.522307,182.393451 281.469752,191.08788 264.70356,200.842713 C266.690054,205.537789 267.875495,210.39676 268.25988,215.419626 C268.644266,220.442492 268.005953,228.010546 266.344941,238.123786 C272.094993,243.332977 276.423194,244.896478 279.329545,242.814289 C282.235896,240.7321 288.239205,235.380585 297.339473,226.759741 C297.824071,230.055542 299.629701,233.868305 302.756364,238.19803 C305.205176,241.589084 314.565427,252.194939 316.954667,261.772839 C319.141329,270.538651 314.469964,278.318073 314.469964,281.519845 C314.469964,285.986622 315.957918,290.645233 318.933824,295.495678 L298.496874,301.816476 C291.338898,310.420972 285.542255,316.420604 281.106946,319.815373 C276.671636,323.210141 269.304809,323.890828 259.006464,321.857432 L225.796226,319.815373 L240.006703,307.129335 C235.920252,306.421848 233.067545,306.421848 231.448582,307.129335 C226.080815,309.475051 219.904814,314.617928 216.856632,314.960721 C212.429416,315.458599 207.851425,314.135986 203.12266,310.992883 C215.02459,296.601359 223.971791,288.562121 229.964264,286.875169 C239.256593,284.259269 247.375464,291.274523 254.242241,293.029234 C262.614049,295.168536 268.915217,292.436847 270.580233,291.93952 C274.731169,290.699669 275.077625,279.535444 266.344941,275.043039 C253.928857,268.655759 226.383662,268.021403 223.0217,265.893376 C213.560399,259.90464 208.082812,252.211611 206.588939,242.814289 C194.363212,250.789979 185.608664,255.332261 180.325298,256.441135 C158.952637,260.926834 146.496592,256.441135 142.201711,261.772839 C137.90683,267.104543 135.593304,275.418472 143.735373,281.519845 C146.376872,283.49929 156.495162,279.957686 166.077134,281.519845 C170.563321,282.251233 174.045552,284.921833 176.523827,289.531645 L160.773336,299.274688 C167.184689,298.624233 171.915561,298.624233 174.965952,299.274688 C178.016343,299.925142 181.393774,301.654129 185.098245,304.461647 C177.792567,305.812952 171.955179,307.409299 167.586082,309.250687 C163.216984,311.092075 158.652189,313.879804 153.891697,317.613875 L59.7839591,319.815373 L77.7833742,301.816476 C70.3414187,305.931511 64.3416137,308.409581 59.7839591,309.250687 C56.5378006,309.849759 52.4909978,307.383633 46.3326623,307.129335 C44.6739567,307.060842 41.7297425,307.767959 37.5000198,309.250687 C45.1139875,295.818621 55.650594,288.360115 69.1098393,286.875169 C89.2987073,284.64775 108.694839,298.819272 113.315576,297.22467 C121.351258,294.45158 118.987996,285.791605 117.933934,284.64775 C111.778573,277.968029 104.864533,276.09511 93.0636868,269.58947 C81.2628403,263.08383 79.2734281,254.839475 77.7833742,250.686737 C73.7868152,239.548441 76.303402,228.188094 85.3331343,216.605697 C93.9953537,210.976179 104.862287,209.124146 117.933934,211.049599 C131.005581,212.975052 150.964703,219.36776 177.811299,230.227723 C182.157435,232.539711 186.266824,232.539711 190.139468,230.227723 C194.012112,227.915735 195.948433,225.218305 195.948433,222.135432 C195.948433,217.743013 193.376399,214.047735 188.232331,211.049599 C179.429154,205.918811 164.899925,203.25487 160.063421,199.067485 C154.56701,194.308761 148.562049,189.281522 144.803506,179.036958 C143.068976,174.309193 139.553182,170.871208 134.256125,168.723001 C130.386824,166.593889 125.91004,168.116304 120.825773,173.290245 C115.741506,178.464187 115.741506,186.577527 120.825773,197.630267 C113.381555,183.397078 104.127526,175.773464 93.0636868,174.759426 C84.8237667,174.00421 77.9306532,178.609533 69.1098393,182.84988 C67.0945069,183.818692 63.4916437,184.611025 58.3012497,185.226879 C59.79589,182.208795 60.2901265,179.768906 59.7839591,177.907213 C59.2777918,176.04552 57.4020586,173.404239 54.1567595,169.983369 C49.2141983,169.051469 45.8768923,169.051469 44.1448415,169.983369 C39.3691073,172.55287 36.9112292,179.22376 33.9219638,180.149585 C29.3064899,181.579072 23.2149737,182.165991 15.6474151,181.910341 C13.960623,177.747461 13.960623,173.771803 15.6474151,169.983369 C17.3342071,166.194934 21.6003211,160.589154 28.4457571,153.166029 C26.357991,155.879309 23.3761463,157.23595 19.500223,157.23595 C16.878119,157.23595 15.9389203,153.014995 10.9905648,151.773216 C9.413118,151.37736 5.7495964,151.37736 0,151.773216 C5.36628097,146.825416 9.74776708,143.43824 13.1444583,141.611689 C16.5411496,139.785138 22.2398296,138.260519 30.2404984,137.037832 C25.7232924,134.820262 21.7921873,133.582788 18.4471833,133.325412 C15.1021792,133.068036 10.5932945,133.656107 4.92052926,135.089625 C9.53432873,128.60944 14.0432134,124.486683 18.4471833,122.721352 C22.8511531,120.956022 30.8714648,120.501243 42.5081182,121.357015 C47.3342639,127.293761 51.2171443,131.283227 54.1567595,133.325412 C57.0963747,135.367598 60.7373896,136.605071 65.0798041,137.037832 C73.5488509,135.388918 78.56468,130.616758 80.1272915,122.721352 C81.6899029,114.825947 79.6690608,107.156203 74.0647649,99.7121189 L63.9330651,111.633166 C59.5329292,109.563717 57.6556574,104.309561 58.3012497,95.8706977 C58.7115718,90.50717 65.4846075,82.9818399 67.9798218,74.4356456 C68.9336245,71.1688386 68.9336245,66.3367616 67.9798218,59.9394144 C63.7785883,55.9099702 60.5523976,53.8556892 58.3012497,53.7765714 C54.2352864,53.633671 48.9357233,58.2576809 46.3326623,57.8088334 C41.567798,56.9872246 34.6350777,54.8566435 25.5345017,51.4170902 Z"/><path id="Path-20" stroke="#6568A8" stroke-linecap="round" stroke-width="5" d="M141.940173,31.1339232 C136.263218,28.2886923 131.787373,28.2886923 128.51264,31.1339232 C122.029968,36.7663509 122.98034,48.7973425 128.51264,53.2703064 C130.797395,55.1175719 138.291944,57.8818509 146.69073,56.7265005 C153.637391,55.7709066 161.873516,51.3189121 171.401641,50.6785724 C176.93477,50.3067174 183.134223,52.0223278 190,55.8254037"/></g><g id="lyon-dots" fill="#6ED3F0" fill-rule="nonzero" transform="translate(149.000000, 140.000000)"><circle id="Oval" cx="181" cy="7" r="7"/><circle id="Oval" cx="267.5" cy="93.5" r="5.5"/><circle id="Oval" cx="273" cy="68" r="4"/><circle id="Oval" cx="269" cy="50" r="4"/><circle id="Oval" cx="258.5" cy="81.5" r="6.5"/><circle id="Oval" cx="294" cy="49" r="7"/><circle id="Oval" cx="281" cy="40" r="4"/><circle id="Oval" cx="326" cy="12" r="4"/><circle id="Oval" cx="298" cy="7" r="4"/><circle id="Oval" cx="280" cy="17" r="4"/><circle id="Oval" cx="349" cy="18" r="7"/><circle id="Oval" cx="335" cy="45" r="4"/><circle id="Oval" cx="334" cy="65" r="6"/><circle id="Oval" cx="305.5" cy="75.5" r="4.5"/><circle id="Oval" cx="361.5" cy="55.5" r="5.5"/><circle id="Oval" cx="357" cy="93" r="8"/><circle id="Oval" cx="330" cy="93" r="5"/><circle id="Oval" cx="285" cy="108" r="6"/><circle id="Oval" cx="277.5" cy="139.5" r="6.5"/><circle id="Oval" cx="308.5" cy="127.5" r="5.5"/><circle id="Oval" cx="298" cy="165" r="6"/><circle id="Oval" cx="253" cy="27" r="6"/><circle id="Oval" cx="253" cy="46" r="4"/><circle id="Oval" cx="220.5" cy="135.5" r="12.5"/><circle id="Oval" cx="116" cy="111" r="9"/><circle id="Oval" cx="67.5" cy="111.5" r="5.5"/><circle id="Oval" cx="81" cy="98" r="7"/><circle id="Oval" cx="69" cy="85" r="6"/><circle id="Oval" cx="115.5" cy="59.5" r="5.5"/><circle id="Oval" cx="145" cy="30" r="6"/><circle id="Oval" cx="157.5" cy="21.5" r="4.5"/><circle id="Oval" cx="166" cy="42" r="4"/><circle id="Oval" cx="198" cy="56" r="6"/><circle id="Oval" cx="211" cy="30" r="7"/><circle id="Oval" cx="186.5" cy="65.5" r="3.5"/><circle id="Oval" cx="147.5" cy="89.5" r="5.5"/><circle id="Oval" cx="56.5" cy="14.5" r="4.5"/><circle id="Oval" cx="43" cy="27" r="6"/><circle id="Oval" cx="74.5" cy="29.5" r="4.5"/><circle id="Oval" cx="64" cy="42" r="4"/><circle id="Oval" cx="30" cy="51" r="7"/><circle id="Oval" cx="11.5" cy="135.5" r="4.5"/><circle id="Oval" cx="33.5" cy="136.5" r="5.5"/><ellipse id="Oval" cx="5.5" cy="152" rx="5.5" ry="6"/><circle id="Oval" cx="21" cy="180" r="7"/><circle id="Oval" cx="66" cy="182" r="8"/><circle id="Oval" cx="72.5" cy="137.5" r="5.5"/><circle id="Oval" cx="33.5" cy="154.5" r="5.5"/><circle id="Oval" cx="114.5" cy="211.5" r="8.5"/><circle id="Oval" cx="136.5" cy="168.5" r="8.5"/><circle id="Oval" cx="168" cy="197" r="11"/><circle id="Oval" cx="177.5" cy="92.5" r="5.5"/><circle id="Oval" cx="211.5" cy="242.5" r="9.5"/><circle id="Oval" cx="186" cy="255" r="4"/><circle id="Oval" cx="274" cy="204" r="9"/><circle id="Oval" cx="260.5" cy="189.5" r="5.5"/><circle id="Oval" cx="308" cy="240" r="7"/><circle id="Oval" cx="269.5" cy="237.5" r="5.5"/><circle id="Oval" cx="274" cy="275" r="6"/><circle id="Oval" cx="321.5" cy="293.5" r="7.5"/><circle id="Oval" cx="243" cy="307" r="6"/><circle id="Oval" cx="231" cy="321" r="4"/><circle id="Oval" cx="208.5" cy="310.5" r="7.5"/><circle id="Oval" cx="44.5" cy="306.5" r="8.5"/><circle id="Oval" cx="82.5" cy="302.5" r="4.5"/><circle id="Oval" cx="66" cy="319" r="6"/><circle id="Oval" cx="125" cy="286" r="6"/><circle id="Oval" cx="140" cy="270" r="7"/><circle id="Oval" cx="84" cy="233" r="7"/><circle id="Oval" cx="189.5" cy="305.5" r="5.5"/><circle id="Oval" cx="158" cy="315" r="7"/></g></g></g></svg>