<?xml version="1.0" encoding="UTF-8"?>
<svg width="790px" height="790px" viewBox="0 0 790 790" version="1.1" xmlns="http://www.w3.org/2000/svg" xmlns:xlink="http://www.w3.org/1999/xlink">
    <!-- Generator: Sketch 57.1 (83088) - https://sketch.com -->
    <title>lyon_p2p_no_border_small</title>
    <desc>Created with Sketch.</desc>
    <g id="Page-1" stroke="none" stroke-width="1" fill="none" fill-rule="evenodd">
        <g id="lyon_p2p-new-good-small" transform="translate(50.000000, 18.000000)">
            <path d="M334.534514,5.77871487 L22.9966373,185.725851 C16.8105108,189.299014 13,195.900492 13,203.044417 L13,562.956263 C13,570.099823 16.8101252,576.701023 22.9957536,580.274319 L334.495754,760.220775 C340.685933,763.7967 348.314067,763.7967 354.504246,760.220775 L666.004246,580.274319 C672.189875,576.701023 676,570.099823 676,562.956263 L676,203.043056 C676,195.899861 672.190261,189.298941 666.00513,185.725511 L354.543007,5.77973589 C348.35301,2.20349427 340.724876,2.20310501 334.534514,5.77871487 Z" id="hexagon" stroke="#383B62" stroke-width="18" fill="#383B62" stroke-linejoin="round"></path>
            <g id="bg-dots" opacity="0.85" transform="translate(51.000000, 58.000000)" fill="#6ED3F0" fill-rule="nonzero">
                <circle id="Oval" cx="322" cy="601" r="15"></circle>
                <circle id="Oval" cx="523.5" cy="390.5" r="11.5"></circle>
                <circle id="Oval" cx="579.5" cy="355.5" r="8.5"></circle>
                <circle id="Oval" cx="510.5" cy="447.5" r="7.5"></circle>
                <circle id="Oval" cx="567" cy="478" r="15"></circle>
                <circle id="Oval" cx="202.5" cy="588.5" r="12.5"></circle>
                <circle id="Oval" cx="11" cy="482" r="8"></circle>
                <circle id="Oval" cx="14" cy="376" r="8"></circle>
                <circle id="Oval" cx="44.5" cy="425.5" r="9.5"></circle>
                <circle id="Oval" cx="16.5" cy="176.5" r="12.5"></circle>
                <circle id="Oval" cx="262" cy="22" r="7"></circle>
                <circle id="Oval" cx="368" cy="56" r="7"></circle>
                <circle id="Oval" cx="433" cy="74" r="7"></circle>
                <circle id="Oval" cx="597" cy="170" r="6"></circle>
                <circle id="Oval" cx="581.5" cy="253.5" r="9.5"></circle>
                <circle id="Oval" cx="320.5" cy="14.5" r="14.5"></circle>
                <circle id="Oval" cx="54" cy="224" r="7"></circle>
                <circle id="Oval" cx="6" cy="256" r="6"></circle>
                <circle id="Oval" cx="94.5" cy="455.5" r="9.5"></circle>
                <circle id="Oval" cx="255.5" cy="639.5" r="8.5"></circle>
                <circle id="Oval" cx="392.5" cy="596.5" r="7.5"></circle>
                <circle id="Oval" cx="48" cy="126" r="6"></circle>
                <circle id="Oval" cx="181.5" cy="67.5" r="8.5"></circle>
                <circle id="Oval" cx="253.5" cy="65.5" r="8.5"></circle>
            </g>
            <g id="lyon-lines" transform="translate(91.000000, 156.000000)" stroke-linejoin="round">
                <path d="M35.7196119,71.792903 C46.7098877,65.5315029 54.9410831,61.5649722 60.413198,59.8933109 C65.8853129,58.2216496 73.6243702,57.3094719 83.6303698,57.1567777 L49.1262397,37.9305008 C59.689216,34.2578948 67.6588594,32.6541375 73.0351698,33.1192287 C78.4114803,33.5843199 86.2917982,36.5592179 96.6761235,42.0439228 L71.9671611,19.2363713 C78.9248832,13.5137246 84.3054014,9.91129007 88.1087157,8.42906758 C91.9120299,6.94684509 97.8876036,6.12359883 106.035437,5.95932882 C132.00525,23.9104928 147.793441,41.8884868 153.400011,59.8933109 C159.006582,77.898135 159.006582,110.622013 153.400011,158.064946 C158.140207,151.40974 166.903108,145.920037 179.688715,141.595837 C188.420911,138.642534 211.595719,144.64469 227.578074,141.595837 C232.52399,140.652335 237.118129,136.225712 241.360491,128.315965 C240.385192,124.855905 238.611484,122.723117 236.039367,121.917601 C233.46725,121.112085 228.430692,121.112085 220.929692,121.917601 L224.902026,115.951029 L198.922619,125.591926 C201.767709,113.411414 204.800038,104.620786 208.019606,99.2200432 C211.239174,93.8193003 216.866648,89.3045393 224.902026,85.6757604 C231.934633,85.8945874 237.420788,86.5556759 241.360491,87.6590258 C245.300194,88.7623756 250.075902,89.7540083 255.687616,90.6339238 C262.205713,84.3889679 266.135126,79.8444897 267.475855,77.0004893 C270.277774,71.05696 268.318946,64.7043964 267.475855,63.3233754 C266.279398,61.3635276 260.923268,57.8047133 258.666867,57.1567777 C252.313645,55.3324222 241.058698,55.3324222 224.902026,57.1567777 L212.985024,28.1610653 C236.017212,25.3769349 251.33206,24.6267964 258.929567,25.91065 C266.527074,27.1945036 272.729037,31.5806285 277.535454,39.0690247 C279.618177,40.9558749 281.273317,41.2864192 282.500872,40.0606574 C283.728427,38.8348957 284.823424,35.9249451 285.785864,31.3308056 C281.541045,25.3233111 276.306535,20.7866677 270.082334,17.7208753 C263.858133,14.655083 256.742699,13.5971447 248.736031,14.5470605 L247.909795,4.06706948 C264.697709,-1.04762514 279.758733,-1.3381888 293.092866,3.19537849 C311.979794,9.61688019 306.098589,22.7567215 322.832907,29.2838764 C328.584957,31.527441 337.319811,34.4096491 349.037469,37.9305008 L346.531034,48.4895351 L362.31803,48.4895351 L350.332887,63.8598416 C357.187423,87.9064829 358.410757,108.483845 354.002887,125.591926 C350.292104,139.994433 335.993281,159.701623 319.292727,188.623594 C317.201211,192.245675 315.199123,198.58667 313.286461,207.646579 L303.355626,186.16025 C299.72037,207.415819 301.482184,222.959931 308.641067,232.792587 C315.799949,242.625243 333.692271,254.075894 362.31803,267.14454 C380.942221,257.856051 391.247502,248.603306 393.233873,239.386305 C393.969944,235.970849 394.922318,225.543632 390.747509,211.91864 C388.16169,203.479506 378.998718,196.415019 380.502821,177.171203 C381.107234,169.438211 388.174055,148.975121 402.633699,127.324333 C419.755966,101.686734 448.739119,80.4060402 451.315474,52.9136777 C452.334097,42.0439228 447.527344,26.4208942 433.040041,21.9081186 C429.870193,20.9207154 418.104701,20.9207154 411.153117,25.91065 C404.201532,30.9005847 403.128774,38.6975414 402.633699,42.0439228 C401.8974,47.0208237 402.404035,55.2844293 404.153605,66.8347396 L388.445192,54.9351475 C394.320118,81.5930762 395.916345,99.5855642 393.233873,108.912612 C390.551401,118.239659 381.777768,125.20326 366.912973,129.803414 C373.714234,117.440393 377.024512,107.9944 376.843808,101.465435 C376.570738,91.5992228 372.129427,84.528555 370.287564,74.767801 C368.598965,65.8192546 369.324746,54.1280995 372.583654,46.159328 C380.529035,26.7310615 399.942078,9.04421478 417.560233,5.95932882 C434.341038,3.02106034 450.397288,10.814923 458.171004,19.2363713 C460.641499,21.9127158 465.387417,28.6675364 466.371932,37.9305008 C466.806783,42.0218657 466.126784,49.3428024 464.331934,59.8933109 C467.501502,56.7187126 470.117467,52.6579312 472.179828,47.7109666 C474.242189,42.764002 476.724898,34.5946471 479.627954,23.202902 C483.007753,43.6915895 483.835323,57.5697165 482.110663,64.837283 C480.386004,72.1048495 474.459761,79.7120971 464.331934,87.6590258 C468.416789,88.4891876 472.749102,88.179343 477.328876,86.729492 C481.908649,85.279641 488.799024,82.0366401 498,77.0004893 C491.217311,94.0140693 485.093296,105.980335 479.627954,112.899285 C474.162613,119.818235 466.383459,125.452945 456.290491,129.803414 C462.390062,132.571988 467.686507,133.925117 472.179828,133.862801 C476.673149,133.800485 483.293706,132.282084 492.041499,129.307598 C485.09409,144.078222 478.473533,153.664005 472.179828,158.064946 C459.896167,166.654427 445.761893,168.609217 434.811338,173.361604 C425.679842,177.324544 418.902769,184.308816 415.941172,188.623594 C413.401803,192.323226 408.277782,199.465542 408.277782,207.646579 C408.277782,211.773219 411.087254,228.025025 408.277782,244.013936 C406.404801,254.673209 393.741395,266.813109 370.287564,280.433634 C373.066425,286.989297 374.724709,293.773804 375.262417,300.787156 C375.800125,307.800508 374.907204,318.367666 372.583654,332.48863 C380.627265,339.762144 386.681884,341.945237 390.747509,339.037909 C394.813135,336.13058 403.211023,328.658339 415.941172,316.621187 C416.619066,321.223063 419.144919,326.546766 423.518734,332.592296 C426.944319,337.327173 440.038154,352.135968 443.380405,365.509444 C446.439275,377.749015 439.904613,388.611303 439.904613,393.081889 C439.904613,399.318782 441.986076,405.823529 446.149001,412.596132 L417.560233,421.421766 C407.54711,433.436094 399.438323,441.81329 393.233873,446.553353 C387.029423,451.293417 376.724143,452.243849 362.31803,449.40465 L315.861012,446.553353 L335.739714,428.840032 C330.023274,427.852178 326.03269,427.852178 323.76796,428.840032 C316.259118,432.115319 307.619655,439.29624 303.355626,439.774877 C297.162497,440.470056 290.758454,438.623312 284.143496,434.234645 C300.792825,414.139978 313.308854,402.914912 321.691583,400.559446 C334.690402,396.906905 346.047699,406.702198 355.653472,409.152275 C367.364596,412.139349 376.179152,408.325133 378.508304,407.630723 C384.31495,405.899537 384.799599,390.3111 372.583654,384.038422 C355.215086,375.119961 316.682763,374.234219 311.979794,371.262888 C298.744603,362.900906 291.082135,352.159247 288.992393,339.037909 C271.890111,350.174243 259.643581,356.516562 252.252804,358.064867 C222.355093,364.32818 204.930626,358.064867 198.922619,365.509444 C192.914611,372.954022 189.678274,384.562635 201.068021,393.081889 C204.763153,395.845758 218.91739,390.90067 232.321383,393.081889 C238.597005,394.103116 243.468216,397.832034 246.935016,404.268643 L224.902026,417.872706 C233.870717,416.964486 240.488622,416.964486 244.755742,417.872706 C249.022862,418.780926 253.747471,421.195084 258.929567,425.115179 C248.709827,427.001986 240.544043,429.23094 234.432216,431.802043 C228.320388,434.373145 221.934804,438.265609 215.275464,443.479436 L83.6303698,446.553353 L108.809327,421.421766 C98.3989509,427.167527 90.0059652,430.627619 83.6303698,431.802043 C79.0893952,432.638518 73.4284183,429.195104 64.813668,428.840032 C62.4933439,428.744395 58.3747522,429.731732 52.4578929,431.802043 C63.1088926,413.047053 77.8483028,402.632854 96.6761235,400.559446 C124.917855,397.449335 152.050645,417.236817 158.514486,415.010297 C169.755411,411.138274 166.4495,399.046482 164.974998,397.449335 C156.364409,388.122542 146.692521,385.507413 130.184596,376.423687 C113.67667,367.339961 110.893728,355.828493 108.809327,350.030088 C103.218635,334.477854 106.739029,318.615574 119.370508,302.443249 C131.487882,294.582838 146.689379,291.996873 164.974998,294.685353 C183.260616,297.373834 211.180961,306.299875 248.736031,321.463477 C254.815737,324.691671 260.564265,324.691671 265.981615,321.463477 C271.398965,318.235284 274.10764,314.468903 274.10764,310.164334 C274.10764,304.031266 270.509682,298.871606 263.313766,294.685353 C250.999209,287.521312 230.674614,283.801692 223.908943,277.95491 C216.220143,271.310376 207.819945,264.290918 202.562208,249.986588 C200.135815,243.385282 195.217654,238.584875 187.807725,235.585367 C182.395052,232.612521 176.132585,234.738245 169.020323,241.962541 C161.908062,249.186837 161.908062,260.515371 169.020323,275.948144 C158.606782,256.074557 145.661539,245.429821 130.184596,244.013936 C118.657966,242.959439 109.015352,249.389782 96.6761235,255.310514 C93.8569226,256.663251 88.8169622,257.769573 81.5562425,258.629481 C83.6470596,254.415376 84.3384354,251.008596 83.6303698,248.409143 C82.9223042,245.809689 80.2983853,242.121708 75.758613,237.345199 C68.8445808,236.044001 64.1761021,236.044001 61.7531771,237.345199 C55.0725152,240.932954 51.6342476,250.247418 47.4526348,251.540132 C40.9961572,253.536104 32.4748789,254.35561 21.8887998,253.99865 C19.5291862,248.186083 19.5291862,242.634932 21.8887998,237.345199 C24.2484134,232.055465 30.2161796,224.2282 39.7920984,213.863402 C36.8715717,217.651915 32.7003395,219.546171 27.2784018,219.546171 C23.6104024,219.546171 22.2965795,213.652516 15.3744418,211.91864 C13.1677887,211.365911 8.04297474,211.365911 0,211.91864 C7.50676383,205.010101 13.6359214,200.280638 18.3874726,197.730253 C23.1390238,195.179867 31.1107729,193.051065 42.3027197,191.343846 C35.9837067,188.247486 30.4845766,186.519621 25.8053294,186.16025 C21.1260821,185.80088 14.8187098,186.621995 6.88321227,188.623594 C13.3373475,179.575411 19.6447199,173.818867 25.8053294,171.353963 C31.9659389,168.889059 43.1853636,168.254057 59.4636035,169.448959 C66.2147848,177.738347 71.6464547,183.308778 75.758613,186.16025 C79.8707714,189.011723 84.9641011,190.739588 91.0386023,191.343846 C102.885752,189.041492 109.902277,182.378197 112.088177,171.353963 C114.274078,160.329728 111.447169,149.62058 103.607452,139.226519 L89.4344562,155.871697 C83.2792099,152.982156 80.6531387,145.645857 81.5562425,133.862801 C82.1302324,126.373789 91.6048724,115.866284 95.0953687,103.933363 C96.4296208,99.3719697 96.4296208,92.6250138 95.0953687,83.6924951 C89.2183622,78.0662432 84.7053202,75.1978818 81.5562425,75.0874108 C75.8684624,74.8878811 68.4550287,81.3443161 64.813668,80.717597 C58.1482118,79.5703972 48.450193,76.5954992 35.7196119,71.792903 Z" id="Path-19-Copy" stroke="#6568A8" stroke-width="6" fill="#43466F"></path>
                <polyline id="Path-21" stroke="#54568B" stroke-width="5" stroke-linecap="round" points="154 156.808207 304.328031 186 254.5 91.1110921 355 113.5 267.413176 78.7033015 350.770402 64.7798431 281.332316 42.0201401 350.770402 41"></polyline>
                <polyline id="Path-22" stroke="#54568B" stroke-width="5" stroke-linecap="round" points="96 40 155.171006 82.2822797 101.834337 138.240409 151.748534 155.109974 180.854707 234 302.56823 184.383632 285.146813 338.690537 371.46762 331.640506 374.043064 385.277792 443 410.794392 330.940252 428"></polyline>
                <polyline id="Path-23" stroke="#54568B" stroke-width="5" stroke-linecap="round" points="108 423 215 442 165.655602 399.404298 193 380 110 326 290 341"></polyline>
                <polyline id="Path-24" stroke="#54568B" stroke-width="5" stroke-linecap="round" points="287.359642 339 361 266.403315 223 277.244672 302.211867 185.186888 240.399968 127.176796 354.274272 114"></polyline>
                <polyline id="Path-25" stroke="#54568B" stroke-width="5" stroke-linecap="round" points="361 266 387.195537 265.326172 387.195537 247.793853 407.788918 233.942102 384.394459 194.131507 427.846118 174.726002 394.423059 151.577962 455.218387 129.384033 421.642677 105.46321 463.280874 87.4621655 445.480889 72.5094504 469 56.3050499 449.341347 40.0846252 449.341347 17.6716012 427.846118 23.7908884 412.140437 11 407.788918 23.7908884 384.394459 23.7908884 387.195537 54.9110686 371.302778 70.8033211 392.095213 79.0112176 374.369182 94.6403717 390.698335 109.709597"></polyline>
                <polyline id="Path-26" stroke="#54568B" stroke-width="5" stroke-linecap="round" points="84 57 158 82.888985 87.8802511 120.818151 108.356453 138"></polyline>
                <polyline id="Path-27" stroke="#54568B" stroke-width="5" stroke-linecap="round" points="152 159 85.1485354 255 95.9280039 190.535715 37 216.105871 69.4108099 185.619039 37 190.535715"></polyline>
                <polyline id="Path-28" stroke="#54568B" stroke-width="5" stroke-linecap="round" points="191 376 152 294 256 352.744737"></polyline>
                <path d="M87,255 L245,130" id="Path-29" stroke="#54568B" stroke-width="5" stroke-linecap="round"></path>
                <polyline id="Path-30" stroke="#54568B" stroke-width="5" stroke-linecap="round" points="292 340.925234 375.965119 386 422 333"></polyline>
                <path d="M35.7196119,71.792903 C46.7098877,65.5315029 54.9410831,61.5649722 60.413198,59.8933109 C65.8853129,58.2216496 73.6243702,57.3094719 83.6303698,57.1567777 L49.1262397,37.9305008 C59.689216,34.2578948 67.6588594,32.6541375 73.0351698,33.1192287 C78.4114803,33.5843199 86.2917982,36.5592179 96.6761235,42.0439228 L71.9671611,19.2363713 C78.9248832,13.5137246 84.3054014,9.91129007 88.1087157,8.42906758 C91.9120299,6.94684509 97.8876036,6.12359883 106.035437,5.95932882 C132.00525,23.9104928 147.793441,41.8884868 153.400011,59.8933109 C159.006582,77.898135 159.006582,110.622013 153.400011,158.064946 C158.140207,151.40974 166.903108,145.920037 179.688715,141.595837 C188.420911,138.642534 211.595719,144.64469 227.578074,141.595837 C232.52399,140.652335 237.118129,136.225712 241.360491,128.315965 C240.385192,124.855905 238.611484,122.723117 236.039367,121.917601 C233.46725,121.112085 228.430692,121.112085 220.929692,121.917601 L224.902026,115.951029 L198.922619,125.591926 C201.767709,113.411414 204.800038,104.620786 208.019606,99.2200432 C211.239174,93.8193003 216.866648,89.3045393 224.902026,85.6757604 C231.934633,85.8945874 237.420788,86.5556759 241.360491,87.6590258 C245.300194,88.7623756 250.075902,89.7540083 255.687616,90.6339238 C262.205713,84.3889679 266.135126,79.8444897 267.475855,77.0004893 C270.277774,71.05696 268.318946,64.7043964 267.475855,63.3233754 C266.279398,61.3635276 260.923268,57.8047133 258.666867,57.1567777 C252.313645,55.3324222 241.058698,55.3324222 224.902026,57.1567777 L212.985024,28.1610653 C236.017212,25.3769349 251.33206,24.6267964 258.929567,25.91065 C266.527074,27.1945036 272.729037,31.5806285 277.535454,39.0690247 C279.618177,40.9558749 281.273317,41.2864192 282.500872,40.0606574 C283.728427,38.8348957 284.823424,35.9249451 285.785864,31.3308056 C281.541045,25.3233111 276.306535,20.7866677 270.082334,17.7208753 C263.858133,14.655083 256.742699,13.5971447 248.736031,14.5470605 L247.909795,4.06706948 C264.697709,-1.04762514 279.758733,-1.3381888 293.092866,3.19537849 C311.979794,9.61688019 306.098589,22.7567215 322.832907,29.2838764 C328.584957,31.527441 337.319811,34.4096491 349.037469,37.9305008 L346.531034,48.4895351 L362.31803,48.4895351 L350.332887,63.8598416 C357.187423,87.9064829 358.410757,108.483845 354.002887,125.591926 C350.292104,139.994433 335.993281,159.701623 319.292727,188.623594 C317.201211,192.245675 315.199123,198.58667 313.286461,207.646579 L303.355626,186.16025 C299.72037,207.415819 301.482184,222.959931 308.641067,232.792587 C315.799949,242.625243 333.692271,254.075894 362.31803,267.14454 C380.942221,257.856051 391.247502,248.603306 393.233873,239.386305 C393.969944,235.970849 394.922318,225.543632 390.747509,211.91864 C388.16169,203.479506 378.998718,196.415019 380.502821,177.171203 C381.107234,169.438211 388.174055,148.975121 402.633699,127.324333 C419.755966,101.686734 448.739119,80.4060402 451.315474,52.9136777 C452.334097,42.0439228 447.527344,26.4208942 433.040041,21.9081186 C429.870193,20.9207154 418.104701,20.9207154 411.153117,25.91065 C404.201532,30.9005847 403.128774,38.6975414 402.633699,42.0439228 C401.8974,47.0208237 402.404035,55.2844293 404.153605,66.8347396 L388.445192,54.9351475 C394.320118,81.5930762 395.916345,99.5855642 393.233873,108.912612 C390.551401,118.239659 381.777768,125.20326 366.912973,129.803414 C373.714234,117.440393 377.024512,107.9944 376.843808,101.465435 C376.570738,91.5992228 372.129427,84.528555 370.287564,74.767801 C368.598965,65.8192546 369.324746,54.1280995 372.583654,46.159328 C380.529035,26.7310615 399.942078,9.04421478 417.560233,5.95932882 C434.341038,3.02106034 450.397288,10.814923 458.171004,19.2363713 C460.641499,21.9127158 465.387417,28.6675364 466.371932,37.9305008 C466.806783,42.0218657 466.126784,49.3428024 464.331934,59.8933109 C467.501502,56.7187126 470.117467,52.6579312 472.179828,47.7109666 C474.242189,42.764002 476.724898,34.5946471 479.627954,23.202902 C483.007753,43.6915895 483.835323,57.5697165 482.110663,64.837283 C480.386004,72.1048495 474.459761,79.7120971 464.331934,87.6590258 C468.416789,88.4891876 472.749102,88.179343 477.328876,86.729492 C481.908649,85.279641 488.799024,82.0366401 498,77.0004893 C491.217311,94.0140693 485.093296,105.980335 479.627954,112.899285 C474.162613,119.818235 466.383459,125.452945 456.290491,129.803414 C462.390062,132.571988 467.686507,133.925117 472.179828,133.862801 C476.673149,133.800485 483.293706,132.282084 492.041499,129.307598 C485.09409,144.078222 478.473533,153.664005 472.179828,158.064946 C459.896167,166.654427 445.761893,168.609217 434.811338,173.361604 C425.679842,177.324544 418.902769,184.308816 415.941172,188.623594 C413.401803,192.323226 408.277782,199.465542 408.277782,207.646579 C408.277782,211.773219 411.087254,228.025025 408.277782,244.013936 C406.404801,254.673209 393.741395,266.813109 370.287564,280.433634 C373.066425,286.989297 374.724709,293.773804 375.262417,300.787156 C375.800125,307.800508 374.907204,318.367666 372.583654,332.48863 C380.627265,339.762144 386.681884,341.945237 390.747509,339.037909 C394.813135,336.13058 403.211023,328.658339 415.941172,316.621187 C416.619066,321.223063 419.144919,326.546766 423.518734,332.592296 C426.944319,337.327173 440.038154,352.135968 443.380405,365.509444 C446.439275,377.749015 439.904613,388.611303 439.904613,393.081889 C439.904613,399.318782 441.986076,405.823529 446.149001,412.596132 L417.560233,421.421766 C407.54711,433.436094 399.438323,441.81329 393.233873,446.553353 C387.029423,451.293417 376.724143,452.243849 362.31803,449.40465 L315.861012,446.553353 L335.739714,428.840032 C330.023274,427.852178 326.03269,427.852178 323.76796,428.840032 C316.259118,432.115319 307.619655,439.29624 303.355626,439.774877 C297.162497,440.470056 290.758454,438.623312 284.143496,434.234645 C300.792825,414.139978 313.308854,402.914912 321.691583,400.559446 C334.690402,396.906905 346.047699,406.702198 355.653472,409.152275 C367.364596,412.139349 376.179152,408.325133 378.508304,407.630723 C384.31495,405.899537 384.799599,390.3111 372.583654,384.038422 C355.215086,375.119961 316.682763,374.234219 311.979794,371.262888 C298.744603,362.900906 291.082135,352.159247 288.992393,339.037909 C271.890111,350.174243 259.643581,356.516562 252.252804,358.064867 C222.355093,364.32818 204.930626,358.064867 198.922619,365.509444 C192.914611,372.954022 189.678274,384.562635 201.068021,393.081889 C204.763153,395.845758 218.91739,390.90067 232.321383,393.081889 C238.597005,394.103116 243.468216,397.832034 246.935016,404.268643 L224.902026,417.872706 C233.870717,416.964486 240.488622,416.964486 244.755742,417.872706 C249.022862,418.780926 253.747471,421.195084 258.929567,425.115179 C248.709827,427.001986 240.544043,429.23094 234.432216,431.802043 C228.320388,434.373145 221.934804,438.265609 215.275464,443.479436 L83.6303698,446.553353 L108.809327,421.421766 C98.3989509,427.167527 90.0059652,430.627619 83.6303698,431.802043 C79.0893952,432.638518 73.4284183,429.195104 64.813668,428.840032 C62.4933439,428.744395 58.3747522,429.731732 52.4578929,431.802043 C63.1088926,413.047053 77.8483028,402.632854 96.6761235,400.559446 C124.917855,397.449335 152.050645,417.236817 158.514486,415.010297 C169.755411,411.138274 166.4495,399.046482 164.974998,397.449335 C156.364409,388.122542 146.692521,385.507413 130.184596,376.423687 C113.67667,367.339961 110.893728,355.828493 108.809327,350.030088 C103.218635,334.477854 106.739029,318.615574 119.370508,302.443249 C131.487882,294.582838 146.689379,291.996873 164.974998,294.685353 C183.260616,297.373834 211.180961,306.299875 248.736031,321.463477 C254.815737,324.691671 260.564265,324.691671 265.981615,321.463477 C271.398965,318.235284 274.10764,314.468903 274.10764,310.164334 C274.10764,304.031266 270.509682,298.871606 263.313766,294.685353 C250.999209,287.521312 230.674614,283.801692 223.908943,277.95491 C216.220143,271.310376 207.819945,264.290918 202.562208,249.986588 C200.135815,243.385282 195.217654,238.584875 187.807725,235.585367 C182.395052,232.612521 176.132585,234.738245 169.020323,241.962541 C161.908062,249.186837 161.908062,260.515371 169.020323,275.948144 C158.606782,256.074557 145.661539,245.429821 130.184596,244.013936 C118.657966,242.959439 109.015352,249.389782 96.6761235,255.310514 C93.8569226,256.663251 88.8169622,257.769573 81.5562425,258.629481 C83.6470596,254.415376 84.3384354,251.008596 83.6303698,248.409143 C82.9223042,245.809689 80.2983853,242.121708 75.758613,237.345199 C68.8445808,236.044001 64.1761021,236.044001 61.7531771,237.345199 C55.0725152,240.932954 51.6342476,250.247418 47.4526348,251.540132 C40.9961572,253.536104 32.4748789,254.35561 21.8887998,253.99865 C19.5291862,248.186083 19.5291862,242.634932 21.8887998,237.345199 C24.2484134,232.055465 30.2161796,224.2282 39.7920984,213.863402 C36.8715717,217.651915 32.7003395,219.546171 27.2784018,219.546171 C23.6104024,219.546171 22.2965795,213.652516 15.3744418,211.91864 C13.1677887,211.365911 8.04297474,211.365911 0,211.91864 C7.50676383,205.010101 13.6359214,200.280638 18.3874726,197.730253 C23.1390238,195.179867 31.1107729,193.051065 42.3027197,191.343846 C35.9837067,188.247486 30.4845766,186.519621 25.8053294,186.16025 C21.1260821,185.80088 14.8187098,186.621995 6.88321227,188.623594 C13.3373475,179.575411 19.6447199,173.818867 25.8053294,171.353963 C31.9659389,168.889059 43.1853636,168.254057 59.4636035,169.448959 C66.2147848,177.738347 71.6464547,183.308778 75.758613,186.16025 C79.8707714,189.011723 84.9641011,190.739588 91.0386023,191.343846 C102.885752,189.041492 109.902277,182.378197 112.088177,171.353963 C114.274078,160.329728 111.447169,149.62058 103.607452,139.226519 L89.4344562,155.871697 C83.2792099,152.982156 80.6531387,145.645857 81.5562425,133.862801 C82.1302324,126.373789 91.6048724,115.866284 95.0953687,103.933363 C96.4296208,99.3719697 96.4296208,92.6250138 95.0953687,83.6924951 C89.2183622,78.0662432 84.7053202,75.1978818 81.5562425,75.0874108 C75.8684624,74.8878811 68.4550287,81.3443161 64.813668,80.717597 C58.1482118,79.5703972 48.450193,76.5954992 35.7196119,71.792903 Z" id="Path-19" stroke="#6568A8" stroke-width="6"></path>
                <path d="M198.007514,43.9722502 C190.094182,40.0092499 183.855126,40.0092499 179.290347,43.9722502 C170.253895,51.8174173 171.578656,68.5748698 179.290347,74.8050696 C182.475157,77.3780466 192.922104,81.2282923 204.629502,79.6190542 C214.312727,78.2880485 225.793385,72.0870562 239.075015,71.1951545 C246.787861,70.6772135 255.429523,73.0668137 265,78.3639551" id="Path-20" stroke="#6568A8" stroke-width="5" stroke-linecap="round"></path>
            </g>
            <g id="lyon-dots" transform="translate(84.000000, 156.000000)" fill="#6ED3F0" fill-rule="nonzero">
                <circle id="Oval" cx="253" cy="10" r="10"></circle>
                <circle id="Oval" cx="374" cy="131" r="8"></circle>
                <circle id="Oval" cx="381.5" cy="94.5" r="5.5"></circle>
                <circle id="Oval" cx="375.5" cy="69.5" r="5.5"></circle>
                <circle id="Oval" cx="361.5" cy="114.5" r="9.5"></circle>
                <circle id="Oval" cx="411" cy="69" r="10"></circle>
                <circle id="Oval" cx="393.5" cy="55.5" r="5.5"></circle>
                <circle id="Oval" cx="455.5" cy="17.5" r="5.5"></circle>
                <circle id="Oval" cx="416.5" cy="9.5" r="5.5"></circle>
                <circle id="Oval" cx="391.5" cy="23.5" r="5.5"></circle>
                <circle id="Oval" cx="488" cy="25" r="10"></circle>
                <circle id="Oval" cx="467.5" cy="62.5" r="5.5"></circle>
                <circle id="Oval" cx="466.5" cy="91.5" r="8.5"></circle>
                <circle id="Oval" cx="427" cy="106" r="6"></circle>
                <circle id="Oval" cx="505" cy="77" r="8"></circle>
                <circle id="Oval" cx="499.5" cy="129.5" r="11.5"></circle>
                <circle id="Oval" cx="461.5" cy="130.5" r="6.5"></circle>
                <circle id="Oval" cx="397.5" cy="151.5" r="8.5"></circle>
                <circle id="Oval" cx="353.5" cy="37.5" r="8.5"></circle>
                <circle id="Oval" cx="353.5" cy="63.5" r="5.5"></circle>
                <circle id="Oval" cx="307.5" cy="189.5" r="17.5"></circle>
                <circle id="Oval" cx="161.5" cy="155.5" r="12.5"></circle>
                <circle id="Oval" cx="95" cy="156" r="8"></circle>
                <circle id="Oval" cx="113" cy="137" r="10"></circle>
                <circle id="Oval" cx="96.5" cy="119.5" r="8.5"></circle>
                <circle id="Oval" cx="161" cy="83" r="8"></circle>
                <circle id="Oval" cx="203.5" cy="41.5" r="8.5"></circle>
                <circle id="Oval" cx="220" cy="30" r="6"></circle>
                <circle id="Oval" cx="231.5" cy="58.5" r="5.5"></circle>
                <circle id="Oval" cx="276.5" cy="77.5" r="8.5"></circle>
                <circle id="Oval" cx="295" cy="42" r="10"></circle>
                <circle id="Oval" cx="260.5" cy="91.5" r="4.5"></circle>
                <circle id="Oval" cx="206" cy="125" r="8"></circle>
                <circle id="Oval" cx="79" cy="21" r="6"></circle>
                <circle id="Oval" cx="60.5" cy="37.5" r="8.5"></circle>
                <circle id="Oval" cx="104" cy="41" r="6"></circle>
                <circle id="Oval" cx="89.5" cy="58.5" r="5.5"></circle>
                <circle id="Oval" cx="42" cy="71" r="10"></circle>
                <circle id="Oval" cx="17" cy="190" r="6"></circle>
                <circle id="Oval" cx="47" cy="190" r="8"></circle>
                <circle id="Oval" cx="30" cy="251" r="10"></circle>
                <circle id="Oval" cx="101" cy="192" r="8"></circle>
                <circle id="Oval" cx="160" cy="296" r="12"></circle>
                <circle id="Oval" cx="191" cy="236" r="12"></circle>
                <circle id="Oval" cx="235.5" cy="274.5" r="15.5"></circle>
                <circle id="Oval" cx="248" cy="129" r="8"></circle>
                <circle id="Oval" cx="295.5" cy="338.5" r="13.5"></circle>
                <circle id="Oval" cx="259.5" cy="356.5" r="5.5"></circle>
                <circle id="Oval" cx="383.5" cy="285.5" r="12.5"></circle>
                <circle id="Oval" cx="364" cy="265" r="8"></circle>
                <circle id="Oval" cx="431" cy="335" r="10"></circle>
                <circle id="Oval" cx="377" cy="332" r="8"></circle>
                <circle id="Oval" cx="383.5" cy="384.5" r="8.5"></circle>
                <circle id="Oval" cx="449.5" cy="410.5" r="10.5"></circle>
                <circle id="Oval" cx="339.5" cy="429.5" r="8.5"></circle>
                <circle id="Oval" cx="322.5" cy="448.5" r="5.5"></circle>
                <circle id="Oval" cx="291.5" cy="433.5" r="10.5"></circle>
                <circle id="Oval" cx="111" cy="425" r="10"></circle>
                <circle id="Oval" cx="60.5" cy="429.5" r="6.5"></circle>
                <circle id="Oval" cx="175.5" cy="399.5" r="8.5"></circle>
                <circle id="Oval" cx="195" cy="377" r="10"></circle>
                <circle id="Oval" cx="118" cy="326" r="10"></circle>
                <circle id="Oval" cx="265" cy="427" r="8"></circle>
                <circle id="Oval" cx="221" cy="440" r="10"></circle>
            </g>
            <text id="Lyon-P2P" stroke="#383B62" stroke-width="5" font-family="CourierNewPS-BoldMT, Courier New" font-size="122" font-weight="bold" fill="#383B62">
                <tspan x="66.2548828" y="411">Lyon</tspan>
                <tspan x="359.102539" y="411" font-size="79"> </tspan>
                <tspan x="406.510254" y="411">P</tspan>
                <tspan x="479.722168" y="411" font-size="113">2</tspan>
                <tspan x="547.533203" y="411">P</tspan>
            </text>
            <text id="Lyon-P2P" font-family="CourierNewPS-BoldMT, Courier New" font-size="122" font-weight="bold" fill="#FFFFFF">
                <tspan x="66.2548828" y="411">Lyon</tspan>
                <tspan x="359.102539" y="411" font-size="79"> </tspan>
                <tspan x="406.510254" y="411">P</tspan>
                <tspan x="479.722168" y="411" font-size="113">2</tspan>
                <tspan x="547.533203" y="411">P</tspan>
            </text>
        </g>
    </g>
</svg>