<svg xmlns="http://www.w3.org/2000/svg" xmlns:xlink="http://www.w3.org/1999/xlink" width="790" height="790" version="1.1" viewBox="0 0 790 790"><title>france_p2p_blue</title><desc>Created with Sketch.</desc><g id="Page-1" fill="none" fill-rule="evenodd" stroke="none" stroke-width="1"><g id="france-p2p-blue" transform="translate(56.000000, 12.000000)"><path id="hexagon" fill="#525BEC" stroke="#525BEC" stroke-linejoin="round" stroke-width="18" d="M329.534514,5.77871487 L17.9966373,185.725851 C11.8105108,189.299014 8,195.900492 8,203.044417 L8,562.956263 C8,570.099823 11.8101252,576.701023 17.9957536,580.274319 L329.495754,760.220775 C335.685933,763.7967 343.314067,763.7967 349.504246,760.220775 L661.004246,580.274319 C667.189875,576.701023 671,570.099823 671,562.956263 L671,203.043056 C671,195.899861 667.190261,189.298941 661.00513,185.725511 L349.543007,5.77973589 C343.35301,2.20349427 335.724876,2.20310501 329.534514,5.77871487 Z"/><polyline id="Path-31" stroke="#6A73FA" stroke-linecap="round" stroke-linejoin="round" stroke-width="8" points="261 611.733 486 624 446.46 443.774 313.249 193.251 349.494 72"/><polygon id="Path-33" stroke="#6A73FA" stroke-linecap="round" stroke-linejoin="round" stroke-width="8" points="314 194.006 89 310 158.811 305.304 105.981 240.497 173.906 165.359 205.038 140 239 149.392"/><polyline id="Path-32" stroke="#6A73FA" stroke-linecap="round" stroke-linejoin="round" stroke-width="8" points="313.191 194 221.322 319.623 145 505 354.179 439.13 418.252 473.947 446.52 443.835 455 319.623"/><polyline id="Path-35" stroke="#6A73FA" stroke-linecap="round" stroke-linejoin="round" stroke-width="8" points="596 198.069 517.283 168 508.849 201.828 576.321 283.578 447 441.44 506.038 495"/><polyline id="Path-36" stroke="#6A73FA" stroke-linecap="round" stroke-linejoin="round" stroke-width="8" points="400 168 313.51 193.649 307 265"/><path id="Path-37" stroke="#6A73FA" stroke-linecap="round" stroke-linejoin="round" stroke-width="8" d="M314,194 L222,320"/><polyline id="Path-34" stroke="#6A73FA" stroke-linecap="round" stroke-linejoin="round" stroke-width="8" points="588 590.151 486.307 626 459 576"/><polyline id="Path-38" stroke="#6A73FA" stroke-linecap="round" stroke-linejoin="round" stroke-width="8" points="89 310 118.241 405 222 319.5"/><path id="Path-39" stroke="#6A73FA" stroke-linecap="round" stroke-linejoin="round" stroke-width="8" d="M314,194 L173,165"/><polygon id="Path-40" stroke="#6A73FA" stroke-linecap="round" stroke-linejoin="round" stroke-width="8" points="314 192 508.629 201.485 576 284"/><polyline id="Path-41" stroke="#6A73FA" stroke-linecap="round" stroke-linejoin="round" stroke-width="8" points="394 601 486.4 623.556 526 630"/><polyline id="Path-42" stroke="#6A73FA" stroke-linecap="round" stroke-linejoin="round" stroke-width="8" points="144 504.729 163.276 616 261.537 609.897 354.627 439 394.119 600.037 418.567 473.743 459 575.154"/><path id="Path-43" stroke="#6A73FA" stroke-linecap="round" stroke-linejoin="round" stroke-width="8" d="M350,85 L313,64"/><g id="dots" fill="#888FFF" transform="translate(74.000000, 54.000000)"><path id="hexagon" d="M410.060706,548.654484 L396.058696,556.529686 C394.169286,557.592354 393,559.59154 393,561.759288 L393,577.240915 C393,579.408555 394.169171,581.407659 396.058433,582.470368 L410.058433,590.345368 C411.884914,591.372764 414.115086,591.372764 415.941567,590.345368 L429.941567,582.470368 C431.830829,581.407659 433,579.408555 433,577.240915 L433,561.758882 C433,559.59135 431.830945,557.592329 429.941831,556.529577 L415.94384,548.65478 C414.117411,547.627292 411.887238,547.62718 410.060706,548.654484 Z"/><path id="hexagon" d="M370.060706,368.654484 L356.058696,376.529686 C354.169286,377.592354 353,379.59154 353,381.759288 L353,397.240915 C353,399.408555 354.169171,401.407659 356.058433,402.470368 L370.058433,410.345368 C371.884914,411.372764 374.115086,411.372764 375.941567,410.345368 L389.941567,402.470368 C391.830829,401.407659 393,399.408555 393,397.240915 L393,381.758882 C393,379.59135 391.830945,377.592329 389.941831,376.529577 L375.94384,368.65478 C374.117411,367.627292 371.887238,367.62718 370.060706,368.654484 Z"/><path id="hexagon" d="M273.060706,1.65448363 L259.058696,9.52968629 C257.169286,10.592354 256,12.5915396 256,14.7592876 L256,30.2409151 C256,32.408555 257.169171,34.4076585 259.058433,35.4703683 L273.058433,43.3453683 C274.884914,44.372764 277.115086,44.372764 278.941567,43.3453683 L292.941567,35.4703683 C294.830829,34.4076585 296,32.408555 296,30.2409151 L296,14.7588822 C296,12.5913504 294.830945,10.592329 292.941831,9.52957709 L278.94384,1.6547798 C277.117411,0.627292128 274.887238,0.627179858 273.060706,1.65448363 Z"/><path id="hexagon" d="M67.043607,435.676093 L58.0421883,440.776296 C56.1620455,441.841585 55,443.835612 55,445.996579 L55,456.003624 C55,458.164482 56.1619299,460.158427 58.0419246,461.223757 L67.0419246,466.323757 C68.8769055,467.36358 71.1230945,467.36358 72.9580754,466.323757 L81.9580754,461.223757 C83.8380701,460.158427 85,458.164482 85,456.003624 L85,445.996173 C85,443.835423 83.8381857,441.841561 81.9583392,440.776189 L72.9597579,435.676392 C71.1248296,434.636477 68.8786405,434.636363 67.043607,435.676093 Z"/><path id="hexagon" d="M185.043607,541.676093 L176.042188,546.776296 C174.162046,547.841585 173,549.835612 173,551.996579 L173,562.003624 C173,564.164482 174.16193,566.158427 176.041925,567.223757 L185.041925,572.323757 C186.876905,573.36358 189.123095,573.36358 190.958075,572.323757 L199.958075,567.223757 C201.83807,566.158427 203,564.164482 203,562.003624 L203,551.996173 C203,549.835423 201.838186,547.841561 199.958339,546.776189 L190.959758,541.676392 C189.12483,540.636477 186.878641,540.636363 185.043607,541.676093 Z"/><path id="hexagon" d="M512.56977,523.64156 L506.068643,527.281763 C504.173655,528.342831 503,530.345116 503,532.516946 L503,539.483257 C503,541.654978 504.173539,543.657182 506.06838,544.718293 L512.56838,548.358293 C514.389722,549.378245 516.610278,549.378245 518.43162,548.358293 L524.93162,544.718293 C526.826461,543.657182 528,541.654978 528,539.483257 L528,532.516541 C528,530.344927 526.826576,528.342805 524.931883,527.281652 L518.43301,523.641855 C516.611719,522.621811 514.391164,522.6217 512.56977,523.64156 Z"/><path id="hexagon" d="M12.043607,240.676093 L3.04218834,245.776296 C1.16204551,246.841585 1.51171474e-15,248.835612 0,250.996579 L0,261.003624 C3.00059952e-15,263.164482 1.1619299,265.158427 3.04192457,266.223757 L12.0419246,271.323757 C13.8769055,272.36358 16.1230945,272.36358 17.9580754,271.323757 L26.9580754,266.223757 C28.8380701,265.158427 30,263.164482 30,261.003624 L30,250.996173 C30,248.835423 28.8381857,246.841561 26.9583392,245.776189 L17.9597579,240.676392 C16.1248296,239.636477 13.8786405,239.636363 12.043607,240.676093 Z"/><path id="hexagon" d="M162.693603,87.4860948 L160.192932,88.8098234 C158.228607,89.8496378 157,91.8901241 157,94.1126876 L157,95.8875115 C157,98.10997 158.228492,100.150378 160.192674,101.190239 L162.692674,102.513768 C164.448767,103.443465 166.551233,103.443465 168.307326,102.513768 L170.807326,101.190239 C172.771508,100.150378 174,98.10997 174,95.8875115 L174,94.1122893 C174,91.8899358 172.771623,89.8496063 170.807585,88.8096986 L168.308255,87.4863684 C166.552207,86.5565861 164.449742,86.5564837 162.693603,87.4860948 Z"/><path id="hexagon" d="M236.693603,1.48609484 L234.192932,2.80982336 C232.228607,3.84963784 231,5.89012413 231,8.11268761 L231,9.88751151 C231,12.10997 232.228492,14.1503779 234.192674,15.190239 L236.692674,16.5137684 C238.448767,17.4434651 240.551233,17.4434651 242.307326,16.5137684 L244.807326,15.190239 C246.771508,14.1503779 248,12.10997 248,9.88751151 L248,8.11228934 C248,5.88993577 246.771623,3.84960627 244.807585,2.80969863 L242.308255,1.48636838 C240.552207,0.556586138 238.449742,0.556483711 236.693603,1.48609484 Z"/><path id="hexagon" d="M128.693603,77.4860948 L126.192932,78.8098234 C124.228607,79.8496378 123,81.8901241 123,84.1126876 L123,85.8875115 C123,88.10997 124.228492,90.1503779 126.192674,91.190239 L128.692674,92.5137684 C130.448767,93.4434651 132.551233,93.4434651 134.307326,92.5137684 L136.807326,91.190239 C138.771508,90.1503779 140,88.10997 140,85.8875115 L140,84.1122893 C140,81.8899358 138.771623,79.8496063 136.807585,78.8096986 L134.308255,77.4863684 C132.552207,76.5565861 130.449742,76.5564837 128.693603,77.4860948 Z"/><path id="hexagon" d="M96.6936027,103.486095 L94.192932,104.809823 C92.2286066,105.849638 91,107.890124 91,110.112688 L91,111.887512 C91,114.10997 92.2284917,116.150378 94.1926737,117.190239 L96.6926737,118.513768 C98.4487674,119.443465 100.551233,119.443465 102.307326,118.513768 L104.807326,117.190239 C106.771508,116.150378 108,114.10997 108,111.887512 L108,110.112289 C108,107.889936 106.771623,105.849606 104.807585,104.809699 L102.308255,103.486368 C100.552207,102.556586 98.4497417,102.556484 96.6936027,103.486095 Z"/><path id="hexagon" d="M229.693603,204.486095 L227.192932,205.809823 C225.228607,206.849638 224,208.890124 224,211.112688 L224,212.887512 C224,215.10997 225.228492,217.150378 227.192674,218.190239 L229.692674,219.513768 C231.448767,220.443465 233.551233,220.443465 235.307326,219.513768 L237.807326,218.190239 C239.771508,217.150378 241,215.10997 241,212.887512 L241,211.112289 C241,208.889936 239.771623,206.849606 237.807585,205.809699 L235.308255,204.486368 C233.552207,203.556586 231.449742,203.556484 229.693603,204.486095 Z"/><path id="hexagon" d="M144.693603,257.486095 L142.192932,258.809823 C140.228607,259.849638 139,261.890124 139,264.112688 L139,265.887512 C139,268.10997 140.228492,270.150378 142.192674,271.190239 L144.692674,272.513768 C146.448767,273.443465 148.551233,273.443465 150.307326,272.513768 L152.807326,271.190239 C154.771508,270.150378 156,268.10997 156,265.887512 L156,264.112289 C156,261.889936 154.771623,259.849606 152.807585,258.809699 L150.308255,257.486368 C148.552207,256.556586 146.449742,256.556484 144.693603,257.486095 Z"/><path id="hexagon" d="M277.693603,377.486095 L275.192932,378.809823 C273.228607,379.849638 272,381.890124 272,384.112688 L272,385.887512 C272,388.10997 273.228492,390.150378 275.192674,391.190239 L277.692674,392.513768 C279.448767,393.443465 281.551233,393.443465 283.307326,392.513768 L285.807326,391.190239 C287.771508,390.150378 289,388.10997 289,385.887512 L289,384.112289 C289,381.889936 287.771623,379.849606 285.807585,378.809699 L283.308255,377.486368 C281.552207,376.556586 279.449742,376.556484 277.693603,377.486095 Z"/><path id="hexagon" d="M378.693603,257.486095 L376.192932,258.809823 C374.228607,259.849638 373,261.890124 373,264.112688 L373,265.887512 C373,268.10997 374.228492,270.150378 376.192674,271.190239 L378.692674,272.513768 C380.448767,273.443465 382.551233,273.443465 384.307326,272.513768 L386.807326,271.190239 C388.771508,270.150378 390,268.10997 390,265.887512 L390,264.112289 C390,261.889936 388.771623,259.849606 386.807585,258.809699 L384.308255,257.486368 C382.552207,256.556586 380.449742,256.556484 378.693603,257.486095 Z"/><path id="hexagon" d="M500.693603,221.486095 L498.192932,222.809823 C496.228607,223.849638 495,225.890124 495,228.112688 L495,229.887512 C495,232.10997 496.228492,234.150378 498.192674,235.190239 L500.692674,236.513768 C502.448767,237.443465 504.551233,237.443465 506.307326,236.513768 L508.807326,235.190239 C510.771508,234.150378 512,232.10997 512,229.887512 L512,228.112289 C512,225.889936 510.771623,223.849606 508.807585,222.809699 L506.308255,221.486368 C504.552207,220.556586 502.449742,220.556484 500.693603,221.486095 Z"/><path id="hexagon" d="M432.693603,140.486095 L430.192932,141.809823 C428.228607,142.849638 427,144.890124 427,147.112688 L427,148.887512 C427,151.10997 428.228492,153.150378 430.192674,154.190239 L432.692674,155.513768 C434.448767,156.443465 436.551233,156.443465 438.307326,155.513768 L440.807326,154.190239 C442.771508,153.150378 444,151.10997 444,148.887512 L444,147.112289 C444,144.889936 442.771623,142.849606 440.807585,141.809699 L438.308255,140.486368 C436.552207,139.556586 434.449742,139.556484 432.693603,140.486095 Z"/><path id="hexagon" d="M323.693603,105.486095 L321.192932,106.809823 C319.228607,107.849638 318,109.890124 318,112.112688 L318,113.887512 C318,116.10997 319.228492,118.150378 321.192674,119.190239 L323.692674,120.513768 C325.448767,121.443465 327.551233,121.443465 329.307326,120.513768 L331.807326,119.190239 C333.771508,118.150378 335,116.10997 335,113.887512 L335,112.112289 C335,109.889936 333.771623,107.849606 331.807585,106.809699 L329.308255,105.486368 C327.552207,104.556586 325.449742,104.556484 323.693603,105.486095 Z"/><path id="hexagon" d="M80.6936027,244.486095 L78.192932,245.809823 C76.2286066,246.849638 75,248.890124 75,251.112688 L75,252.887512 C75,255.10997 76.2284917,257.150378 78.1926737,258.190239 L80.6926737,259.513768 C82.4487674,260.443465 84.5512326,260.443465 86.3073263,259.513768 L88.8073263,258.190239 C90.7715083,257.150378 92,255.10997 92,252.887512 L92,251.112289 C92,248.889936 90.7716233,246.849606 88.8075847,245.809699 L86.3082554,244.486368 C84.5522069,243.556586 82.4497417,243.556484 80.6936027,244.486095 Z"/><path id="hexagon" d="M28.6936027,178.486095 L26.192932,179.809823 C24.2286066,180.849638 23,182.890124 23,185.112688 L23,186.887512 C23,189.10997 24.2284917,191.150378 26.1926737,192.190239 L28.6926737,193.513768 C30.4487674,194.443465 32.5512326,194.443465 34.3073263,193.513768 L36.8073263,192.190239 C38.7715083,191.150378 40,189.10997 40,186.887512 L40,185.112289 C40,182.889936 38.7716233,180.849606 36.8075847,179.809699 L34.3082554,178.486368 C32.5522069,177.556586 30.4497417,177.556484 28.6936027,178.486095 Z"/><path id="hexagon" d="M41.6936027,342.486095 L39.192932,343.809823 C37.2286066,344.849638 36,346.890124 36,349.112688 L36,350.887512 C36,353.10997 37.2284917,355.150378 39.1926737,356.190239 L41.6926737,357.513768 C43.4487674,358.443465 45.5512326,358.443465 47.3073263,357.513768 L49.8073263,356.190239 C51.7715083,355.150378 53,353.10997 53,350.887512 L53,349.112289 C53,346.889936 51.7716233,344.849606 49.8075847,343.809699 L47.3082554,342.486368 C45.5522069,341.556586 43.4497417,341.556484 41.6936027,342.486095 Z"/><path id="hexagon" d="M85.619271,552.578034 L81.1183734,555.04252 C79.1955613,556.095365 78,558.113053 78,560.305241 L78,564.69496 C78,566.887041 79.1954459,568.904649 81.1181123,569.957538 L85.6181123,572.421823 C87.4135755,573.405053 89.5864245,573.405053 91.3818877,572.421823 L95.8818877,569.957538 C97.8045541,568.904649 99,566.887041 99,564.69496 L99,560.304839 C99,558.112864 97.8046694,556.095337 95.882149,555.042404 L91.3830465,552.57832 C89.587632,551.595001 87.414783,551.594893 85.619271,552.578034 Z"/><path id="hexagon" d="M317.693603,539.486095 L315.192932,540.809823 C313.228607,541.849638 312,543.890124 312,546.112688 L312,547.887512 C312,550.10997 313.228492,552.150378 315.192674,553.190239 L317.692674,554.513768 C319.448767,555.443465 321.551233,555.443465 323.307326,554.513768 L325.807326,553.190239 C327.771508,552.150378 329,550.10997 329,547.887512 L329,546.112289 C329,543.889936 327.771623,541.849606 325.807585,540.809699 L323.308255,539.486368 C321.552207,538.556586 319.449742,538.556484 317.693603,539.486095 Z"/><path id="hexagon" d="M381.693603,513.486095 L379.192932,514.809823 C377.228607,515.849638 376,517.890124 376,520.112688 L376,521.887512 C376,524.10997 377.228492,526.150378 379.192674,527.190239 L381.692674,528.513768 C383.448767,529.443465 385.551233,529.443465 387.307326,528.513768 L389.807326,527.190239 C391.771508,526.150378 393,524.10997 393,521.887512 L393,520.112289 C393,517.889936 391.771623,515.849606 389.807585,514.809699 L387.308255,513.486368 C385.552207,512.556586 383.449742,512.556484 381.693603,513.486095 Z"/><path id="hexagon" d="M448.693603,568.486095 L446.192932,569.809823 C444.228607,570.849638 443,572.890124 443,575.112688 L443,576.887512 C443,579.10997 444.228492,581.150378 446.192674,582.190239 L448.692674,583.513768 C450.448767,584.443465 452.551233,584.443465 454.307326,583.513768 L456.807326,582.190239 C458.771508,581.150378 460,579.10997 460,576.887512 L460,575.112289 C460,572.889936 458.771623,570.849606 456.807585,569.809699 L454.308255,568.486368 C452.552207,567.556586 450.449742,567.556484 448.693603,568.486095 Z"/><path id="hexagon" d="M429.693603,434.486095 L427.192932,435.809823 C425.228607,436.849638 424,438.890124 424,441.112688 L424,442.887512 C424,445.10997 425.228492,447.150378 427.192674,448.190239 L429.692674,449.513768 C431.448767,450.443465 433.551233,450.443465 435.307326,449.513768 L437.807326,448.190239 C439.771508,447.150378 441,445.10997 441,442.887512 L441,441.112289 C441,438.889936 439.771623,436.849606 437.807585,435.809699 L435.308255,434.486368 C433.552207,433.556586 431.449742,433.556484 429.693603,434.486095 Z"/><path id="hexagon" d="M341.693603,412.486095 L339.192932,413.809823 C337.228607,414.849638 336,416.890124 336,419.112688 L336,420.887512 C336,423.10997 337.228492,425.150378 339.192674,426.190239 L341.692674,427.513768 C343.448767,428.443465 345.551233,428.443465 347.307326,427.513768 L349.807326,426.190239 C351.771508,425.150378 353,423.10997 353,420.887512 L353,419.112289 C353,416.889936 351.771623,414.849606 349.807585,413.809699 L347.308255,412.486368 C345.552207,411.556586 343.449742,411.556484 341.693603,412.486095 Z"/><path id="hexagon" d="M519.693603,136.486095 L517.192932,137.809823 C515.228607,138.849638 514,140.890124 514,143.112688 L514,144.887512 C514,147.10997 515.228492,149.150378 517.192674,150.190239 L519.692674,151.513768 C521.448767,152.443465 523.551233,152.443465 525.307326,151.513768 L527.807326,150.190239 C529.771508,149.150378 531,147.10997 531,144.887512 L531,143.112289 C531,140.889936 529.771623,138.849606 527.807585,137.809699 L525.308255,136.486368 C523.552207,135.556586 521.449742,135.556484 519.693603,136.486095 Z"/><path id="hexagon" d="M440.693603,105.486095 L438.192932,106.809823 C436.228607,107.849638 435,109.890124 435,112.112688 L435,113.887512 C435,116.10997 436.228492,118.150378 438.192674,119.190239 L440.692674,120.513768 C442.448767,121.443465 444.551233,121.443465 446.307326,120.513768 L448.807326,119.190239 C450.771508,118.150378 452,116.10997 452,113.887512 L452,112.112289 C452,109.889936 450.771623,107.849606 448.807585,106.809699 L446.308255,105.486368 C444.552207,104.556586 442.449742,104.556484 440.693603,105.486095 Z"/><path id="hexagon" d="M236.031641,112.693444 L217.029046,123.523647 C215.156289,124.590993 214,126.5809 214,128.736461 L214,150.263742 C214,152.419195 215.156174,154.409019 217.028782,155.476406 L236.028782,166.306406 C237.870504,167.356187 240.129496,167.356187 241.971218,166.306406 L260.971218,155.476406 C262.843826,154.409019 264,152.419195 264,150.263742 L264,128.736055 C264,126.580711 262.843942,124.590969 260.971482,123.523542 L241.974078,112.693745 C240.132408,111.64387 237.873417,111.643755 236.031641,112.693444 Z"/></g><text id="France-P2P" fill="#FFF" font-family="CourierNewPS-BoldMT, Courier New" font-size="101" font-weight="bold"><tspan x="50.853" y="411">France</tspan> <tspan x="414.512" y="411" font-size="62"> </tspan> <tspan x="451.718" y="411">P</tspan> <tspan x="512.328" y="411" font-size="92">2</tspan> <tspan x="567.537" y="411">P</tspan></text></g></g></svg>