<svg xmlns="http://www.w3.org/2000/svg" xmlns:xlink="http://www.w3.org/1999/xlink" width="790" height="790" version="1.1" viewBox="0 0 790 790"><title>france_p2p_white</title><desc>Created with Sketch.</desc><g id="Page-1" fill="none" fill-rule="evenodd" stroke="none" stroke-width="1"><g id="france-p2p-white" transform="translate(56.000000, 12.000000)"><path id="hexagon" fill="#FFF" stroke="#383B62" stroke-linejoin="round" stroke-width="15" d="M329.534514,5.77871487 L17.9966373,185.725851 C11.8105108,189.299014 8,195.900492 8,203.044417 L8,562.956263 C8,570.099823 11.8101252,576.701023 17.9957536,580.274319 L329.495754,760.220775 C335.685933,763.7967 343.314067,763.7967 349.504246,760.220775 L661.004246,580.274319 C667.189875,576.701023 671,570.099823 671,562.956263 L671,203.043056 C671,195.899861 667.190261,189.298941 661.00513,185.725511 L349.543007,5.77973589 C343.35301,2.20349427 335.724876,2.20310501 329.534514,5.77871487 Z"/><polyline id="Path-31" stroke="#F3F3FF" stroke-linecap="round" stroke-linejoin="round" stroke-width="8" points="261 612.733 487 625 447.285 444.774 313.481 194.251 349.887 73" opacity=".511"/><polygon id="Path-33" stroke="#F3F3FF" stroke-linecap="round" stroke-linejoin="round" stroke-width="8" points="313 194.323 88 311 157.811 306.276 104.981 241.088 172.906 165.508 204.038 140 238 149.448" opacity=".511"/><polyline id="Path-32" stroke="#F3F3FF" stroke-linecap="round" stroke-linejoin="round" stroke-width="8" points="313.191 194 221.322 320.027 145 506 354.179 439.918 418.252 474.847 446.52 444.638 455 320.027" opacity=".511"/><polyline id="Path-35" stroke="#F3F3FF" stroke-linecap="round" stroke-linejoin="round" stroke-width="8" points="597 198.253 517.755 168 509.264 202.034 577.189 284.284 447 443.112 506.434 497" opacity=".511"/><polyline id="Path-36" stroke="#F3F3FF" stroke-linecap="round" stroke-linejoin="round" stroke-width="8" points="401 168 312.65 193.913 306 266" opacity=".511"/><path id="Path-37" stroke="#F3F3FF" stroke-linecap="round" stroke-linejoin="round" stroke-width="8" d="M313,194 L221,320" opacity=".511"/><polyline id="Path-34" stroke="#F3F3FF" stroke-linecap="round" stroke-linejoin="round" stroke-width="8" points="589 591.151 486.518 627 459 577" opacity=".511"/><polyline id="Path-38" stroke="#F3F3FF" stroke-linecap="round" stroke-linejoin="round" stroke-width="8" points="88 311 117.241 405 221 320.4" opacity=".511"/><path id="Path-39" stroke="#F3F3FF" stroke-linecap="round" stroke-linejoin="round" stroke-width="8" d="M313,194 L173,165" opacity=".511"/><polygon id="Path-40" stroke="#F3F3FF" stroke-linecap="round" stroke-linejoin="round" stroke-width="8" points="313 193 509.114 202.381 577 284" opacity=".511"/><polyline id="Path-41" stroke="#F3F3FF" stroke-linecap="round" stroke-linejoin="round" stroke-width="8" points="394 602 486.4 625.333 526 632" opacity=".511"/><polyline id="Path-42" stroke="#F3F3FF" stroke-linecap="round" stroke-linejoin="round" stroke-width="8" points="143 506.101 162.337 618 260.91 611.862 354.296 440 393.913 601.947 418.439 474.939 459 576.923" opacity=".511"/><path id="Path-43" stroke="#F3F3FF" stroke-linecap="round" stroke-linejoin="round" stroke-width="8" d="M350,85.4642857 L312,63" opacity=".511"/><g id="dots" fill="#E9EBFF" transform="translate(73.000000, 54.000000)"><path id="hexagon" d="M411.060706,550.654484 L397.058696,558.529686 C395.169286,559.592354 394,561.59154 394,563.759288 L394,579.240915 C394,581.408555 395.169171,583.407659 397.058433,584.470368 L411.058433,592.345368 C412.884914,593.372764 415.115086,593.372764 416.941567,592.345368 L430.941567,584.470368 C432.830829,583.407659 434,581.408555 434,579.240915 L434,563.758882 C434,561.59135 432.830945,559.592329 430.941831,558.529577 L416.94384,550.65478 C415.117411,549.627292 412.887238,549.62718 411.060706,550.654484 Z"/><path id="hexagon" d="M371.060706,369.654484 L357.058696,377.529686 C355.169286,378.592354 354,380.59154 354,382.759288 L354,398.240915 C354,400.408555 355.169171,402.407659 357.058433,403.470368 L371.058433,411.345368 C372.884914,412.372764 375.115086,412.372764 376.941567,411.345368 L390.941567,403.470368 C392.830829,402.407659 394,400.408555 394,398.240915 L394,382.758882 C394,380.59135 392.830945,378.592329 390.941831,377.529577 L376.94384,369.65478 C375.117411,368.627292 372.887238,368.62718 371.060706,369.654484 Z"/><path id="hexagon" d="M274.060706,1.65448363 L260.058696,9.52968629 C258.169286,10.592354 257,12.5915396 257,14.7592876 L257,30.2409151 C257,32.408555 258.169171,34.4076585 260.058433,35.4703683 L274.058433,43.3453683 C275.884914,44.372764 278.115086,44.372764 279.941567,43.3453683 L293.941567,35.4703683 C295.830829,34.4076585 297,32.408555 297,30.2409151 L297,14.7588822 C297,12.5913504 295.830945,10.592329 293.941831,9.52957709 L279.94384,1.6547798 C278.117411,0.627292128 275.887238,0.627179858 274.060706,1.65448363 Z"/><path id="hexagon" d="M67.043607,436.676093 L58.0421883,441.776296 C56.1620455,442.841585 55,444.835612 55,446.996579 L55,457.003624 C55,459.164482 56.1619299,461.158427 58.0419246,462.223757 L67.0419246,467.323757 C68.8769055,468.36358 71.1230945,468.36358 72.9580754,467.323757 L81.9580754,462.223757 C83.8380701,461.158427 85,459.164482 85,457.003624 L85,446.996173 C85,444.835423 83.8381857,442.841561 81.9583392,441.776189 L72.9597579,436.676392 C71.1248296,435.636477 68.8786405,435.636363 67.043607,436.676093 Z"/><path id="hexagon" d="M185.043607,543.676093 L176.042188,548.776296 C174.162046,549.841585 173,551.835612 173,553.996579 L173,564.003624 C173,566.164482 174.16193,568.158427 176.041925,569.223757 L185.041925,574.323757 C186.876905,575.36358 189.123095,575.36358 190.958075,574.323757 L199.958075,569.223757 C201.83807,568.158427 203,566.164482 203,564.003624 L203,553.996173 C203,551.835423 201.838186,549.841561 199.958339,548.776189 L190.959758,543.676392 C189.12483,542.636477 186.878641,542.636363 185.043607,543.676093 Z"/><path id="hexagon" d="M514.156857,524.531567 L507.155661,528.300998 C505.212057,529.347431 504,531.376564 504,533.583965 L504,540.416236 C504,542.62353 505.211942,544.652584 507.155401,545.699062 L514.155401,549.468293 C515.931259,550.424524 518.068741,550.424524 519.844599,549.468293 L526.844599,545.699062 C528.788058,544.652584 530,542.62353 530,540.416236 L530,533.583564 C530,531.376375 528.788173,529.347401 526.844859,528.300878 L519.846055,524.531847 C518.070244,523.575528 515.932762,523.575423 514.156857,524.531567 Z"/><path id="hexagon" d="M12.043607,241.676093 L3.04218834,246.776296 C1.16204551,247.841585 1.51171474e-15,249.835612 0,251.996579 L0,262.003624 C3.00059952e-15,264.164482 1.1619299,266.158427 3.04192457,267.223757 L12.0419246,272.323757 C13.8769055,273.36358 16.1230945,273.36358 17.9580754,272.323757 L26.9580754,267.223757 C28.8380701,266.158427 30,264.164482 30,262.003624 L30,251.996173 C30,249.835423 28.8381857,247.841561 26.9583392,246.776189 L17.9597579,241.676392 C16.1248296,240.636477 13.8786405,240.636363 12.043607,241.676093 Z"/><path id="hexagon" d="M162.573991,87.6354895 L160.073335,89.0327506 C158.175717,90.093059 157,92.0968045 157,94.2705583 L157,96.729644 C157,98.9032901 158.175602,100.906954 160.073072,101.967305 L162.573072,103.364364 C164.391986,104.380816 166.608014,104.380816 168.426928,103.364364 L170.926928,101.967305 C172.824398,100.906954 174,98.9032901 174,96.729644 L174,94.2701537 C174,92.0966153 172.824514,90.0930333 170.927191,89.0326397 L168.427848,87.6357832 C166.608984,86.6192398 164.392957,86.6191286 162.573991,87.6354895 Z"/><path id="hexagon" d="M237.573991,1.6354895 L235.073335,3.03275062 C233.175717,4.09305899 232,6.09680448 232,8.27055834 L232,10.729644 C232,12.9032901 233.175602,14.9069539 235.073072,15.9673049 L237.573072,17.3643637 C239.391986,18.3808158 241.608014,18.3808158 243.426928,17.3643637 L245.926928,15.9673049 C247.824398,14.9069539 249,12.9032901 249,10.729644 L249,8.2701537 C249,6.09661533 247.824514,4.0930333 245.927191,3.03263967 L243.427848,1.63578319 C241.608984,0.619239775 239.392957,0.619128597 237.573991,1.6354895 Z"/><path id="hexagon" d="M128.573991,77.6354895 L126.073335,79.0327506 C124.175717,80.093059 123,82.0968045 123,84.2705583 L123,86.729644 C123,88.9032901 124.175602,90.9069539 126.073072,91.9673049 L128.573072,93.3643637 C130.391986,94.3808158 132.608014,94.3808158 134.426928,93.3643637 L136.926928,91.9673049 C138.824398,90.9069539 140,88.9032901 140,86.729644 L140,84.2701537 C140,82.0966153 138.824514,80.0930333 136.927191,79.0326397 L134.427848,77.6357832 C132.608984,76.6192398 130.392957,76.6191286 128.573991,77.6354895 Z"/><path id="hexagon" d="M97.5739912,103.63549 L95.0733346,105.032751 C93.1757171,106.093059 92,108.096804 92,110.270558 L92,112.729644 C92,114.90329 93.1756016,116.906954 95.0730719,117.967305 L97.5730719,119.364364 C99.3919862,120.380816 101.608014,120.380816 103.426928,119.364364 L105.926928,117.967305 C107.824398,116.906954 109,114.90329 109,112.729644 L109,110.270154 C109,108.096615 107.824514,106.093033 105.927191,105.03264 L103.427848,103.635783 C101.608984,102.61924 99.3929566,102.619129 97.5739912,103.63549 Z"/><path id="hexagon" d="M230.573991,204.63549 L228.073335,206.032751 C226.175717,207.093059 225,209.096804 225,211.270558 L225,213.729644 C225,215.90329 226.175602,217.906954 228.073072,218.967305 L230.573072,220.364364 C232.391986,221.380816 234.608014,221.380816 236.426928,220.364364 L238.926928,218.967305 C240.824398,217.906954 242,215.90329 242,213.729644 L242,211.270154 C242,209.096615 240.824514,207.093033 238.927191,206.03264 L236.427848,204.635783 C234.608984,203.61924 232.392957,203.619129 230.573991,204.63549 Z"/><path id="hexagon" d="M145.573991,258.63549 L143.073335,260.032751 C141.175717,261.093059 140,263.096804 140,265.270558 L140,267.729644 C140,269.90329 141.175602,271.906954 143.073072,272.967305 L145.573072,274.364364 C147.391986,275.380816 149.608014,275.380816 151.426928,274.364364 L153.926928,272.967305 C155.824398,271.906954 157,269.90329 157,267.729644 L157,265.270154 C157,263.096615 155.824514,261.093033 153.927191,260.03264 L151.427848,258.635783 C149.608984,257.61924 147.392957,257.619129 145.573991,258.63549 Z"/><path id="hexagon" d="M278.573991,378.63549 L276.073335,380.032751 C274.175717,381.093059 273,383.096804 273,385.270558 L273,387.729644 C273,389.90329 274.175602,391.906954 276.073072,392.967305 L278.573072,394.364364 C280.391986,395.380816 282.608014,395.380816 284.426928,394.364364 L286.926928,392.967305 C288.824398,391.906954 290,389.90329 290,387.729644 L290,385.270154 C290,383.096615 288.824514,381.093033 286.927191,380.03264 L284.427848,378.635783 C282.608984,377.61924 280.392957,377.619129 278.573991,378.63549 Z"/><path id="hexagon" d="M379.573991,258.63549 L377.073335,260.032751 C375.175717,261.093059 374,263.096804 374,265.270558 L374,267.729644 C374,269.90329 375.175602,271.906954 377.073072,272.967305 L379.573072,274.364364 C381.391986,275.380816 383.608014,275.380816 385.426928,274.364364 L387.926928,272.967305 C389.824398,271.906954 391,269.90329 391,267.729644 L391,265.270154 C391,263.096615 389.824514,261.093033 387.927191,260.03264 L385.427848,258.635783 C383.608984,257.61924 381.392957,257.619129 379.573991,258.63549 Z"/><path id="hexagon" d="M501.573991,222.63549 L499.073335,224.032751 C497.175717,225.093059 496,227.096804 496,229.270558 L496,231.729644 C496,233.90329 497.175602,235.906954 499.073072,236.967305 L501.573072,238.364364 C503.391986,239.380816 505.608014,239.380816 507.426928,238.364364 L509.926928,236.967305 C511.824398,235.906954 513,233.90329 513,231.729644 L513,229.270154 C513,227.096615 511.824514,225.093033 509.927191,224.03264 L507.427848,222.635783 C505.608984,221.61924 503.392957,221.619129 501.573991,222.63549 Z"/><path id="hexagon" d="M433.573991,140.63549 L431.073335,142.032751 C429.175717,143.093059 428,145.096804 428,147.270558 L428,149.729644 C428,151.90329 429.175602,153.906954 431.073072,154.967305 L433.573072,156.364364 C435.391986,157.380816 437.608014,157.380816 439.426928,156.364364 L441.926928,154.967305 C443.824398,153.906954 445,151.90329 445,149.729644 L445,147.270154 C445,145.096615 443.824514,143.093033 441.927191,142.03264 L439.427848,140.635783 C437.608984,139.61924 435.392957,139.619129 433.573991,140.63549 Z"/><path id="hexagon" d="M324.573991,106.63549 L322.073335,108.032751 C320.175717,109.093059 319,111.096804 319,113.270558 L319,115.729644 C319,117.90329 320.175602,119.906954 322.073072,120.967305 L324.573072,122.364364 C326.391986,123.380816 328.608014,123.380816 330.426928,122.364364 L332.926928,120.967305 C334.824398,119.906954 336,117.90329 336,115.729644 L336,113.270154 C336,111.096615 334.824514,109.093033 332.927191,108.03264 L330.427848,106.635783 C328.608984,105.61924 326.392957,105.619129 324.573991,106.63549 Z"/><path id="hexagon" d="M80.5739912,244.63549 L78.0733346,246.032751 C76.1757171,247.093059 75,249.096804 75,251.270558 L75,253.729644 C75,255.90329 76.1756016,257.906954 78.0730719,258.967305 L80.5730719,260.364364 C82.3919862,261.380816 84.6080138,261.380816 86.4269281,260.364364 L88.9269281,258.967305 C90.8243984,257.906954 92,255.90329 92,253.729644 L92,251.270154 C92,249.096615 90.8245139,247.093033 88.9271909,246.03264 L86.4278475,244.635783 C84.6089841,243.61924 82.3929566,243.619129 80.5739912,244.63549 Z"/><path id="hexagon" d="M29.5739912,178.63549 L27.0733346,180.032751 C25.1757171,181.093059 24,183.096804 24,185.270558 L24,187.729644 C24,189.90329 25.1756016,191.906954 27.0730719,192.967305 L29.5730719,194.364364 C31.3919862,195.380816 33.6080138,195.380816 35.4269281,194.364364 L37.9269281,192.967305 C39.8243984,191.906954 41,189.90329 41,187.729644 L41,185.270154 C41,183.096615 39.8245139,181.093033 37.9271909,180.03264 L35.4278475,178.635783 C33.6089841,177.61924 31.3929566,177.619129 29.5739912,178.63549 Z"/><path id="hexagon" d="M41.5739912,343.63549 L39.0733346,345.032751 C37.1757171,346.093059 36,348.096804 36,350.270558 L36,352.729644 C36,354.90329 37.1756016,356.906954 39.0730719,357.967305 L41.5730719,359.364364 C43.3919862,360.380816 45.6080138,360.380816 47.4269281,359.364364 L49.9269281,357.967305 C51.8243984,356.906954 53,354.90329 53,352.729644 L53,350.270154 C53,348.096615 51.8245139,346.093033 49.9271909,345.03264 L47.4278475,343.635783 C45.6089841,342.61924 43.3929566,342.619129 41.5739912,343.63549 Z"/><path id="hexagon" d="M86.1281055,553.56701 L81.1271481,556.294484 C79.1994376,557.345838 78,559.366228 78,561.562 L78,566.438201 C78,568.633867 79.1993224,570.654176 81.1268872,571.705575 L86.1268872,574.432848 C87.9177521,575.409683 90.0822479,575.409683 91.8731128,574.432848 L96.8731128,571.705575 C98.8006776,570.654176 100,568.633867 100,566.438201 L100,561.561598 C100,559.366039 98.8007929,557.34581 96.8733737,556.294367 L91.8743311,553.567295 C90.0835146,552.590371 87.9190188,552.590263 86.1281055,553.56701 Z"/><path id="hexagon" d="M318.573991,540.63549 L316.073335,542.032751 C314.175717,543.093059 313,545.096804 313,547.270558 L313,549.729644 C313,551.90329 314.175602,553.906954 316.073072,554.967305 L318.573072,556.364364 C320.391986,557.380816 322.608014,557.380816 324.426928,556.364364 L326.926928,554.967305 C328.824398,553.906954 330,551.90329 330,549.729644 L330,547.270154 C330,545.096615 328.824514,543.093033 326.927191,542.03264 L324.427848,540.635783 C322.608984,539.61924 320.392957,539.619129 318.573991,540.63549 Z"/><path id="hexagon" d="M382.573991,515.63549 L380.073335,517.032751 C378.175717,518.093059 377,520.096804 377,522.270558 L377,524.729644 C377,526.90329 378.175602,528.906954 380.073072,529.967305 L382.573072,531.364364 C384.391986,532.380816 386.608014,532.380816 388.426928,531.364364 L390.926928,529.967305 C392.824398,528.906954 394,526.90329 394,524.729644 L394,522.270154 C394,520.096615 392.824514,518.093033 390.927191,517.03264 L388.427848,515.635783 C386.608984,514.61924 384.392957,514.619129 382.573991,515.63549 Z"/><path id="hexagon" d="M450.573991,569.63549 L448.073335,571.032751 C446.175717,572.093059 445,574.096804 445,576.270558 L445,578.729644 C445,580.90329 446.175602,582.906954 448.073072,583.967305 L450.573072,585.364364 C452.391986,586.380816 454.608014,586.380816 456.426928,585.364364 L458.926928,583.967305 C460.824398,582.906954 462,580.90329 462,578.729644 L462,576.270154 C462,574.096615 460.824514,572.093033 458.927191,571.03264 L456.427848,569.635783 C454.608984,568.61924 452.392957,568.619129 450.573991,569.63549 Z"/><path id="hexagon" d="M430.573991,434.63549 L428.073335,436.032751 C426.175717,437.093059 425,439.096804 425,441.270558 L425,443.729644 C425,445.90329 426.175602,447.906954 428.073072,448.967305 L430.573072,450.364364 C432.391986,451.380816 434.608014,451.380816 436.426928,450.364364 L438.926928,448.967305 C440.824398,447.906954 442,445.90329 442,443.729644 L442,441.270154 C442,439.096615 440.824514,437.093033 438.927191,436.03264 L436.427848,434.635783 C434.608984,433.61924 432.392957,433.619129 430.573991,434.63549 Z"/><path id="hexagon" d="M342.573991,413.63549 L340.073335,415.032751 C338.175717,416.093059 337,418.096804 337,420.270558 L337,422.729644 C337,424.90329 338.175602,426.906954 340.073072,427.967305 L342.573072,429.364364 C344.391986,430.380816 346.608014,430.380816 348.426928,429.364364 L350.926928,427.967305 C352.824398,426.906954 354,424.90329 354,422.729644 L354,420.270154 C354,418.096615 352.824514,416.093033 350.927191,415.03264 L348.427848,413.635783 C346.608984,412.61924 344.392957,412.619129 342.573991,413.63549 Z"/><path id="hexagon" d="M521.573991,136.63549 L519.073335,138.032751 C517.175717,139.093059 516,141.096804 516,143.270558 L516,145.729644 C516,147.90329 517.175602,149.906954 519.073072,150.967305 L521.573072,152.364364 C523.391986,153.380816 525.608014,153.380816 527.426928,152.364364 L529.926928,150.967305 C531.824398,149.906954 533,147.90329 533,145.729644 L533,143.270154 C533,141.096615 531.824514,139.093033 529.927191,138.03264 L527.427848,136.635783 C525.608984,135.61924 523.392957,135.619129 521.573991,136.63549 Z"/><path id="hexagon" d="M442.573991,106.63549 L440.073335,108.032751 C438.175717,109.093059 437,111.096804 437,113.270558 L437,115.729644 C437,117.90329 438.175602,119.906954 440.073072,120.967305 L442.573072,122.364364 C444.391986,123.380816 446.608014,123.380816 448.426928,122.364364 L450.926928,120.967305 C452.824398,119.906954 454,117.90329 454,115.729644 L454,113.270154 C454,111.096615 452.824514,109.093033 450.927191,108.03264 L448.427848,106.635783 C446.608984,105.61924 444.392957,105.619129 442.573991,106.63549 Z"/><path id="hexagon" d="M237.992548,112.745825 L218.989957,123.766029 C217.139212,124.839335 216,126.816922 216,128.95637 L216,151.043834 C216,153.183173 217.139096,155.160676 218.989691,156.234021 L237.989691,167.254021 C239.85133,168.333772 242.14867,168.333772 244.010309,167.254021 L263.010309,156.234021 C264.860904,155.160676 266,153.183173 266,151.043834 L266,128.955962 C266,126.816732 264.861019,124.839313 263.010574,123.765929 L244.013165,112.746133 C242.151581,111.666287 239.854241,111.66617 237.992548,112.745825 Z"/></g><text id="France-P2P" fill="#383B62" font-family="CourierNewPS-BoldMT, Courier New" font-size="101" font-weight="bold"><tspan x="50.853" y="411">France</tspan> <tspan x="414.512" y="411" font-size="62"> </tspan> <tspan x="451.718" y="411">P</tspan> <tspan x="512.328" y="411" font-size="92">2</tspan> <tspan x="567.537" y="411">P</tspan></text></g></g></svg>