<?xml version="1.0" encoding="UTF-8"?>
<svg width="790px" height="790px" viewBox="0 0 790 790" version="1.1" xmlns="http://www.w3.org/2000/svg" xmlns:xlink="http://www.w3.org/1999/xlink">
    <!-- Generator: Sketch 57.1 (83088) - https://sketch.com -->
    <title>france_p2p_red</title>
    <desc>Created with Sketch.</desc>
    <g id="Page-1" stroke="none" stroke-width="1" fill="none" fill-rule="evenodd">
        <g id="france-p2p-red" transform="translate(55.000000, 12.000000)">
            <path d="M329.534514,5.77871487 L17.9966373,185.725851 C11.8105108,189.299014 8,195.900492 8,203.044417 L8,562.956263 C8,570.099823 11.8101252,576.701023 17.9957536,580.274319 L329.495754,760.220775 C335.685933,763.7967 343.314067,763.7967 349.504246,760.220775 L661.004246,580.274319 C667.189875,576.701023 671,570.099823 671,562.956263 L671,203.043056 C671,195.899861 667.190261,189.298941 661.00513,185.725511 L349.543007,5.77973589 C343.35301,2.20349427 335.724876,2.20310501 329.534514,5.77871487 Z" id="hexagon" stroke="#FF4B75" stroke-width="18" fill="#FF4B75" stroke-linejoin="round"></path>
            <polyline id="Path-31" stroke="#FF6387" stroke-width="8" stroke-linecap="round" stroke-linejoin="round" points="261 611.755556 486 624 446.460251 444.100855 313.248954 194.031624 349.493724 73"></polyline>
            <polygon id="Path-33" stroke="#FF6387" stroke-width="8" stroke-linecap="round" stroke-linejoin="round" points="314 194.005525 89 310 158.811321 305.303867 105.981132 240.497238 173.90566 165.359116 205.037736 140 239 149.392265"></polygon>
            <polyline id="Path-32" stroke="#FF6387" stroke-width="8" stroke-linecap="round" stroke-linejoin="round" points="313.191489 194 221.322188 319.623298 145 505 354.179331 439.130106 418.25228 473.94705 446.519757 443.835098 455 319.623298"></polyline>
            <polyline id="Path-35" stroke="#FF6387" stroke-width="8" stroke-linecap="round" stroke-linejoin="round" points="596 198.068966 517.283019 168 508.849057 201.827586 576.320755 283.577586 447 441.439655 506.037736 495"></polyline>
            <polyline id="Path-36" stroke="#FF6387" stroke-width="8" stroke-linecap="round" stroke-linejoin="round" points="400 168 313.51 193.649038 307 265"></polyline>
            <path d="M314,194 L222,320" id="Path-37" stroke="#FF6387" stroke-width="8" stroke-linecap="round" stroke-linejoin="round"></path>
            <polyline id="Path-34" stroke="#FF6387" stroke-width="8" stroke-linecap="round" stroke-linejoin="round" points="588 590.150943 486.306569 626 459 576"></polyline>
            <polyline id="Path-38" stroke="#FF6387" stroke-width="8" stroke-linecap="round" stroke-linejoin="round" points="89 310 118.241135 405 222 319.5"></polyline>
            <path d="M314,194 L173,165" id="Path-39" stroke="#FF6387" stroke-width="8" stroke-linecap="round" stroke-linejoin="round"></path>
            <polygon id="Path-40" stroke="#FF6387" stroke-width="8" stroke-linecap="round" stroke-linejoin="round" points="314 192 508.628571 201.484536 576 284"></polygon>
            <polyline id="Path-41" stroke="#FF6387" stroke-width="8" stroke-linecap="round" stroke-linejoin="round" points="394 600 486.4 623.333333 526 630"></polyline>
            <polyline id="Path-42" stroke="#FF6387" stroke-width="8" stroke-linecap="round" stroke-linejoin="round" points="144 505.100796 163.276119 617 261.537313 610.862069 354.626866 439 394.119403 600.94695 418.567164 473.938992 459 575.923077"></polyline>
            <path d="M350,86 L313,64" id="Path-43" stroke="#FF6387" stroke-width="8" stroke-linecap="round" stroke-linejoin="round"></path>
            <g id="dots" transform="translate(74.000000, 54.000000)" fill="#FF88A4">
                <path d="M410.060706,548.654484 L396.058696,556.529686 C394.169286,557.592354 393,559.59154 393,561.759288 L393,577.240915 C393,579.408555 394.169171,581.407659 396.058433,582.470368 L410.058433,590.345368 C411.884914,591.372764 414.115086,591.372764 415.941567,590.345368 L429.941567,582.470368 C431.830829,581.407659 433,579.408555 433,577.240915 L433,561.758882 C433,559.59135 431.830945,557.592329 429.941831,556.529577 L415.94384,548.65478 C414.117411,547.627292 411.887238,547.62718 410.060706,548.654484 Z" id="hexagon"></path>
                <path d="M370.060706,368.654484 L356.058696,376.529686 C354.169286,377.592354 353,379.59154 353,381.759288 L353,397.240915 C353,399.408555 354.169171,401.407659 356.058433,402.470368 L370.058433,410.345368 C371.884914,411.372764 374.115086,411.372764 375.941567,410.345368 L389.941567,402.470368 C391.830829,401.407659 393,399.408555 393,397.240915 L393,381.758882 C393,379.59135 391.830945,377.592329 389.941831,376.529577 L375.94384,368.65478 C374.117411,367.627292 371.887238,367.62718 370.060706,368.654484 Z" id="hexagon"></path>
                <path d="M273.060706,1.65448363 L259.058696,9.52968629 C257.169286,10.592354 256,12.5915396 256,14.7592876 L256,30.2409151 C256,32.408555 257.169171,34.4076585 259.058433,35.4703683 L273.058433,43.3453683 C274.884914,44.372764 277.115086,44.372764 278.941567,43.3453683 L292.941567,35.4703683 C294.830829,34.4076585 296,32.408555 296,30.2409151 L296,14.7588822 C296,12.5913504 294.830945,10.592329 292.941831,9.52957709 L278.94384,1.6547798 C277.117411,0.627292128 274.887238,0.627179858 273.060706,1.65448363 Z" id="hexagon"></path>
                <path d="M67.043607,435.676093 L58.0421883,440.776296 C56.1620455,441.841585 55,443.835612 55,445.996579 L55,456.003624 C55,458.164482 56.1619299,460.158427 58.0419246,461.223757 L67.0419246,466.323757 C68.8769055,467.36358 71.1230945,467.36358 72.9580754,466.323757 L81.9580754,461.223757 C83.8380701,460.158427 85,458.164482 85,456.003624 L85,445.996173 C85,443.835423 83.8381857,441.841561 81.9583392,440.776189 L72.9597579,435.676392 C71.1248296,434.636477 68.8786405,434.636363 67.043607,435.676093 Z" id="hexagon"></path>
                <path d="M185.043607,541.676093 L176.042188,546.776296 C174.162046,547.841585 173,549.835612 173,551.996579 L173,562.003624 C173,564.164482 174.16193,566.158427 176.041925,567.223757 L185.041925,572.323757 C186.876905,573.36358 189.123095,573.36358 190.958075,572.323757 L199.958075,567.223757 C201.83807,566.158427 203,564.164482 203,562.003624 L203,551.996173 C203,549.835423 201.838186,547.841561 199.958339,546.776189 L190.959758,541.676392 C189.12483,540.636477 186.878641,540.636363 185.043607,541.676093 Z" id="hexagon"></path>
                <path d="M512.56977,523.64156 L506.068643,527.281763 C504.173655,528.342831 503,530.345116 503,532.516946 L503,539.483257 C503,541.654978 504.173539,543.657182 506.06838,544.718293 L512.56838,548.358293 C514.389722,549.378245 516.610278,549.378245 518.43162,548.358293 L524.93162,544.718293 C526.826461,543.657182 528,541.654978 528,539.483257 L528,532.516541 C528,530.344927 526.826576,528.342805 524.931883,527.281652 L518.43301,523.641855 C516.611719,522.621811 514.391164,522.6217 512.56977,523.64156 Z" id="hexagon"></path>
                <path d="M12.043607,240.676093 L3.04218834,245.776296 C1.16204551,246.841585 1.51171474e-15,248.835612 0,250.996579 L0,261.003624 C3.00059952e-15,263.164482 1.1619299,265.158427 3.04192457,266.223757 L12.0419246,271.323757 C13.8769055,272.36358 16.1230945,272.36358 17.9580754,271.323757 L26.9580754,266.223757 C28.8380701,265.158427 30,263.164482 30,261.003624 L30,250.996173 C30,248.835423 28.8381857,246.841561 26.9583392,245.776189 L17.9597579,240.676392 C16.1248296,239.636477 13.8786405,239.636363 12.043607,240.676093 Z" id="hexagon"></path>
                <path d="M162.573991,86.6354895 L160.073335,88.0327506 C158.175717,89.093059 157,91.0968045 157,93.2705583 L157,95.729644 C157,97.9032901 158.175602,99.9069539 160.073072,100.967305 L162.573072,102.364364 C164.391986,103.380816 166.608014,103.380816 168.426928,102.364364 L170.926928,100.967305 C172.824398,99.9069539 174,97.9032901 174,95.729644 L174,93.2701537 C174,91.0966153 172.824514,89.0930333 170.927191,88.0326397 L168.427848,86.6357832 C166.608984,85.6192398 164.392957,85.6191286 162.573991,86.6354895 Z" id="hexagon"></path>
                <path d="M236.573991,1.6354895 L234.073335,3.03275062 C232.175717,4.09305899 231,6.09680448 231,8.27055834 L231,10.729644 C231,12.9032901 232.175602,14.9069539 234.073072,15.9673049 L236.573072,17.3643637 C238.391986,18.3808158 240.608014,18.3808158 242.426928,17.3643637 L244.926928,15.9673049 C246.824398,14.9069539 248,12.9032901 248,10.729644 L248,8.2701537 C248,6.09661533 246.824514,4.0930333 244.927191,3.03263967 L242.427848,1.63578319 C240.608984,0.619239775 238.392957,0.619128597 236.573991,1.6354895 Z" id="hexagon"></path>
                <path d="M128.573991,77.6354895 L126.073335,79.0327506 C124.175717,80.093059 123,82.0968045 123,84.2705583 L123,86.729644 C123,88.9032901 124.175602,90.9069539 126.073072,91.9673049 L128.573072,93.3643637 C130.391986,94.3808158 132.608014,94.3808158 134.426928,93.3643637 L136.926928,91.9673049 C138.824398,90.9069539 140,88.9032901 140,86.729644 L140,84.2701537 C140,82.0966153 138.824514,80.0930333 136.927191,79.0326397 L134.427848,77.6357832 C132.608984,76.6192398 130.392957,76.6191286 128.573991,77.6354895 Z" id="hexagon"></path>
                <path d="M96.5739912,103.63549 L94.0733346,105.032751 C92.1757171,106.093059 91,108.096804 91,110.270558 L91,112.729644 C91,114.90329 92.1756016,116.906954 94.0730719,117.967305 L96.5730719,119.364364 C98.3919862,120.380816 100.608014,120.380816 102.426928,119.364364 L104.926928,117.967305 C106.824398,116.906954 108,114.90329 108,112.729644 L108,110.270154 C108,108.096615 106.824514,106.093033 104.927191,105.03264 L102.427848,103.635783 C100.608984,102.61924 98.3929566,102.619129 96.5739912,103.63549 Z" id="hexagon"></path>
                <path d="M229.573991,203.63549 L227.073335,205.032751 C225.175717,206.093059 224,208.096804 224,210.270558 L224,212.729644 C224,214.90329 225.175602,216.906954 227.073072,217.967305 L229.573072,219.364364 C231.391986,220.380816 233.608014,220.380816 235.426928,219.364364 L237.926928,217.967305 C239.824398,216.906954 241,214.90329 241,212.729644 L241,210.270154 C241,208.096615 239.824514,206.093033 237.927191,205.03264 L235.427848,203.635783 C233.608984,202.61924 231.392957,202.619129 229.573991,203.63549 Z" id="hexagon"></path>
                <path d="M144.573991,257.63549 L142.073335,259.032751 C140.175717,260.093059 139,262.096804 139,264.270558 L139,266.729644 C139,268.90329 140.175602,270.906954 142.073072,271.967305 L144.573072,273.364364 C146.391986,274.380816 148.608014,274.380816 150.426928,273.364364 L152.926928,271.967305 C154.824398,270.906954 156,268.90329 156,266.729644 L156,264.270154 C156,262.096615 154.824514,260.093033 152.927191,259.03264 L150.427848,257.635783 C148.608984,256.61924 146.392957,256.619129 144.573991,257.63549 Z" id="hexagon"></path>
                <path d="M277.573991,377.63549 L275.073335,379.032751 C273.175717,380.093059 272,382.096804 272,384.270558 L272,386.729644 C272,388.90329 273.175602,390.906954 275.073072,391.967305 L277.573072,393.364364 C279.391986,394.380816 281.608014,394.380816 283.426928,393.364364 L285.926928,391.967305 C287.824398,390.906954 289,388.90329 289,386.729644 L289,384.270154 C289,382.096615 287.824514,380.093033 285.927191,379.03264 L283.427848,377.635783 C281.608984,376.61924 279.392957,376.619129 277.573991,377.63549 Z" id="hexagon"></path>
                <path d="M378.573991,257.63549 L376.073335,259.032751 C374.175717,260.093059 373,262.096804 373,264.270558 L373,266.729644 C373,268.90329 374.175602,270.906954 376.073072,271.967305 L378.573072,273.364364 C380.391986,274.380816 382.608014,274.380816 384.426928,273.364364 L386.926928,271.967305 C388.824398,270.906954 390,268.90329 390,266.729644 L390,264.270154 C390,262.096615 388.824514,260.093033 386.927191,259.03264 L384.427848,257.635783 C382.608984,256.61924 380.392957,256.619129 378.573991,257.63549 Z" id="hexagon"></path>
                <path d="M500.573991,221.63549 L498.073335,223.032751 C496.175717,224.093059 495,226.096804 495,228.270558 L495,230.729644 C495,232.90329 496.175602,234.906954 498.073072,235.967305 L500.573072,237.364364 C502.391986,238.380816 504.608014,238.380816 506.426928,237.364364 L508.926928,235.967305 C510.824398,234.906954 512,232.90329 512,230.729644 L512,228.270154 C512,226.096615 510.824514,224.093033 508.927191,223.03264 L506.427848,221.635783 C504.608984,220.61924 502.392957,220.619129 500.573991,221.63549 Z" id="hexagon"></path>
                <path d="M432.573991,139.63549 L430.073335,141.032751 C428.175717,142.093059 427,144.096804 427,146.270558 L427,148.729644 C427,150.90329 428.175602,152.906954 430.073072,153.967305 L432.573072,155.364364 C434.391986,156.380816 436.608014,156.380816 438.426928,155.364364 L440.926928,153.967305 C442.824398,152.906954 444,150.90329 444,148.729644 L444,146.270154 C444,144.096615 442.824514,142.093033 440.927191,141.03264 L438.427848,139.635783 C436.608984,138.61924 434.392957,138.619129 432.573991,139.63549 Z" id="hexagon"></path>
                <path d="M323.573991,105.63549 L321.073335,107.032751 C319.175717,108.093059 318,110.096804 318,112.270558 L318,114.729644 C318,116.90329 319.175602,118.906954 321.073072,119.967305 L323.573072,121.364364 C325.391986,122.380816 327.608014,122.380816 329.426928,121.364364 L331.926928,119.967305 C333.824398,118.906954 335,116.90329 335,114.729644 L335,112.270154 C335,110.096615 333.824514,108.093033 331.927191,107.03264 L329.427848,105.635783 C327.608984,104.61924 325.392957,104.619129 323.573991,105.63549 Z" id="hexagon"></path>
                <path d="M80.5739912,243.63549 L78.0733346,245.032751 C76.1757171,246.093059 75,248.096804 75,250.270558 L75,252.729644 C75,254.90329 76.1756016,256.906954 78.0730719,257.967305 L80.5730719,259.364364 C82.3919862,260.380816 84.6080138,260.380816 86.4269281,259.364364 L88.9269281,257.967305 C90.8243984,256.906954 92,254.90329 92,252.729644 L92,250.270154 C92,248.096615 90.8245139,246.093033 88.9271909,245.03264 L86.4278475,243.635783 C84.6089841,242.61924 82.3929566,242.619129 80.5739912,243.63549 Z" id="hexagon"></path>
                <path d="M28.5739912,178.63549 L26.0733346,180.032751 C24.1757171,181.093059 23,183.096804 23,185.270558 L23,187.729644 C23,189.90329 24.1756016,191.906954 26.0730719,192.967305 L28.5730719,194.364364 C30.3919862,195.380816 32.6080138,195.380816 34.4269281,194.364364 L36.9269281,192.967305 C38.8243984,191.906954 40,189.90329 40,187.729644 L40,185.270154 C40,183.096615 38.8245139,181.093033 36.9271909,180.03264 L34.4278475,178.635783 C32.6089841,177.61924 30.3929566,177.619129 28.5739912,178.63549 Z" id="hexagon"></path>
                <path d="M41.5739912,342.63549 L39.0733346,344.032751 C37.1757171,345.093059 36,347.096804 36,349.270558 L36,351.729644 C36,353.90329 37.1756016,355.906954 39.0730719,356.967305 L41.5730719,358.364364 C43.3919862,359.380816 45.6080138,359.380816 47.4269281,358.364364 L49.9269281,356.967305 C51.8243984,355.906954 53,353.90329 53,351.729644 L53,349.270154 C53,347.096615 51.8245139,345.093033 49.9271909,344.03264 L47.4278475,342.635783 C45.6089841,341.61924 43.3929566,341.619129 41.5739912,342.63549 Z" id="hexagon"></path>
                <path d="M85.619271,552.578034 L81.1183734,555.04252 C79.1955613,556.095365 78,558.113053 78,560.305241 L78,564.69496 C78,566.887041 79.1954459,568.904649 81.1181123,569.957538 L85.6181123,572.421823 C87.4135755,573.405053 89.5864245,573.405053 91.3818877,572.421823 L95.8818877,569.957538 C97.8045541,568.904649 99,566.887041 99,564.69496 L99,560.304839 C99,558.112864 97.8046694,556.095337 95.882149,555.042404 L91.3830465,552.57832 C89.587632,551.595001 87.414783,551.594893 85.619271,552.578034 Z" id="hexagon"></path>
                <path d="M317.573991,538.63549 L315.073335,540.032751 C313.175717,541.093059 312,543.096804 312,545.270558 L312,547.729644 C312,549.90329 313.175602,551.906954 315.073072,552.967305 L317.573072,554.364364 C319.391986,555.380816 321.608014,555.380816 323.426928,554.364364 L325.926928,552.967305 C327.824398,551.906954 329,549.90329 329,547.729644 L329,545.270154 C329,543.096615 327.824514,541.093033 325.927191,540.03264 L323.427848,538.635783 C321.608984,537.61924 319.392957,537.619129 317.573991,538.63549 Z" id="hexagon"></path>
                <path d="M381.573991,513.63549 L379.073335,515.032751 C377.175717,516.093059 376,518.096804 376,520.270558 L376,522.729644 C376,524.90329 377.175602,526.906954 379.073072,527.967305 L381.573072,529.364364 C383.391986,530.380816 385.608014,530.380816 387.426928,529.364364 L389.926928,527.967305 C391.824398,526.906954 393,524.90329 393,522.729644 L393,520.270154 C393,518.096615 391.824514,516.093033 389.927191,515.03264 L387.427848,513.635783 C385.608984,512.61924 383.392957,512.619129 381.573991,513.63549 Z" id="hexagon"></path>
                <path d="M448.573991,567.63549 L446.073335,569.032751 C444.175717,570.093059 443,572.096804 443,574.270558 L443,576.729644 C443,578.90329 444.175602,580.906954 446.073072,581.967305 L448.573072,583.364364 C450.391986,584.380816 452.608014,584.380816 454.426928,583.364364 L456.926928,581.967305 C458.824398,580.906954 460,578.90329 460,576.729644 L460,574.270154 C460,572.096615 458.824514,570.093033 456.927191,569.03264 L454.427848,567.635783 C452.608984,566.61924 450.392957,566.619129 448.573991,567.63549 Z" id="hexagon"></path>
                <path d="M429.573991,433.63549 L427.073335,435.032751 C425.175717,436.093059 424,438.096804 424,440.270558 L424,442.729644 C424,444.90329 425.175602,446.906954 427.073072,447.967305 L429.573072,449.364364 C431.391986,450.380816 433.608014,450.380816 435.426928,449.364364 L437.926928,447.967305 C439.824398,446.906954 441,444.90329 441,442.729644 L441,440.270154 C441,438.096615 439.824514,436.093033 437.927191,435.03264 L435.427848,433.635783 C433.608984,432.61924 431.392957,432.619129 429.573991,433.63549 Z" id="hexagon"></path>
                <path d="M341.573991,412.63549 L339.073335,414.032751 C337.175717,415.093059 336,417.096804 336,419.270558 L336,421.729644 C336,423.90329 337.175602,425.906954 339.073072,426.967305 L341.573072,428.364364 C343.391986,429.380816 345.608014,429.380816 347.426928,428.364364 L349.926928,426.967305 C351.824398,425.906954 353,423.90329 353,421.729644 L353,419.270154 C353,417.096615 351.824514,415.093033 349.927191,414.03264 L347.427848,412.635783 C345.608984,411.61924 343.392957,411.619129 341.573991,412.63549 Z" id="hexagon"></path>
                <path d="M519.573991,135.63549 L517.073335,137.032751 C515.175717,138.093059 514,140.096804 514,142.270558 L514,144.729644 C514,146.90329 515.175602,148.906954 517.073072,149.967305 L519.573072,151.364364 C521.391986,152.380816 523.608014,152.380816 525.426928,151.364364 L527.926928,149.967305 C529.824398,148.906954 531,146.90329 531,144.729644 L531,142.270154 C531,140.096615 529.824514,138.093033 527.927191,137.03264 L525.427848,135.635783 C523.608984,134.61924 521.392957,134.619129 519.573991,135.63549 Z" id="hexagon"></path>
                <path d="M440.573991,105.63549 L438.073335,107.032751 C436.175717,108.093059 435,110.096804 435,112.270558 L435,114.729644 C435,116.90329 436.175602,118.906954 438.073072,119.967305 L440.573072,121.364364 C442.391986,122.380816 444.608014,122.380816 446.426928,121.364364 L448.926928,119.967305 C450.824398,118.906954 452,116.90329 452,114.729644 L452,112.270154 C452,110.096615 450.824514,108.093033 448.927191,107.03264 L446.427848,105.635783 C444.608984,104.61924 442.392957,104.619129 440.573991,105.63549 Z" id="hexagon"></path>
                <path d="M236.031641,112.693444 L217.029046,123.523647 C215.156289,124.590993 214,126.5809 214,128.736461 L214,150.263742 C214,152.419195 215.156174,154.409019 217.028782,155.476406 L236.028782,166.306406 C237.870504,167.356187 240.129496,167.356187 241.971218,166.306406 L260.971218,155.476406 C262.843826,154.409019 264,152.419195 264,150.263742 L264,128.736055 C264,126.580711 262.843942,124.590969 260.971482,123.523542 L241.974078,112.693745 C240.132408,111.64387 237.873417,111.643755 236.031641,112.693444 Z" id="hexagon"></path>
            </g>
            <text id="France-P2P" font-family="CourierNewPS-BoldMT, Courier New" font-size="101" font-weight="bold" fill="#FFFFFF">
                <tspan x="50.8530273" y="410">France</tspan>
                <tspan x="414.512207" y="410" font-size="62"> </tspan>
                <tspan x="451.718262" y="410">P</tspan>
                <tspan x="512.328125" y="410" font-size="92">2</tspan>
                <tspan x="567.537109" y="410">P</tspan>
            </text>
        </g>
    </g>
</svg>